{"glyphs":{"0":{"ha":690,"x_min":34,"x_max":589,"o":"m 126 -186 q 134 -149 127 -171 q 144 -94 144 -117 q 135 -30 144 -62 q 129 3 130 -9 q 98 73 119 73 q 79 56 85 73 q 70 -7 70 31 q 70 -16 70 -12 q 74 -50 70 -20 l 77 -75 l 76 -77 q 60 -45 73 -77 l 57 -38 q 39 87 39 17 q 41 149 39 117 l 42 210 q 39 272 42 239 q 34 360 34 316 q 38 450 34 408 q 137 712 64 617 q 348 816 218 816 q 426 802 399 816 q 519 747 485 798 q 572 607 555 685 q 589 447 589 528 q 543 181 589 307 q 526 83 528 134 q 507 -27 523 28 q 480 -92 489 -86 l 478 -93 q 471 -55 471 -93 l 471 -20 q 470 -4 471 -15 q 464 17 468 7 q 452 26 460 26 l 449 26 q 414 -38 435 20 q 405 -63 410 -52 q 379 -111 399 -74 q 355 -152 359 -147 q 349 -157 351 -157 q 344 -140 344 -157 q 349 -88 344 -121 q 350 -79 350 -85 q 323 -32 350 -35 q 291 -60 306 -32 q 279 -102 283 -77 q 271 -132 275 -118 q 254 -154 264 -154 q 236 -136 243 -154 q 222 -96 229 -118 q 212 -64 217 -77 q 201 -50 206 -50 q 184 -83 191 -50 q 174 -113 180 -100 l 168 -126 q 126 -186 144 -174 m 298 199 q 319 232 307 207 q 357 368 347 287 q 363 448 363 408 q 343 587 363 524 q 313 570 326 585 q 262 420 279 526 q 260 361 260 388 q 275 244 260 290 q 298 199 288 205 z "},"1":{"ha":397,"x_min":34,"x_max":296,"o":"m 125 -240 q 116 -233 123 -240 q 105 -226 112 -229 q 64 -184 75 -207 q 47 -133 53 -162 q 39 -102 43 -119 q 34 -52 34 -80 q 38 27 34 -13 q 41 60 40 45 q 41 68 41 64 q 54 219 45 163 l 58 262 q 69 485 69 375 q 58 633 69 582 q 55 662 55 648 q 78 730 55 700 q 140 771 101 761 q 168 774 155 774 q 237 751 206 774 q 278 689 267 728 q 296 481 296 610 q 266 111 296 294 q 264 80 264 97 q 265 46 264 63 q 266 14 266 28 q 257 -64 266 -39 q 233 -117 249 -90 q 207 -169 218 -145 q 201 -176 203 -176 q 200 -172 201 -176 q 209 -127 203 -149 q 219 -69 219 -91 q 210 -37 219 -50 q 198 -30 203 -30 q 174 -58 186 -30 q 172 -63 174 -61 l 157 -94 q 134 -139 146 -117 l 127 -152 q 108 -171 116 -171 q 98 -158 102 -171 q 96 -132 96 -149 q 94 -100 96 -115 q 87 -82 93 -85 l 86 -82 q 75 -115 79 -82 q 71 -154 71 -139 q 84 -195 74 -182 q 106 -214 95 -208 q 126 -237 123 -224 q 125 -240 126 -240 z "},"2":{"ha":774,"x_min":34,"x_max":673,"o":"m 461 -264 q 458 -249 458 -260 l 457 -241 q 437 -167 450 -201 q 418 -77 420 -117 q 395 5 413 -5 q 369 13 385 11 l 353 15 q 328 18 335 18 l 325 18 q 296 -31 304 13 l 296 -30 q 294 -41 296 -30 l 293 -49 q 269 -124 284 -92 q 242 -208 245 -176 q 235 -240 240 -240 q 227 -225 231 -240 q 220 -182 220 -201 q 225 -138 220 -159 q 230 -93 230 -118 l 229 -82 q 215 -41 228 -60 q 182 -22 202 -22 q 144 -75 144 -22 q 163 -182 144 -117 q 172 -222 172 -217 l 172 -222 q 166 -211 171 -222 q 152 -180 161 -199 q 133 -141 142 -162 q 91 -4 106 -74 l 79 43 q 68 111 68 83 q 108 182 68 163 q 152 220 129 193 q 165 233 159 228 q 212 247 175 241 q 347 374 305 314 q 389 481 388 434 l 389 488 q 370 541 389 524 q 352 549 361 549 l 349 549 q 294 459 319 545 q 252 398 283 420 q 184 375 222 375 q 154 380 170 375 q 128 390 138 385 q 105 407 119 396 q 94 412 98 412 q 82 399 85 412 q 79 376 79 386 q 88 317 79 361 q 100 249 100 263 q 96 240 98 240 q 80 269 92 240 q 69 299 73 288 q 62 319 65 311 q 42 378 50 353 q 34 427 34 403 q 70 536 34 473 l 79 553 q 104 600 92 574 q 181 707 134 662 q 296 769 229 751 q 354 777 325 777 q 528 704 451 777 q 592 610 568 665 q 616 489 616 555 l 615 470 q 509 217 609 345 l 578 203 q 647 164 621 195 q 673 92 673 133 q 664 50 673 71 q 660 35 662 43 q 657 13 658 27 q 646 -60 656 -43 q 640 -64 643 -64 q 632 -59 637 -64 q 623 -50 627 -54 q 604 -32 613 -39 q 574 -24 594 -26 l 566 -23 q 535 -20 549 -20 q 500 -39 514 -20 q 474 -86 484 -58 q 465 -140 465 -115 l 467 -167 q 471 -218 471 -192 q 461 -264 471 -251 z "},"3":{"ha":781,"x_min":34,"x_max":680,"o":"m 454 -364 q 453 -361 453 -364 q 462 -318 453 -353 q 490 -231 474 -283 q 513 -92 510 -160 l 514 -70 q 486 -1 514 -1 q 477 -3 481 -1 q 446 -16 456 -9 q 384 -111 417 -37 q 357 -196 359 -165 q 359 -219 357 -207 q 361 -239 361 -231 q 355 -252 359 -252 q 338 -229 349 -252 q 326 -201 328 -206 q 322 -162 322 -185 l 323 -100 q 314 -39 322 -58 q 265 -9 304 -16 q 256 -7 260 -9 q 241 -5 248 -5 q 217 -17 224 -5 q 203 -47 209 -28 q 194 -99 194 -75 q 200 -144 194 -118 q 210 -199 210 -186 q 208 -205 209 -205 q 171 -134 184 -166 l 170 -133 q 149 -67 155 -98 q 90 80 132 37 q 34 201 34 134 q 85 309 34 273 q 149 330 114 330 q 186 323 168 330 q 262 231 252 298 q 364 204 306 204 q 419 218 396 204 q 452 262 446 237 q 454 271 454 267 l 450 272 q 374 287 430 287 q 347 286 361 287 q 319 284 333 284 q 255 301 281 284 q 216 343 229 317 q 202 398 202 370 q 217 453 202 427 q 261 496 231 479 q 290 508 277 505 q 323 511 302 510 q 383 549 361 517 q 393 577 393 566 q 391 586 393 583 q 368 597 383 597 q 317 582 336 597 q 268 543 298 566 q 196 520 237 520 q 175 513 181 520 q 165 492 169 506 q 156 454 161 471 q 130 412 144 412 q 106 447 115 412 q 94 501 97 484 q 85 569 85 544 l 85 600 l 85 626 q 145 749 85 697 q 368 824 227 820 q 550 766 479 824 q 612 671 592 730 q 624 593 624 635 q 588 452 624 523 q 680 269 680 381 q 650 148 680 203 q 616 96 637 123 q 600 60 604 77 q 591 7 593 37 q 562 -118 581 -54 q 517 -239 548 -171 q 475 -326 497 -283 q 462 -351 469 -338 q 454 -364 456 -364 z "},"4":{"ha":779,"x_min":34,"x_max":677,"o":"m 327 -285 q 322 -278 326 -285 q 316 -262 319 -271 l 313 -256 q 296 -146 296 -203 q 300 -87 296 -115 q 307 -31 307 -43 q 302 20 307 -11 q 300 44 300 33 q 308 84 300 64 q 345 194 324 128 q 294 197 318 195 q 277 199 286 199 q 228 176 250 199 q 197 131 206 154 q 189 119 192 119 q 180 128 185 119 q 171 174 173 147 q 165 212 169 194 q 149 241 161 230 q 138 245 143 245 q 104 209 119 245 q 90 134 90 173 q 91 111 90 122 q 92 98 92 104 q 86 102 87 98 l 85 104 q 65 170 70 130 q 59 254 60 210 q 43 372 56 332 q 37 402 39 387 q 34 450 34 418 q 181 708 40 572 q 259 739 217 739 q 341 704 304 739 q 372 625 372 668 q 337 544 372 581 q 260 441 263 473 q 284 430 268 435 q 353 419 317 419 q 404 425 378 419 q 452 721 437 575 q 488 795 456 766 q 564 824 520 824 l 574 823 q 648 787 619 819 q 677 711 677 755 l 677 701 q 620 355 660 526 q 520 5 567 130 q 422 -68 493 -60 q 388 -79 401 -71 q 362 -104 375 -88 q 326 -226 326 -148 q 329 -278 326 -252 q 327 -285 329 -285 z "},"5":{"ha":836,"x_min":34,"x_max":734,"o":"m 313 -220 q 311 -207 311 -214 q 315 -184 311 -196 l 315 -184 q 343 -120 326 -148 q 361 -90 352 -106 q 370 -56 370 -73 q 352 -29 370 -37 q 345 -28 348 -28 q 321 -42 331 -28 q 302 -91 306 -63 q 296 -115 300 -102 l 292 -127 q 283 -146 287 -143 q 281 -138 282 -144 q 279 -125 281 -132 q 274 -109 278 -117 q 252 -59 261 -83 l 250 -54 q 234 -33 241 -33 q 225 -38 229 -33 q 216 -49 220 -43 q 208 -61 212 -56 l 191 -85 q 154 -132 176 -108 q 151 -136 151 -136 q 150 -137 151 -136 q 149 -137 150 -137 l 145 -136 q 154 -98 149 -116 q 164 -46 164 -66 q 162 -26 164 -37 q 153 6 161 -16 q 134 46 145 27 q 110 65 122 65 q 92 37 95 65 q 91 22 92 36 q 92 0 91 11 q 93 -14 93 -7 q 91 -22 93 -22 q 85 -13 89 -22 q 85 -12 85 -13 q 51 92 67 24 q 34 208 34 159 q 37 237 34 225 q 98 313 50 289 q 146 324 122 324 q 206 307 178 324 q 249 260 234 290 q 299 216 264 230 q 374 201 334 201 l 387 202 q 451 218 423 204 q 479 247 479 231 q 454 305 479 265 q 394 336 434 336 q 332 321 368 336 q 289 313 311 313 q 227 331 256 313 q 184 383 199 350 q 176 425 176 404 q 179 450 176 437 l 178 450 q 197 583 192 517 q 216 731 203 657 q 256 797 224 772 q 326 823 287 823 l 621 800 q 723 713 697 791 q 734 641 734 678 q 722 554 734 610 l 717 532 q 714 517 717 529 q 703 501 709 501 q 695 505 699 501 q 681 543 686 515 q 673 569 677 558 q 656 581 669 581 q 628 574 650 580 q 614 573 622 573 l 425 588 l 422 561 q 642 432 565 547 q 706 247 706 338 q 699 186 706 217 q 690 94 690 142 l 690 87 q 689 55 689 70 q 687 24 688 39 q 669 -16 684 -16 q 640 13 657 -16 q 609 46 622 46 q 589 28 600 46 q 578 -24 578 3 l 578 -38 l 576 -63 q 565 -120 572 -120 q 562 -117 564 -120 q 560 -114 562 -116 q 556 -106 559 -113 q 551 -94 554 -100 q 519 -37 540 -61 q 488 -20 505 -20 q 465 -34 476 -20 q 451 -54 458 -43 q 391 -120 430 -88 q 354 -156 372 -136 q 321 -205 336 -176 l 313 -220 z "},"6":{"ha":703,"x_min":34,"x_max":601,"o":"m 307 -182 q 300 -160 302 -174 q 298 -133 298 -146 q 294 -94 298 -119 q 270 -50 288 -52 q 257 -79 257 -50 q 259 -109 257 -95 l 260 -131 q 259 -139 260 -139 q 253 -130 258 -139 q 241 -113 248 -121 q 213 -76 222 -90 q 192 -34 204 -62 q 169 6 180 -6 q 134 36 159 18 q 119 42 125 42 q 106 20 106 42 q 108 7 106 14 q 125 -36 115 -18 q 140 -66 134 -51 q 142 -76 142 -73 q 140 -80 142 -80 q 125 -70 135 -80 q 48 74 53 7 l 48 119 q 41 211 48 155 q 34 296 34 258 q 55 457 34 376 q 119 621 77 544 q 193 722 151 678 q 387 816 280 816 q 433 811 410 816 q 525 714 510 792 q 535 608 535 666 l 534 587 q 526 570 533 570 q 502 585 518 570 q 478 602 488 599 q 454 595 467 602 q 412 587 435 587 q 390 589 401 587 l 387 589 q 329 531 363 589 q 382 536 357 536 q 456 525 423 536 q 599 342 584 477 q 601 307 601 330 q 551 132 601 220 q 546 123 549 127 q 531 99 536 109 q 522 78 526 89 q 513 46 518 66 l 503 12 q 470 -120 485 -54 l 469 -123 q 466 -139 468 -129 q 460 -158 463 -149 q 453 -167 456 -167 q 443 -107 444 -167 q 438 -39 442 -72 q 418 1 433 -6 q 414 2 416 2 q 395 -3 406 2 q 364 -33 376 -13 q 317 -156 348 -63 q 310 -178 311 -176 q 307 -182 309 -180 m 291 205 q 330 218 313 205 q 357 248 347 230 q 375 305 375 278 l 374 312 l 262 261 q 286 205 267 218 l 291 205 z "},"7":{"ha":749,"x_min":34,"x_max":648,"o":"m 202 -297 q 176 -271 195 -295 q 132 -196 143 -229 q 122 -135 122 -167 q 165 56 122 -45 q 300 328 209 159 q 389 501 363 448 q 422 599 422 570 q 422 604 422 602 q 418 606 422 606 q 184 559 395 606 q 157 557 170 557 q 119 564 138 557 q 109 566 113 566 q 92 558 98 566 q 81 540 85 551 q 66 473 66 507 q 82 406 66 438 q 91 385 91 388 q 90 383 91 383 q 73 400 87 383 q 41 468 49 429 q 34 545 34 506 q 35 596 34 572 q 43 670 37 629 q 134 780 60 762 q 388 814 286 814 q 566 772 506 814 q 642 655 626 731 q 648 606 648 630 q 634 516 648 560 q 603 429 621 472 q 588 358 591 399 q 583 274 584 317 q 574 171 581 216 q 567 132 572 159 q 554 80 561 105 q 540 45 547 54 q 538 63 538 52 q 540 97 538 79 l 541 119 q 539 152 541 131 q 534 193 538 174 q 519 222 530 213 q 513 224 515 224 q 481 187 498 224 l 478 181 q 366 -50 418 68 q 352 -74 359 -64 q 332 -94 344 -83 q 310 -134 316 -110 q 300 -181 303 -158 l 298 -197 q 274 -254 291 -254 q 268 -252 271 -254 q 241 -188 256 -243 q 235 -166 237 -174 q 224 -143 232 -159 q 186 -100 203 -100 q 163 -130 172 -104 q 155 -165 156 -150 q 166 -220 155 -194 q 189 -268 178 -247 q 202 -297 201 -288 z "},"8":{"ha":734,"x_min":34,"x_max":632,"o":"m 343 194 q 386 202 376 194 q 387 205 387 203 q 302 294 387 222 l 301 294 q 261 227 261 247 q 264 216 261 220 q 336 194 288 195 l 343 194 m 234 -307 q 224 -282 231 -307 q 217 -254 217 -256 q 211 -182 211 -218 q 216 -90 211 -136 q 218 -75 216 -81 q 218 -51 218 -64 q 202 -7 218 -16 q 183 3 194 -2 q 148 21 176 5 q 132 26 138 26 q 116 20 122 26 q 104 7 109 14 q 92 -5 96 -5 q 83 7 87 -5 q 71 59 75 33 l 70 65 q 45 152 62 99 q 34 219 34 186 q 132 442 34 328 q 71 600 71 522 q 89 682 71 644 q 176 779 118 743 q 341 825 254 825 l 368 823 q 538 767 466 815 q 610 686 587 732 q 632 581 632 640 q 617 472 632 528 q 604 392 609 432 q 596 375 602 375 q 582 385 591 375 q 572 394 577 389 q 557 399 567 398 q 524 383 544 399 l 562 328 q 607 184 607 260 q 601 123 607 164 q 595 77 597 102 q 590 26 595 67 q 576 -24 584 -24 q 572 -20 574 -24 q 555 16 562 5 q 535 26 548 26 q 517 18 526 26 q 513 16 515 18 q 490 -19 496 3 q 481 -62 484 -41 q 481 -70 481 -66 q 470 -128 476 -104 q 453 -184 464 -152 l 446 -205 q 431 -231 435 -231 q 426 -205 426 -231 q 427 -175 426 -191 q 429 -146 429 -159 q 421 -91 429 -120 q 393 -43 413 -62 q 364 -32 379 -32 q 295 -79 331 -32 q 273 -113 281 -98 q 239 -227 245 -167 q 236 -285 236 -250 q 234 -307 236 -307 m 358 538 q 399 586 387 566 q 341 599 375 597 q 303 591 321 599 q 358 538 315 570 z "},"9":{"ha":720,"x_min":34,"x_max":618,"o":"m 253 -234 q 233 -216 242 -227 q 216 -191 220 -199 q 190 -132 197 -159 q 180 -77 183 -105 q 169 -15 177 -49 q 160 8 165 0 q 149 28 156 16 l 146 31 q 127 94 127 62 q 157 170 127 134 q 241 208 189 208 q 262 205 252 208 l 265 205 q 323 263 288 205 q 268 258 294 258 q 112 321 175 258 q 93 331 100 331 q 77 315 81 331 q 73 284 73 298 q 79 242 73 264 q 83 214 82 229 q 81 201 83 201 q 67 222 78 201 q 34 363 34 296 q 44 475 34 414 q 63 571 50 525 q 101 662 75 618 q 164 740 126 705 q 250 795 201 774 q 356 816 298 816 q 409 811 382 816 q 427 807 418 810 q 570 696 524 776 q 618 498 618 614 q 597 337 618 418 q 544 195 578 263 q 526 102 527 152 q 509 -7 525 56 q 495 -79 496 -51 l 492 -105 q 484 -124 490 -124 q 470 -95 477 -124 q 464 -62 464 -70 l 463 -15 q 439 47 460 47 q 432 45 435 47 q 416 33 428 43 l 405 24 q 377 -14 386 9 q 365 -62 369 -37 q 347 -124 358 -98 q 323 -159 331 -159 q 313 -119 315 -159 l 313 -112 q 292 -45 313 -76 q 273 -34 281 -34 q 239 -75 254 -34 q 227 -134 227 -106 q 248 -218 227 -172 q 253 -234 251 -225 m 277 482 l 390 533 q 366 589 385 576 l 361 589 q 323 576 340 589 q 294 546 306 564 q 277 489 277 515 l 277 482 z "},"\u0000":{"ha":136,"x_min":0,"x_max":0,"o":""}," ":{"ha":684,"x_min":0,"x_max":0,"o":""},"!":{"ha":429,"x_min":34,"x_max":327,"o":"m 100 -51 q 86 -40 91 -51 q 78 -16 81 -29 l 75 -7 q 63 79 63 37 q 66 195 64 137 q 92 962 79 578 q 131 1045 95 1015 q 212 1075 167 1075 q 294 1039 260 1075 q 327 958 327 1004 l 298 90 q 262 8 296 40 q 182 -24 228 -24 q 158 -22 169 -24 l 149 -21 q 137 -25 142 -21 q 120 -40 132 -28 q 100 -51 108 -51 m 124 -518 q 74 -434 100 -497 q 52 -370 56 -393 q 49 -308 49 -347 q 47 -285 49 -293 q 41 -263 45 -277 q 34 -229 34 -245 q 54 -167 34 -197 q 108 -109 74 -131 q 171 -89 137 -89 q 193 -91 181 -89 q 290 -181 261 -104 q 309 -239 301 -210 q 320 -306 320 -280 q 311 -374 320 -337 q 299 -393 307 -393 q 275 -370 289 -393 q 260 -355 267 -355 q 245 -369 253 -355 q 220 -401 236 -382 q 170 -443 187 -443 q 160 -425 160 -443 q 162 -403 160 -415 q 163 -380 163 -391 q 160 -361 163 -369 q 144 -353 156 -353 l 142 -353 q 106 -414 106 -359 q 110 -457 106 -439 q 120 -494 114 -475 q 123 -505 121 -499 q 124 -518 124 -511 z "},"\"":{"ha":594,"x_min":34,"x_max":492,"o":"m 82 618 q 75 629 79 618 q 55 676 66 646 q 34 799 34 732 q 36 850 34 823 q 54 936 41 891 l 62 968 q 106 1028 73 1008 q 158 1042 130 1042 q 181 1040 170 1042 q 241 995 222 1029 q 256 943 256 971 q 253 921 256 932 l 233 839 q 210 789 224 812 q 197 766 203 778 q 175 729 189 751 q 142 697 156 701 q 134 704 136 697 q 130 721 132 710 q 124 743 128 731 q 104 758 119 756 q 91 749 96 758 q 83 730 85 741 q 79 713 80 720 l 78 691 q 80 657 78 673 q 84 625 83 642 q 82 618 84 618 m 296 614 q 295 615 295 614 q 303 635 295 620 l 307 643 q 335 707 335 687 q 329 716 335 716 q 317 711 324 716 q 302 705 307 705 q 282 743 288 705 q 275 853 275 806 q 276 878 275 869 l 298 968 q 343 1028 309 1008 q 394 1042 367 1042 q 417 1040 406 1042 q 478 995 458 1029 q 492 945 492 971 q 489 921 492 933 l 468 836 q 434 777 457 802 q 407 739 420 760 q 359 674 385 707 q 304 618 334 642 q 296 614 298 614 z "},"#":{"ha":1078,"x_min":34,"x_max":976,"o":"m 284 -208 q 292 -185 286 -197 q 321 -77 321 -123 q 300 7 321 -36 q 260 46 281 46 q 252 44 256 46 q 231 26 240 37 q 201 -23 212 4 q 180 -78 189 -50 q 171 -102 173 -102 q 170 -98 170 -102 l 171 -89 q 203 67 179 -7 q 243 271 233 174 l 244 275 q 211 273 221 275 q 195 266 201 272 q 178 245 189 259 q 142 216 155 216 q 129 223 135 216 q 118 238 123 229 q 106 253 113 246 q 92 260 100 260 q 74 246 79 259 q 66 218 68 233 q 61 197 64 205 q 52 189 58 189 l 50 189 q 42 207 45 191 q 36 240 39 222 q 34 262 34 257 q 48 340 35 299 q 81 412 62 380 q 160 457 107 456 q 266 459 212 458 l 279 570 l 186 571 q 122 598 149 571 q 95 663 95 625 q 122 728 95 701 q 186 755 149 755 l 302 754 l 317 884 q 349 943 323 920 q 409 966 374 966 q 479 934 453 963 q 501 873 501 908 q 488 752 500 863 l 576 751 l 592 884 q 623 943 597 920 q 684 966 649 966 q 753 934 728 963 q 777 873 777 907 q 762 750 776 863 l 892 749 q 957 717 938 746 q 976 650 976 688 q 966 588 976 618 q 950 544 960 566 l 939 513 q 930 498 936 505 q 918 492 924 492 q 907 497 913 492 q 899 511 901 503 q 896 529 897 519 q 890 553 895 543 q 870 565 886 564 q 817 566 844 566 l 740 566 l 728 467 l 768 467 q 852 469 811 469 q 913 455 886 467 l 926 450 q 974 378 974 435 q 961 311 974 359 l 956 287 q 922 200 945 239 q 869 122 899 160 q 846 102 853 102 q 840 113 841 102 q 851 152 840 125 q 873 237 873 208 q 859 270 873 259 q 849 273 854 273 q 837 270 843 273 q 825 260 831 266 q 810 251 818 255 q 793 246 802 246 q 773 253 784 246 q 755 267 762 260 q 740 278 748 273 q 715 282 732 282 l 705 282 l 701 245 q 695 184 696 214 q 700 134 695 161 q 705 82 705 107 q 695 6 704 45 q 664 -92 673 -92 q 659 -81 661 -92 q 656 -56 656 -69 l 657 -47 q 658 -18 658 -34 q 637 42 658 38 q 595 -2 622 42 q 571 -33 589 -12 q 520 -76 535 -76 l 520 -75 q 528 -44 520 -66 q 540 10 540 -13 q 534 43 540 27 q 516 78 528 58 q 502 125 502 100 q 519 279 503 138 l 430 277 l 411 117 q 398 77 407 95 q 374 -22 382 43 q 362 -83 370 -52 q 332 -149 354 -113 q 287 -205 313 -181 l 284 -208 m 452 462 l 541 463 l 554 568 l 465 568 l 452 462 z "},"$":{"ha":844,"x_min":34,"x_max":743,"o":"m 482 -196 q 477 -170 477 -196 q 482 -108 478 -138 q 486 -49 486 -79 q 473 24 486 -13 q 461 44 469 36 q 440 52 454 52 l 405 53 l 367 -114 q 338 -158 360 -142 q 290 -175 317 -175 q 273 -173 281 -175 q 228 -144 245 -165 q 212 -97 212 -123 q 214 -79 212 -88 l 250 81 q 207 101 225 90 q 168 126 188 112 q 148 142 153 139 q 137 145 143 145 q 114 132 127 145 q 69 48 84 98 q 47 -47 54 -2 q 41 -68 43 -68 q 35 -20 37 -68 q 34 31 34 18 q 51 163 38 100 q 66 275 66 232 q 64 309 66 291 q 62 344 62 327 q 77 440 62 393 q 120 502 88 479 q 189 525 151 525 q 222 520 205 525 q 284 477 262 509 q 307 408 307 446 q 302 374 307 391 q 297 342 297 355 q 305 319 297 328 l 351 514 q 293 570 317 544 q 212 671 241 625 q 156 852 156 762 q 164 926 156 888 q 194 988 173 963 q 204 995 200 995 q 218 958 214 995 q 218 951 218 954 q 242 892 224 915 q 290 850 260 869 q 303 844 299 844 q 307 846 307 844 q 298 869 307 857 q 276 905 284 890 q 271 928 271 916 q 287 979 271 949 q 319 1009 303 1009 q 330 1005 324 1009 q 366 977 359 977 q 354 992 361 982 q 338 1010 346 1002 q 324 1020 330 1018 l 319 1021 q 296 1005 307 1021 q 277 972 285 990 q 267 945 269 955 l 264 940 q 263 942 263 940 q 265 964 263 949 l 266 970 q 295 1056 273 1007 q 351 1120 316 1104 q 441 1133 390 1133 q 492 1129 471 1133 l 538 1328 q 567 1373 545 1356 q 616 1390 589 1390 q 633 1388 624 1390 q 677 1359 661 1380 q 694 1310 694 1337 q 692 1293 694 1302 l 637 1054 q 699 920 688 1002 q 701 893 701 907 l 700 876 q 663 796 696 828 q 583 764 629 764 q 570 765 571 764 l 545 656 q 720 444 681 543 q 743 340 743 387 q 734 296 743 317 q 731 262 731 288 q 725 184 731 216 q 713 127 720 158 q 712 125 712 127 q 706 89 708 109 q 685 3 703 50 l 665 -51 q 640 -98 645 -98 q 638 -94 638 -98 q 642 -68 638 -87 q 658 41 658 3 q 654 76 658 59 l 653 87 q 656 104 653 96 q 664 121 660 113 q 675 154 673 136 q 677 163 676 159 q 678 171 678 167 q 677 178 678 174 q 683 219 677 189 q 688 256 688 243 q 685 266 688 265 q 671 245 681 266 q 635 191 654 208 q 562 170 612 172 q 526 189 536 170 q 514 205 517 205 q 513 201 513 205 l 515 182 q 527 158 519 165 q 543 148 535 151 q 554 141 550 144 q 559 131 559 138 q 551 109 559 123 q 528 49 531 71 q 526 1 526 31 q 523 -52 525 -25 l 522 -62 q 513 -110 521 -83 l 492 -176 q 482 -196 486 -196 m 462 299 l 468 301 q 501 323 490 311 q 506 334 506 328 q 482 387 506 354 l 462 299 m 415 793 l 439 898 q 432 897 436 897 q 408 889 416 895 l 408 889 q 392 854 392 880 q 415 793 392 826 z "},"%":{"ha":1173,"x_min":34,"x_max":1072,"o":"m 205 -3 q 169 6 186 -3 q 138 36 149 17 q 127 76 127 55 q 136 113 127 94 l 734 1257 q 764 1289 745 1278 q 804 1299 783 1299 q 840 1291 822 1299 q 871 1261 860 1280 q 882 1221 882 1242 q 873 1185 882 1203 l 711 876 q 694 807 694 838 q 671 719 693 770 q 654 675 662 699 q 635 631 644 631 q 623 668 627 631 q 617 687 621 687 q 604 664 613 687 q 581 623 594 640 q 564 594 573 610 l 438 353 q 411 243 416 303 q 405 203 408 222 q 379 56 380 84 q 376 24 378 33 q 367 50 370 32 q 361 91 363 68 q 356 132 359 114 q 345 151 353 151 q 329 137 338 151 q 283 57 304 100 l 275 39 q 245 8 264 19 q 205 -3 226 -3 m 857 -245 q 855 -243 856 -245 q 854 -238 854 -241 q 855 -225 854 -232 q 863 -196 857 -218 q 873 -136 873 -155 q 859 -78 873 -109 q 798 -24 836 -26 q 686 14 736 -24 q 666 24 675 24 q 644 3 654 24 q 621 -136 623 -42 q 618 -147 620 -147 q 612 -127 616 -147 q 602 -24 604 -90 q 601 136 601 18 q 599 216 601 176 l 598 242 q 634 374 598 322 q 758 436 681 436 q 825 424 791 436 q 985 292 927 385 q 1032 211 1013 250 q 1062 123 1051 173 q 1072 34 1072 78 q 1067 0 1072 12 q 1064 12 1065 4 q 1060 28 1062 20 q 1055 51 1057 43 q 1047 75 1053 60 q 1033 104 1042 91 q 1015 118 1025 118 q 1000 106 1008 118 l 995 96 q 979 69 987 80 q 957 43 972 58 q 936 18 942 28 q 928 -15 930 7 q 925 -64 925 -42 l 925 -67 q 891 -197 925 -129 q 863 -241 876 -227 q 857 -245 859 -245 m 801 134 q 817 136 809 134 q 846 154 833 141 q 858 184 858 166 q 854 203 858 193 q 821 247 842 228 q 774 275 799 267 q 760 279 765 279 q 754 247 754 269 q 760 189 754 225 q 793 134 771 138 l 801 134 m 126 656 q 125 658 125 656 q 137 691 125 666 q 149 718 148 716 q 165 791 165 756 q 142 893 165 836 q 94 954 117 954 q 81 946 87 954 q 71 932 75 939 q 71 930 71 930 q 56 848 56 888 l 56 842 q 52 796 55 796 q 39 865 48 796 q 34 939 34 897 q 36 1008 34 974 q 43 1120 36 1069 q 65 1196 48 1161 q 102 1244 80 1223 q 193 1301 141 1284 q 257 1312 224 1312 q 399 1249 341 1312 q 454 1126 439 1206 q 461 1046 461 1086 q 427 917 461 970 q 401 866 409 890 q 389 815 394 842 q 338 707 376 753 q 320 693 327 693 q 311 714 311 693 q 315 746 311 729 q 319 779 319 764 q 307 824 319 798 q 289 847 299 841 q 256 857 279 854 q 230 841 237 857 q 218 809 222 826 l 217 805 q 184 730 204 762 q 136 665 164 699 q 126 656 128 656 m 299 1009 q 304 1042 304 1019 q 298 1099 304 1064 q 267 1153 288 1149 l 257 1154 q 214 1135 235 1154 q 201 1103 201 1122 q 205 1085 201 1095 q 238 1041 216 1060 q 285 1013 260 1021 q 299 1009 294 1009 z "},"&":{"ha":856,"x_min":34,"x_max":754,"o":"m 204 -408 q 191 -387 201 -408 q 165 -274 165 -334 q 182 -184 165 -225 q 202 -140 191 -161 q 234 -49 232 -87 q 235 54 235 -33 q 204 69 219 61 q 144 112 176 85 q 125 121 134 121 q 105 105 113 121 q 94 73 98 89 q 83 28 87 52 q 79 20 81 20 q 70 57 75 20 l 69 60 l 65 113 q 43 281 62 195 q 34 355 34 318 q 79 509 34 441 q 190 598 117 565 q 151 743 151 668 q 163 823 151 785 q 292 960 196 928 l 294 1193 q 323 1258 296 1232 q 392 1284 351 1284 q 461 1257 433 1284 q 490 1193 490 1230 l 488 962 q 623 899 568 941 q 695 807 675 861 q 702 784 699 795 q 715 746 706 766 q 740 683 731 711 q 754 591 751 649 q 739 503 754 545 q 734 493 736 493 q 731 525 731 493 l 731 534 q 692 641 731 608 q 673 648 682 648 q 657 643 665 648 q 643 630 650 637 l 633 621 q 563 593 602 593 q 489 625 522 593 q 465 684 465 652 q 499 754 465 723 l 500 755 q 507 749 503 755 l 509 747 l 509 749 l 501 755 q 405 792 467 781 l 389 791 q 367 793 378 791 q 361 790 363 792 q 346 743 346 774 q 389 653 346 692 q 447 624 412 635 q 498 590 479 614 q 517 536 517 566 q 513 509 517 523 q 476 461 503 479 q 418 443 450 443 q 368 446 382 446 q 264 423 297 446 q 229 368 232 400 l 229 357 q 248 288 229 323 q 302 229 268 248 q 338 220 318 220 q 412 251 370 220 q 500 355 454 281 q 537 390 514 378 q 585 401 559 401 q 633 389 610 401 q 670 354 657 376 q 682 309 682 333 q 669 263 682 286 q 609 179 642 219 q 592 114 592 157 q 593 91 592 102 q 593 69 593 79 q 593 48 593 59 q 584 -73 593 -37 q 582 -77 583 -77 q 577 -66 579 -77 l 576 -64 l 571 -39 q 563 -5 568 -22 q 544 43 557 16 q 506 76 530 70 l 503 77 q 473 65 492 77 q 431 47 460 58 l 429 -189 q 400 -254 428 -228 q 331 -280 372 -280 q 256 -245 286 -279 q 235 -233 246 -233 q 220 -241 228 -233 q 193 -321 193 -267 q 203 -399 195 -361 l 205 -406 l 204 -408 z "},"'":{"ha":363,"x_min":34,"x_max":261,"o":"m 39 545 q 34 556 35 545 q 40 586 34 567 q 53 622 46 604 q 65 648 60 640 q 83 690 77 671 q 90 728 90 709 q 64 798 90 760 q 43 858 43 829 q 45 878 43 867 l 67 968 q 112 1028 79 1008 q 163 1042 136 1042 q 186 1040 174 1042 q 247 995 227 1029 q 261 945 261 971 q 258 921 261 933 l 237 836 q 212 790 230 812 q 180 736 201 775 q 161 701 171 718 q 114 639 146 675 q 76 591 94 616 q 60 566 71 581 q 39 545 45 545 z "},"(":{"ha":489,"x_min":34,"x_max":387,"o":"m 224 -134 q 208 -123 218 -134 q 169 -66 190 -102 q 137 14 146 -26 q 126 76 131 42 q 117 132 122 110 q 102 175 112 152 q 86 192 94 192 q 72 179 80 192 q 62 149 64 166 q 59 115 59 132 q 61 78 59 93 l 62 67 q 60 64 62 64 q 59 65 60 64 q 57 68 58 66 q 56 71 56 69 q 39 127 45 94 q 34 188 34 160 q 49 288 36 239 l 56 319 q 60 359 60 340 q 57 407 60 383 q 50 560 51 462 q 74 849 50 704 q 148 1105 98 994 q 273 1263 197 1216 q 315 1274 294 1274 q 352 1263 335 1274 q 387 1158 387 1242 q 385 1101 387 1129 q 383 1076 384 1088 q 375 1002 382 1064 q 365 935 367 940 l 364 935 q 361 946 362 935 q 359 977 360 957 q 355 1051 359 1013 q 337 1102 351 1090 q 332 1103 334 1103 q 280 1031 311 1103 q 220 779 237 929 q 207 557 207 661 q 226 323 208 427 q 269 186 241 234 q 271 179 271 182 l 270 173 l 273 172 q 327 150 304 172 q 351 95 350 128 q 329 39 351 62 q 273 16 306 16 q 245 18 260 16 l 232 20 q 208 -22 208 20 q 211 -52 208 -39 q 218 -74 213 -60 q 227 -101 222 -87 q 231 -124 231 -115 q 224 -134 230 -134 z "},")":{"ha":499,"x_min":34,"x_max":397,"o":"m 269 -109 q 268 -100 268 -106 q 267 -48 267 -94 q 263 4 267 -24 q 239 45 258 32 q 231 47 235 47 q 209 37 222 47 q 134 16 176 16 q 79 39 102 16 q 57 94 57 62 q 81 150 58 128 q 136 172 103 172 q 138 173 138 172 q 137 175 138 174 q 135 178 136 176 q 134 182 134 180 l 135 186 q 193 382 171 249 q 218 691 216 524 q 213 899 218 802 q 150 1239 199 1120 q 129 1259 140 1259 q 115 1253 123 1259 q 47 1088 78 1219 q 39 1066 42 1066 q 34 1113 34 1066 l 35 1155 q 45 1295 41 1255 q 48 1352 48 1325 l 48 1360 q 62 1428 48 1396 q 92 1456 73 1446 q 130 1466 110 1466 q 170 1455 151 1466 q 287 1297 241 1410 q 354 1032 333 1185 q 376 720 376 879 q 371 572 376 645 q 368 511 369 542 q 372 454 368 481 q 384 397 376 428 q 397 275 397 336 q 378 184 397 184 q 357 210 367 184 q 355 216 356 212 q 351 234 353 224 q 344 251 348 243 q 337 259 340 259 l 334 258 q 318 215 328 251 q 304 93 307 171 q 296 4 300 41 q 269 -109 283 -89 z "},"*":{"ha":755,"x_min":34,"x_max":654,"o":"m 516 458 q 511 473 513 458 q 509 504 509 488 q 516 592 509 548 l 517 597 q 523 667 523 630 q 501 751 523 723 q 474 768 491 765 q 453 752 461 768 q 437 716 444 736 q 424 683 431 697 q 407 669 416 669 q 389 694 395 671 q 381 740 384 718 q 365 798 377 770 q 343 833 356 819 q 298 815 324 829 q 252 790 272 802 q 213 762 232 779 q 180 725 193 746 q 168 680 168 704 q 170 659 168 671 q 176 621 176 635 q 165 604 176 604 q 119 650 146 606 q 98 696 105 673 q 87 721 94 709 q 69 743 81 733 q 43 773 52 755 q 34 808 34 790 q 45 848 34 829 q 77 878 56 867 l 170 926 l 77 972 q 45 1002 56 983 q 34 1042 34 1021 q 43 1079 34 1061 q 73 1111 54 1099 q 113 1122 92 1122 q 149 1114 131 1122 l 264 1055 l 264 1160 q 288 1217 264 1194 q 344 1240 311 1240 q 399 1217 376 1240 q 422 1160 422 1194 l 422 1055 l 538 1114 q 574 1122 556 1122 q 615 1111 596 1122 q 645 1079 634 1099 q 654 1043 654 1061 q 642 1002 654 1021 q 610 972 631 983 l 518 926 l 610 878 q 654 809 654 851 q 640 762 654 787 q 603 692 616 723 q 540 538 553 581 q 528 490 534 519 q 516 458 521 458 z "},"+":{"ha":789,"x_min":34,"x_max":688,"o":"m 383 -60 q 381 -58 382 -60 q 379 -53 380 -55 q 353 32 368 -33 q 340 98 345 64 q 316 206 329 182 q 303 222 312 214 q 278 284 278 248 l 281 395 q 155 395 160 395 q 144 396 149 396 q 113 383 128 396 q 83 338 93 365 q 73 285 73 312 q 75 262 73 273 q 92 203 81 229 q 104 170 98 187 q 81 194 94 174 l 77 199 q 34 331 34 260 l 34 336 q 80 511 40 429 q 114 558 93 541 q 168 576 134 575 l 286 576 l 290 688 q 318 751 292 726 q 380 777 345 777 q 447 748 420 776 q 471 686 471 722 l 469 577 l 597 577 q 661 551 635 577 q 688 486 688 524 q 681 452 686 465 q 675 415 675 439 q 677 382 676 395 q 677 358 677 369 q 663 288 677 330 q 657 269 661 277 q 635 237 647 237 q 629 240 633 237 q 620 279 620 251 q 621 298 620 288 q 621 316 621 308 q 619 333 621 326 q 610 340 616 340 q 596 337 602 339 q 585 336 591 336 q 536 362 572 336 q 475 395 494 391 l 463 395 l 460 282 q 431 216 454 243 q 411 181 420 199 q 382 37 382 120 q 383 -3 382 16 q 386 -46 386 -31 q 383 -60 386 -56 z "},",":{"ha":320,"x_min":34,"x_max":218,"o":"m 188 -136 q 164 -94 174 -136 q 156 -66 161 -78 q 141 -55 151 -55 q 134 -56 138 -55 q 113 -62 121 -60 q 93 -64 105 -64 l 86 -64 q 48 -46 63 -62 q 34 -9 34 -31 q 50 29 35 14 q 86 45 65 44 q 91 83 91 58 l 90 104 q 106 141 90 125 q 145 158 121 157 q 182 143 166 158 q 199 106 198 129 q 201 80 200 89 q 207 54 201 72 q 218 -18 218 14 q 201 -120 218 -68 q 188 -136 196 -136 z "},"-":{"ha":802,"x_min":34,"x_max":700,"o":"m 163 162 l 161 162 q 142 172 153 162 q 102 245 117 195 q 89 304 92 277 q 77 369 83 345 q 54 427 71 399 q 38 457 41 448 q 34 484 35 466 q 54 538 34 515 q 102 561 74 561 l 648 559 q 672 549 663 558 q 686 526 680 540 q 700 433 700 486 q 682 294 700 359 l 672 258 q 652 203 659 210 l 651 205 q 661 255 651 214 l 663 265 q 671 334 671 298 q 660 387 671 362 q 645 402 654 399 q 624 406 636 406 l 610 406 q 588 401 599 405 q 576 379 576 393 q 591 327 576 363 q 604 288 604 302 q 598 277 604 281 q 594 277 597 277 q 572 287 586 277 q 526 328 551 302 l 513 342 q 484 370 499 357 q 392 405 446 405 q 313 357 347 405 l 307 351 q 274 328 289 328 q 242 362 256 328 l 239 370 q 227 395 234 384 q 206 406 220 406 q 178 393 189 406 q 142 321 154 367 q 134 260 134 288 l 134 248 q 155 174 134 208 l 163 162 z "},".":{"ha":321,"x_min":34,"x_max":219,"o":"m 123 6 q 60 31 83 6 q 34 90 34 54 l 35 104 q 73 172 39 136 q 127 195 96 195 q 183 174 158 195 q 218 110 216 142 l 219 100 q 170 19 219 49 q 123 6 146 6 z "},"/":{"ha":899,"x_min":34,"x_max":797,"o":"m 155 -326 q 125 -278 138 -303 l 95 -217 q 41 -45 54 -134 q 34 22 34 -12 q 45 71 34 53 l 627 1036 q 661 1067 640 1057 q 707 1078 683 1078 q 749 1069 728 1078 q 784 1040 772 1059 q 797 1000 797 1021 q 787 964 797 982 l 707 831 q 550 571 633 711 q 541 532 541 553 q 545 491 541 512 l 547 475 q 553 367 553 422 l 553 323 q 547 298 553 298 q 524 329 536 298 l 519 344 q 471 428 494 427 q 458 418 465 428 q 433 378 454 413 q 406 328 412 342 q 385 218 394 301 l 378 172 q 324 -12 362 77 q 317 -25 319 -25 q 315 -18 315 -25 q 316 -4 315 -12 q 317 9 317 4 q 319 20 318 14 q 324 90 324 53 q 313 143 324 130 q 306 146 309 146 q 269 104 292 146 q 243 62 264 96 l 205 -1 q 185 -24 196 -16 q 159 -39 175 -32 l 158 -39 q 116 -127 116 -63 l 117 -143 q 144 -276 124 -214 l 153 -310 q 155 -315 154 -313 q 156 -320 156 -317 l 155 -326 z "},":":{"ha":322,"x_min":34,"x_max":220,"o":"m 146 384 l 144 384 q 94 443 124 389 l 88 452 q 72 488 79 469 q 54 527 65 507 q 39 554 44 543 q 34 581 34 566 l 35 597 q 73 664 39 629 q 127 688 96 687 q 183 666 158 688 q 218 602 216 634 l 219 593 q 211 555 219 571 q 192 526 202 539 q 174 497 182 512 q 166 461 166 481 l 167 429 q 163 398 167 413 q 146 384 160 384 m 176 -83 q 173 -78 174 -83 q 171 -66 172 -73 q 170 -53 170 -59 l 172 -26 q 173 13 173 -7 q 155 90 173 61 q 140 103 148 100 q 121 108 132 106 l 109 109 q 62 132 81 113 l 60 133 q 34 193 34 157 l 35 207 q 73 274 39 239 q 127 298 96 297 q 183 275 158 298 q 215 225 209 250 q 220 169 220 200 l 220 151 q 185 -66 220 45 q 176 -83 180 -83 z "},";":{"ha":343,"x_min":34,"x_max":241,"o":"m 145 498 q 82 524 106 498 q 56 583 56 547 l 58 597 q 95 664 62 629 q 150 688 119 687 q 205 666 180 688 q 241 602 238 634 l 241 592 q 192 511 241 541 q 145 498 169 498 m 188 -16 q 164 26 174 -16 q 156 53 161 41 q 141 64 151 64 q 134 63 138 64 q 113 57 121 59 q 93 56 105 56 l 86 56 q 48 73 63 57 q 34 111 34 89 q 50 148 35 133 q 86 165 65 163 q 91 202 91 177 l 90 224 q 106 261 90 245 q 145 277 121 277 q 182 263 166 277 q 199 225 198 248 q 201 200 200 208 q 207 173 201 191 q 218 101 218 134 q 201 -1 218 52 q 188 -16 196 -16 z "},"<":{"ha":646,"x_min":34,"x_max":544,"o":"m 517 -183 q 513 -134 513 -162 l 511 -105 q 495 -14 510 -65 q 443 57 481 38 q 423 61 433 61 q 388 41 397 61 q 384 13 384 27 q 394 -37 386 -14 q 402 -75 402 -58 q 397 -90 402 -90 q 372 -73 387 -90 q 310 23 332 -24 q 259 106 282 79 q 222 138 242 127 q 208 142 214 142 q 182 112 191 142 q 180 92 180 101 q 203 29 182 60 q 245 -26 224 -2 l 248 -29 q 251 -37 250 -32 q 184 15 219 -23 q 135 85 149 52 q 125 148 125 115 l 125 168 q 122 215 125 192 q 100 254 118 237 q 83 268 90 263 q 66 281 76 273 q 34 357 34 316 q 65 435 34 400 l 293 667 q 370 700 326 699 q 451 660 425 700 q 478 605 463 640 q 500 547 494 570 l 500 544 q 507 513 507 526 q 505 508 507 509 q 493 516 501 508 q 471 528 479 528 q 460 525 465 528 q 450 514 456 522 l 309 371 l 462 255 q 493 217 484 237 q 507 175 503 197 q 516 145 511 161 q 535 75 529 106 q 543 2 542 45 l 544 -18 q 524 -172 544 -93 q 523 -176 524 -174 q 522 -180 523 -178 q 517 -183 520 -182 z "},"=":{"ha":689,"x_min":34,"x_max":587,"o":"m 442 174 q 440 179 440 174 q 453 237 443 206 q 471 334 471 296 q 460 399 471 363 q 446 430 455 416 q 419 444 437 444 q 382 446 400 445 l 309 445 l 89 446 q 50 469 66 446 q 34 524 34 492 q 50 578 34 555 q 89 601 66 601 l 532 600 q 574 572 561 597 q 587 521 587 548 q 564 451 587 488 q 529 359 541 414 q 508 294 522 327 q 467 215 488 254 l 456 195 q 442 174 445 174 m 240 -69 q 233 -64 238 -69 q 182 3 197 -35 q 165 69 170 35 q 157 109 161 92 q 117 168 144 161 q 104 168 112 168 l 89 168 q 50 191 66 168 q 34 245 34 214 q 50 300 34 277 q 89 323 66 323 l 414 322 q 436 311 431 322 q 441 288 441 300 q 431 219 441 254 q 422 156 422 184 q 431 134 422 134 q 448 148 439 134 q 465 176 457 161 q 481 206 472 191 l 486 214 q 533 283 514 258 q 560 305 551 305 q 585 269 576 305 q 587 249 587 255 q 574 194 587 217 q 532 167 562 171 q 509 151 517 163 q 495 123 500 138 q 484 97 490 109 q 467 80 478 85 q 457 78 463 78 q 422 92 441 78 q 395 120 404 106 q 387 138 390 129 q 374 159 381 150 q 349 168 366 168 q 276 168 321 168 q 222 99 240 168 q 212 29 212 55 q 233 -48 212 -12 q 241 -67 241 -63 q 240 -69 241 -69 z "},">":{"ha":679,"x_min":34,"x_max":577,"o":"m 68 -161 l 65 -157 q 50 -122 57 -146 q 34 -12 34 -64 q 50 127 34 48 l 54 150 q 68 207 58 180 q 104 255 77 233 q 146 275 129 272 q 175 288 161 279 q 206 322 189 296 q 225 346 216 338 q 244 361 233 353 l 257 371 l 183 446 q 157 466 166 466 q 149 460 152 466 q 144 436 144 450 q 155 376 144 416 q 161 340 161 351 q 155 326 161 326 q 139 337 149 326 q 77 463 97 395 q 68 528 68 494 q 80 604 68 567 q 118 669 92 642 q 196 700 155 700 q 273 667 239 699 l 500 435 q 563 342 543 395 q 577 201 577 295 q 569 98 577 134 q 560 76 564 76 q 557 95 557 76 q 546 183 555 130 q 517 265 536 237 q 501 277 510 277 q 488 271 495 277 l 401 205 q 378 178 385 193 q 366 144 371 162 l 342 57 q 311 -5 326 -5 q 297 16 302 -5 q 292 50 294 32 q 269 100 286 100 q 243 85 261 100 l 236 80 q 172 58 207 58 l 149 60 q 130 56 139 60 q 109 41 120 52 q 65 -96 65 -7 q 66 -126 65 -113 q 69 -160 68 -136 l 68 -161 z "},"?":{"ha":699,"x_min":34,"x_max":597,"o":"m 202 -426 l 201 -426 q 195 -412 195 -423 q 212 -345 195 -391 q 221 -294 221 -317 q 193 -237 221 -257 l 183 -229 q 149 -161 149 -203 l 150 -147 q 190 -62 153 -111 q 241 -33 211 -37 l 252 -33 q 298 -48 276 -33 q 349 -111 340 -77 q 354 -141 354 -127 q 348 -174 354 -159 q 334 -205 342 -190 q 319 -239 326 -221 q 295 -300 307 -273 q 260 -358 283 -327 l 253 -368 q 236 -392 246 -379 q 217 -416 227 -406 q 202 -426 208 -426 m 252 75 l 244 75 q 180 97 208 75 q 146 163 151 121 q 140 247 140 200 q 167 348 140 311 q 196 389 182 368 q 245 454 225 433 q 278 505 264 473 q 303 554 289 528 l 307 562 q 361 673 338 616 q 401 838 401 774 q 395 882 401 863 q 319 943 380 943 l 302 941 q 262 926 279 938 q 231 872 231 906 q 233 854 231 864 q 235 835 235 845 q 218 781 235 806 l 218 781 q 199 757 208 766 q 183 737 190 748 q 169 669 169 714 q 174 619 169 644 q 188 576 178 594 q 199 559 192 569 q 213 538 206 549 q 219 518 219 528 q 214 517 216 517 q 206 520 210 517 l 203 522 q 140 587 161 551 q 83 714 113 634 q 54 781 72 747 q 45 798 48 791 q 34 872 34 828 q 54 972 34 927 q 156 1092 87 1048 q 319 1139 231 1139 q 519 1056 438 1139 q 587 930 566 1008 q 597 842 597 891 q 440 400 597 657 q 423 317 427 376 q 411 229 417 252 q 386 158 404 203 l 369 109 q 353 86 359 86 q 347 93 349 86 q 344 121 344 103 q 345 152 344 145 q 347 191 347 169 q 344 218 347 206 q 333 230 341 230 l 328 229 q 322 220 322 226 q 325 210 322 216 q 328 200 327 204 l 329 182 q 326 133 329 160 q 322 92 323 98 q 317 84 321 85 q 305 83 314 83 q 271 78 288 83 q 252 75 262 76 z "},"@":{"ha":1125,"x_min":34,"x_max":1023,"o":"m 534 -178 q 530 -172 532 -178 l 528 -152 q 503 -46 526 -98 q 484 -14 496 -28 q 454 1 473 1 q 358 19 406 5 l 350 20 q 331 11 338 20 q 318 -12 323 1 l 315 -16 q 298 -39 304 -39 q 281 -12 290 -39 q 256 39 269 18 q 230 61 242 61 q 216 52 221 61 q 207 35 210 43 l 205 32 q 185 -46 193 -1 q 177 -126 178 -91 q 174 -151 177 -138 q 150 -12 155 -115 l 148 16 q 139 103 146 55 q 115 178 132 151 q 104 186 109 186 q 99 184 101 186 q 94 179 96 182 q 87 174 91 176 q 82 175 84 174 q 79 177 81 177 q 75 165 76 177 l 74 141 l 75 87 q 74 68 75 75 q 47 211 63 85 q 41 274 42 258 l 38 338 q 34 433 35 387 q 60 586 34 512 q 132 723 85 659 q 279 860 194 808 q 474 916 372 916 q 633 874 555 916 q 777 739 711 833 q 847 524 847 639 q 718 262 847 369 l 717 261 q 568 193 629 193 q 505 214 532 193 q 467 282 475 238 q 351 250 400 250 q 231 312 269 254 q 207 399 207 351 q 257 536 207 468 q 377 631 298 593 q 532 670 459 670 q 602 658 570 670 q 634 632 623 650 q 645 595 645 615 q 641 572 645 583 q 615 540 633 551 q 578 529 598 529 q 554 533 566 529 q 532 536 546 536 q 434 510 488 536 q 367 460 390 488 q 341 406 344 432 l 340 397 q 343 385 340 389 q 354 384 345 384 q 420 408 379 384 q 519 488 461 432 q 566 507 541 507 q 614 487 592 507 q 633 441 633 466 q 628 416 633 428 q 604 345 612 373 l 633 366 q 712 500 705 427 q 713 524 713 512 q 667 663 713 597 q 472 783 583 783 q 349 745 408 781 q 240 644 286 707 q 188 544 207 598 q 168 435 168 490 q 186 333 168 383 q 335 172 228 229 q 488 135 406 135 q 607 157 546 135 q 897 452 774 219 q 922 479 906 469 q 956 488 938 488 q 987 481 972 488 q 1023 418 1023 460 q 1017 369 1023 395 q 1004 286 1010 344 q 939 41 993 136 q 933 35 935 35 q 932 39 932 35 q 933 50 932 43 l 936 62 q 945 149 945 117 q 940 197 945 174 q 920 226 934 226 q 899 213 911 226 l 871 181 q 833 108 849 155 q 807 15 818 61 q 785 -52 790 -52 q 779 -20 781 -52 q 747 73 772 73 l 743 73 q 707 56 735 71 q 640 27 671 37 q 600 9 610 17 q 574 -40 584 -7 q 556 -107 564 -73 q 541 -165 549 -142 q 534 -178 536 -178 z "},"A":{"ha":819,"x_min":0,"x_max":787,"o":"m 568 -232 q 565 -231 566 -232 q 562 -229 564 -231 q 559 -226 561 -227 q 526 -190 542 -212 q 502 -147 511 -168 q 484 -59 484 -100 q 480 -18 483 -40 q 463 26 474 9 q 451 50 456 38 q 446 79 446 62 q 448 103 446 89 l 450 111 q 490 329 477 221 q 408 334 450 331 q 328 339 367 337 q 370 131 341 216 q 383 58 379 102 q 387 -24 387 13 q 382 -113 386 -69 l 379 -175 q 376 -191 378 -191 q 363 -145 372 -191 q 356 -99 356 -103 q 340 -55 347 -55 q 338 -56 340 -55 q 336 -77 336 -63 l 336 -96 q 332 -117 336 -111 q 321 -105 329 -115 q 306 -88 314 -96 l 302 -85 q 281 -75 290 -77 q 262 -86 269 -75 q 252 -110 255 -96 q 249 -133 249 -123 q 259 -187 249 -153 q 262 -199 262 -197 q 260 -201 262 -201 q 254 -196 258 -201 q 235 -172 245 -186 q 204 -102 213 -140 q 193 -37 197 -71 q 184 1 189 -10 q 174 22 180 12 q 119 201 142 74 q 104 304 111 249 q 24 347 56 307 q 0 416 0 380 q 11 465 0 441 q 44 506 22 489 q 96 536 68 524 q 104 621 98 579 q 170 843 119 746 q 319 982 221 940 q 426 1003 372 1003 q 488 996 458 1003 q 647 878 589 970 q 713 696 694 804 q 728 551 725 630 q 783 479 769 528 q 787 452 787 465 q 769 391 787 418 q 720 349 751 363 q 673 73 705 209 q 670 25 670 52 l 670 -33 l 669 -72 q 652 -126 666 -126 q 625 -87 643 -126 q 585 -40 606 -40 q 555 -63 572 -40 q 535 -128 535 -92 q 543 -171 535 -151 q 562 -212 551 -191 q 571 -231 567 -219 l 568 -232 m 501 555 q 490 656 499 610 q 456 755 479 720 q 435 776 445 774 l 426 777 q 421 777 424 777 q 414 775 418 776 q 405 773 410 774 q 328 592 347 746 l 325 566 q 390 562 357 565 q 501 555 446 558 z "},"B":{"ha":708,"x_min":0,"x_max":682,"o":"m 594 -168 q 591 -161 591 -165 q 596 -114 593 -138 q 601 -52 601 -78 q 576 42 601 16 q 563 48 569 48 q 531 15 546 48 q 513 -56 520 -11 q 498 -123 508 -98 l 492 -132 q 484 -108 487 -127 q 470 -60 479 -84 q 414 -9 450 -9 l 397 -12 q 367 -26 376 -15 q 354 -53 359 -38 q 334 -85 345 -85 q 311 -62 325 -85 q 280 -28 300 -43 q 245 -16 262 -16 q 212 -37 227 -16 q 191 -121 193 -68 q 186 -138 191 -138 q 177 -126 184 -138 q 152 -64 161 -98 q 107 29 137 -8 q 83 70 93 45 q 2 479 16 264 q 0 553 0 517 q 50 823 0 730 q 163 963 94 919 q 311 1006 232 1006 q 435 979 376 1006 q 537 903 495 951 q 587 824 569 867 q 605 730 605 780 q 585 632 605 676 q 533 546 569 589 q 556 529 545 538 q 678 326 660 445 q 682 279 682 302 q 665 183 682 231 q 650 71 650 134 q 646 19 648 43 q 628 -77 642 -26 q 594 -168 614 -127 m 324 207 q 442 246 404 207 q 456 283 456 264 q 443 322 454 302 q 416 345 432 343 q 402 334 408 345 q 390 308 396 323 q 377 281 385 294 q 361 269 370 269 q 352 272 357 269 q 329 311 338 282 q 310 350 321 331 q 279 375 299 368 l 273 376 q 247 369 260 376 l 242 367 q 276 210 254 286 q 324 207 299 207 m 227 602 l 236 606 q 273 625 261 616 q 299 663 285 635 q 319 692 310 685 q 347 703 328 699 q 377 731 377 713 q 358 764 377 748 q 315 780 338 780 l 309 780 q 272 758 285 776 q 250 718 258 739 l 248 712 q 227 602 231 672 z "},"C":{"ha":680,"x_min":0,"x_max":657,"o":"m 490 -146 q 487 -134 487 -141 l 488 -120 q 484 -78 488 -106 q 444 15 471 15 q 422 8 431 15 l 411 3 q 375 -36 387 -9 q 357 -92 363 -62 q 337 -143 344 -143 q 329 -121 334 -143 l 328 -115 q 309 -53 322 -85 q 265 -8 296 -21 q 250 -5 256 -5 q 234 -11 240 -5 q 221 -28 228 -16 q 209 -53 214 -39 q 204 -81 204 -66 q 208 -117 205 -98 l 208 -119 q 205 -122 208 -122 q 189 -113 200 -122 q 169 -79 172 -100 q 165 -48 165 -64 q 163 -18 165 -33 q 143 42 157 18 q 106 91 128 66 q 31 225 56 152 q 0 426 0 319 q 15 584 0 504 q 80 784 36 694 q 192 932 125 875 q 345 998 259 990 l 363 999 q 443 985 405 999 q 538 909 501 962 l 538 909 q 580 772 578 853 q 554 642 580 713 q 483 575 534 593 q 444 551 456 566 q 424 511 433 537 q 402 479 410 479 q 389 495 394 479 q 380 528 384 511 l 378 540 l 373 564 q 366 592 370 579 q 351 627 362 606 q 336 682 336 654 q 343 724 336 703 q 353 770 353 751 q 283 683 317 753 q 237 542 252 620 q 227 432 227 487 q 252 281 227 341 q 306 217 271 236 l 305 217 q 321 213 315 213 q 341 219 330 213 q 422 321 380 239 l 422 321 q 440 361 431 338 q 483 413 454 394 q 545 431 511 431 q 588 422 566 431 q 640 380 622 408 q 657 319 657 353 q 654 291 657 305 q 650 244 650 266 l 652 189 q 639 104 652 155 q 632 75 635 89 q 625 47 629 62 q 617 36 621 39 q 616 39 616 36 q 616 46 616 43 q 615 56 616 49 q 608 123 614 100 q 589 146 602 146 q 579 142 583 146 q 571 132 575 138 l 569 129 q 546 88 553 105 q 534 46 540 71 q 509 -87 515 -31 q 490 -146 507 -119 z "},"D":{"ha":677,"x_min":0,"x_max":644,"o":"m 491 -209 q 488 -203 490 -209 q 482 -173 482 -190 q 486 -142 482 -157 q 496 -78 496 -111 q 482 -18 496 -47 q 450 5 473 3 q 431 -5 437 5 q 414 -53 420 -20 q 396 -104 409 -75 q 371 -136 385 -128 q 370 -125 370 -131 q 370 -114 370 -120 q 371 -100 371 -108 q 363 -64 371 -85 q 329 -28 348 -28 q 307 -49 318 -28 q 292 -75 298 -65 q 278 -84 286 -84 q 248 -57 267 -84 l 244 -51 q 223 -24 234 -36 q 199 -12 212 -12 q 167 -33 184 -12 q 146 -68 154 -49 q 140 -98 140 -84 q 144 -128 140 -113 l 146 -136 q 144 -140 146 -140 q 135 -132 142 -140 q 112 -91 117 -111 q 105 -51 106 -71 q 98 -6 104 -30 q 83 12 92 12 q 62 1 75 12 q 50 -7 54 -7 q 48 -5 49 -7 q 47 3 47 -3 q 46 18 46 8 q 47 60 46 44 q 48 93 48 76 q 43 145 48 117 q 0 534 0 341 q 16 736 0 644 q 64 889 31 828 q 80 911 71 901 q 261 1013 163 1013 q 417 951 340 1013 q 528 820 478 902 q 607 638 577 737 q 644 395 644 516 q 548 89 644 208 q 535 58 538 75 q 531 22 532 40 q 528 -4 530 12 q 504 -134 524 -72 q 496 -155 498 -147 q 492 -181 492 -165 q 491 -209 492 -209 m 278 214 q 412 323 390 214 q 418 401 418 359 q 395 492 418 492 q 362 471 380 492 q 347 458 351 458 q 344 467 344 458 q 357 541 345 501 q 367 575 363 558 q 370 610 370 592 q 351 674 368 640 q 317 731 334 708 q 278 773 300 755 q 270 776 275 776 q 258 771 264 776 q 226 530 226 697 q 232 399 227 464 l 235 352 q 238 312 236 332 q 248 267 240 293 q 259 214 255 241 l 278 214 z "},"E":{"ha":725,"x_min":0,"x_max":695,"o":"m 285 -203 q 269 -178 276 -195 q 261 -163 265 -170 q 238 -123 245 -138 q 228 -95 231 -109 q 221 -58 224 -81 q 218 -36 218 -39 q 211 -7 216 -22 q 194 14 205 7 q 173 20 182 20 q 150 11 162 20 q 131 -14 137 1 q 124 -46 124 -29 q 140 -94 124 -70 q 153 -119 151 -107 q 123 -98 139 -113 q 100 -69 108 -82 q 80 33 80 -31 l 80 54 q 75 99 80 85 q 59 126 69 113 q 36 169 50 140 q 0 342 0 247 l 1 365 q 104 607 5 524 q 76 727 76 667 q 130 894 76 818 q 216 974 165 943 q 328 1010 267 1004 l 345 1010 q 477 972 419 1010 q 580 874 536 934 q 625 741 625 814 q 617 650 625 690 q 610 568 610 610 q 607 545 610 545 q 605 545 606 545 q 601 554 604 545 q 597 575 598 564 q 595 602 596 586 q 593 644 595 623 q 583 677 591 665 q 571 683 578 683 q 551 677 561 683 q 505 667 528 667 q 407 723 446 667 q 345 783 372 783 q 315 764 328 783 q 302 728 302 747 l 304 718 q 331 682 307 700 q 404 652 355 665 q 467 611 444 642 q 490 543 490 581 q 487 515 490 529 q 446 453 477 476 q 377 429 415 429 q 345 433 364 429 l 344 434 q 294 441 317 440 q 249 433 260 441 q 232 400 238 425 q 227 343 227 375 q 262 235 227 266 q 298 218 277 222 l 311 217 q 351 225 330 217 q 419 275 387 239 q 473 371 452 311 q 516 428 487 408 q 580 448 546 448 q 656 418 620 448 q 694 321 691 385 l 695 296 q 686 212 695 251 q 659 130 677 174 q 652 121 654 121 q 650 138 650 121 q 640 182 650 182 q 628 174 635 182 q 614 157 621 166 q 607 147 610 151 q 561 97 583 119 q 508 54 538 75 q 458 -16 474 25 q 422 -72 444 -47 q 416 -75 419 -75 q 411 -62 412 -75 l 408 -47 q 394 -34 404 -37 q 380 -44 386 -34 q 369 -65 374 -54 q 351 -87 360 -87 q 339 -82 345 -87 q 326 -68 333 -76 q 312 -53 319 -60 q 298 -46 305 -46 q 277 -71 288 -46 q 271 -105 271 -90 q 279 -151 271 -124 q 287 -189 287 -170 q 285 -203 287 -196 z "},"F":{"ha":684,"x_min":0,"x_max":658,"o":"m 239 -214 q 224 -193 232 -204 l 218 -183 q 199 -151 203 -164 q 191 -114 194 -137 q 161 -13 182 -61 q 140 21 152 7 q 119 58 126 37 q 73 331 79 197 q 4 406 22 351 q 0 437 0 421 q 22 504 0 473 q 81 545 44 534 q 229 922 118 806 q 418 1010 312 1010 q 461 1006 439 1010 q 578 943 528 992 q 654 774 648 873 q 658 703 658 736 q 649 627 657 665 l 643 592 q 635 559 640 560 q 626 570 630 559 q 620 595 623 581 q 612 622 616 610 q 604 637 608 633 q 594 641 599 641 q 578 637 587 641 q 545 632 563 632 q 466 664 498 632 q 432 743 433 696 q 419 782 431 770 q 416 784 418 784 l 414 783 q 355 706 387 773 q 311 552 326 643 l 321 551 q 418 545 374 545 q 477 552 453 545 q 513 557 496 557 q 607 503 570 557 q 625 446 625 476 q 608 385 625 414 q 574 338 593 361 l 553 310 q 533 281 543 296 q 521 239 522 261 q 514 211 521 211 q 500 225 509 211 q 488 251 490 240 q 484 275 485 262 l 481 291 q 471 315 478 309 q 452 320 464 320 l 418 319 q 315 325 366 319 l 300 326 q 336 123 306 226 q 340 77 340 101 q 338 23 340 50 q 329 -37 336 -3 q 309 -94 322 -71 q 301 -102 304 -102 q 289 -69 294 -102 q 277 -37 285 -48 q 262 -27 270 -27 q 243 -50 252 -27 q 230 -111 237 -68 l 228 -121 q 225 -142 225 -133 q 235 -182 225 -160 q 241 -206 241 -194 q 239 -214 241 -210 z "},"G":{"ha":692,"x_min":0,"x_max":654,"o":"m 458 -147 q 448 -119 454 -147 l 447 -115 q 441 -68 443 -93 q 416 5 435 5 q 394 -8 405 5 q 376 -33 382 -21 q 363 -56 370 -45 q 351 -68 356 -68 q 337 -52 346 -68 l 334 -47 q 309 -7 322 -22 q 268 14 296 7 q 258 15 262 15 q 232 1 241 15 q 217 -31 222 -14 q 201 -58 210 -51 q 187 -19 193 -50 l 186 -12 q 162 56 176 33 q 113 122 149 79 q 95 143 100 137 q 82 149 89 149 q 68 135 75 149 q 61 108 61 122 q 70 67 61 87 q 87 -4 87 28 q 84 -20 86 -20 q 82 -17 83 -20 q 80 -10 81 -14 q 79 -5 79 -7 q 65 32 71 18 q 45 65 58 45 q 23 118 28 90 q 18 176 18 146 q 20 226 18 201 q 22 276 22 252 q 15 345 22 304 q 0 498 0 421 q 27 696 0 600 q 148 911 63 826 q 365 1001 232 996 l 370 1001 q 458 985 416 1001 q 564 901 524 960 q 605 763 604 843 q 581 642 605 707 q 538 589 567 608 q 476 570 510 570 q 401 597 437 570 q 374 624 385 610 q 363 660 363 638 q 372 720 363 688 q 379 764 379 747 q 378 772 379 770 q 373 774 376 774 q 330 739 341 770 q 315 683 320 713 q 304 636 311 656 q 280 615 297 617 l 260 616 q 246 611 252 616 q 235 589 240 606 q 226 497 227 555 q 243 361 226 427 q 287 267 258 304 q 355 227 315 229 q 387 250 370 227 q 425 331 413 286 q 372 317 399 317 q 310 336 338 317 q 267 387 281 354 q 259 431 259 410 q 278 493 259 465 q 332 536 297 522 q 459 565 403 565 q 578 526 528 565 q 654 367 652 466 l 654 355 q 627 220 654 290 q 599 165 613 187 q 565 114 585 142 q 529 44 543 81 q 513 8 522 26 q 484 -57 493 -32 q 466 -127 474 -83 q 458 -147 462 -147 z "},"H":{"ha":798,"x_min":0,"x_max":759,"o":"m 227 -180 q 217 -172 222 -180 q 203 -149 209 -157 q 191 -130 197 -140 q 182 -102 186 -119 l 172 -58 q 140 56 159 -2 q 85 370 92 209 q 3 454 21 388 q 0 480 0 467 q 24 549 0 519 q 87 590 47 580 l 90 590 q 136 800 101 701 q 235 970 171 899 q 319 1008 273 1008 q 395 978 359 1008 q 432 895 432 941 q 403 819 432 854 q 319 600 340 747 l 457 590 q 434 699 449 648 q 429 732 429 715 q 451 798 429 768 q 509 840 472 827 q 542 844 526 844 q 608 823 578 844 q 684 594 664 783 q 755 515 739 573 q 759 488 759 501 q 741 426 759 454 q 690 383 722 397 q 657 138 685 259 q 644 57 648 93 q 631 -16 640 20 q 597 -98 623 -53 q 581 -130 589 -113 q 576 -140 576 -140 q 574 -134 574 -140 q 576 -116 574 -127 q 582 -93 577 -109 q 592 -41 592 -60 q 586 -13 592 -27 q 570 1 579 1 q 548 -13 559 1 q 514 -94 521 -44 q 509 -106 512 -106 q 499 -96 505 -106 q 481 -47 489 -77 q 465 1 475 -20 q 444 37 455 22 q 426 68 433 52 q 418 109 418 83 q 424 146 418 128 q 463 363 457 252 l 439 363 q 419 357 426 363 q 404 321 412 351 q 393 288 398 302 q 378 274 387 274 q 349 307 368 274 q 334 334 341 323 q 313 358 326 345 l 316 334 q 322 273 320 305 q 350 146 326 218 q 356 106 356 125 q 352 62 356 84 l 350 49 q 328 -56 344 3 q 321 -92 323 -75 l 319 -109 q 309 -129 315 -129 q 295 -107 303 -129 q 288 -75 290 -94 q 263 -23 279 -23 q 235 -75 246 -23 q 231 -117 231 -102 q 232 -140 231 -131 q 235 -161 234 -150 q 233 -174 235 -168 q 227 -180 231 -180 z "},"I":{"ha":365,"x_min":0,"x_max":322,"o":"m 168 -191 l 168 -188 q 165 -182 166 -186 q 125 -106 155 -150 q 104 -71 115 -89 l 101 -66 q 69 -4 81 -31 q 50 64 57 22 q 33 153 43 109 q 0 469 0 311 q 2 543 0 507 q 102 941 14 787 q 145 983 119 968 q 201 997 171 997 q 257 982 229 997 q 307 919 296 956 q 319 840 317 882 l 319 829 q 322 761 322 795 q 312 646 322 703 l 309 627 q 298 586 301 591 l 296 585 q 294 595 294 585 q 292 625 292 608 q 287 675 290 650 q 273 716 283 701 q 266 721 269 721 q 232 581 246 721 l 229 544 q 227 471 227 509 q 236 303 227 390 q 269 144 246 216 q 275 109 275 125 q 260 55 275 82 q 243 1 246 24 q 239 -46 239 -23 l 239 -53 q 235 -105 239 -76 q 235 -108 235 -106 q 233 -114 235 -111 q 229 -119 232 -118 q 223 -111 225 -119 l 222 -110 q 214 -91 217 -99 q 189 -47 205 -68 q 138 -5 155 -5 q 125 -25 125 -5 q 147 -104 125 -51 q 170 -178 166 -143 q 168 -191 170 -191 z "},"J":{"ha":659,"x_min":0,"x_max":628,"o":"m 115 -174 q 111 -158 113 -174 l 108 -139 q 83 -34 102 -88 q 73 2 76 -13 q 66 39 69 17 q 55 93 62 69 q 35 142 48 116 q 0 291 0 215 q 20 419 0 355 q 62 477 33 456 q 128 498 92 498 q 163 493 146 498 q 221 451 199 481 q 242 385 242 421 q 237 351 242 368 q 227 291 227 317 q 248 229 227 249 q 271 216 258 219 l 279 216 q 300 220 289 216 q 358 282 332 234 q 397 420 385 331 q 402 515 402 465 q 370 728 402 639 q 350 751 362 751 q 332 739 342 751 q 315 681 317 712 q 309 661 312 661 q 304 665 307 661 q 301 674 302 670 q 299 679 300 677 q 285 779 285 726 l 285 787 q 277 874 283 844 q 273 913 273 894 q 284 960 273 935 q 338 1013 304 997 q 385 1023 361 1023 q 457 997 423 1023 q 547 885 511 952 q 603 736 583 817 q 628 516 628 627 q 626 438 628 478 l 625 429 q 613 286 623 358 q 600 160 604 224 q 598 114 600 141 q 591 73 595 73 q 591 75 591 74 q 588 79 590 75 q 585 89 587 83 q 577 110 581 102 q 549 138 562 138 q 514 90 530 138 q 478 -101 487 -5 l 475 -119 q 474 -128 475 -125 q 471 -132 473 -132 q 462 -100 468 -132 l 456 -66 q 433 -20 446 -20 q 419 -29 427 -20 q 408 -49 412 -38 q 399 -71 401 -62 q 395 -90 397 -80 q 386 -109 389 -109 q 382 -104 385 -109 q 374 -60 376 -88 q 359 -6 369 -15 q 345 -3 353 -3 q 322 -7 334 -3 q 306 -16 311 -10 q 287 -73 294 -28 q 283 -93 285 -84 q 276 -104 281 -102 q 269 -100 273 -104 q 262 -85 266 -96 q 224 -27 245 -51 q 171 12 204 -4 q 154 16 161 16 q 134 1 142 16 q 128 -24 130 -9 q 127 -71 127 -39 q 124 -127 127 -91 q 115 -174 121 -174 z "},"K":{"ha":889,"x_min":0,"x_max":865,"o":"m 192 -120 l 190 -120 q 185 -118 186 -120 q 181 -115 183 -117 q 179 -111 180 -113 q 153 -60 161 -85 q 119 -3 139 -17 q 101 7 111 3 q 74 25 89 13 q 40 75 50 45 q 0 394 0 205 q 45 763 0 590 q 122 955 73 871 q 164 996 138 982 q 220 1010 191 1010 q 276 995 249 1010 q 318 952 304 979 q 332 897 332 926 q 317 840 332 867 l 304 817 q 530 856 418 856 q 608 850 570 856 q 760 798 690 840 q 854 673 829 756 q 865 565 865 623 q 861 498 865 528 q 840 422 854 459 q 833 390 837 412 q 831 376 832 382 q 828 367 830 370 q 824 382 825 367 q 823 398 823 394 q 826 431 823 412 q 829 467 829 449 q 821 502 829 486 q 805 513 814 513 q 789 509 798 513 q 751 502 772 502 q 674 531 707 502 q 637 606 642 560 q 576 627 635 618 q 559 628 566 628 q 539 624 547 628 q 520 608 530 619 q 488 538 488 576 q 491 512 488 528 q 495 471 495 490 q 491 452 495 460 q 489 455 490 452 q 486 459 488 457 l 477 478 q 458 516 469 496 q 445 541 451 528 q 433 574 439 553 q 424 599 430 587 q 405 611 418 611 l 397 610 q 283 552 326 587 q 249 493 249 525 q 286 417 252 453 q 431 324 338 361 q 461 309 448 317 q 487 296 474 302 q 519 291 500 291 q 549 294 532 291 q 572 298 568 298 q 574 297 573 298 q 576 294 576 296 l 576 292 l 585 304 q 625 338 602 326 q 674 349 648 349 q 732 334 704 349 q 776 289 764 314 q 788 229 788 263 q 774 125 787 174 q 743 32 764 90 q 721 -15 730 -5 l 720 -9 q 724 26 720 -1 q 726 63 726 42 q 723 92 726 77 q 706 106 719 106 q 693 103 701 106 q 647 84 667 91 q 597 75 627 78 q 554 72 576 72 q 515 74 535 72 l 507 74 q 478 68 490 74 q 454 52 467 63 q 415 12 434 35 q 389 -36 395 -11 q 389 -44 389 -39 q 388 -56 389 -50 q 386 -67 387 -62 q 382 -71 385 -71 q 374 -60 380 -71 q 365 -23 365 -39 q 369 7 365 -7 q 376 58 374 27 q 366 87 376 87 q 343 58 356 87 q 335 40 339 47 q 326 33 330 33 q 293 96 312 33 q 279 131 287 116 q 252 159 271 146 q 261 97 261 129 q 259 73 261 85 q 241 44 254 58 q 229 28 235 37 q 192 -93 192 -31 l 193 -111 l 192 -120 z "},"L":{"ha":790,"x_min":0,"x_max":757,"o":"m 139 -194 q 111 -146 123 -178 q 87 -62 95 -106 q 75 -6 82 -33 q 61 27 69 15 q 43 50 53 40 q 15 91 29 64 q 0 154 0 123 q 102 277 0 247 q 90 437 90 355 q 100 579 90 509 q 130 713 109 649 q 222 886 161 812 q 377 994 283 960 q 413 1000 395 1000 q 478 979 449 1000 q 521 922 508 958 q 527 886 527 903 q 511 829 527 857 q 500 766 500 804 q 501 732 500 749 q 502 699 502 715 q 483 545 502 632 q 476 526 481 535 q 472 542 473 531 q 470 564 471 553 q 469 585 470 570 q 458 664 467 623 q 420 730 449 705 q 402 737 410 737 q 386 728 393 737 q 372 706 378 719 q 345 644 355 676 q 317 439 317 546 q 328 292 317 363 q 334 242 332 267 q 476 217 425 217 q 513 233 511 217 q 553 302 521 275 q 626 330 585 330 q 738 233 719 322 q 744 203 739 229 q 757 93 757 125 q 752 75 757 77 q 747 78 750 75 q 733 95 739 88 q 719 102 726 102 q 703 94 711 102 q 688 74 697 88 q 644 -21 656 34 q 629 -68 636 -50 q 596 -134 609 -121 q 593 -116 593 -126 q 594 -99 593 -107 l 595 -92 q 552 -3 595 -3 q 527 -11 539 -3 q 508 -27 515 -18 q 489 -62 501 -37 q 464 -110 471 -98 q 450 -123 456 -121 q 445 -111 446 -123 q 441 -76 445 -93 q 422 -56 437 -58 q 401 -68 412 -56 q 381 -95 391 -81 q 369 -109 372 -109 q 364 -104 366 -109 q 359 -68 362 -99 l 355 -42 q 346 -16 353 -30 q 326 -2 339 -2 q 315 -6 321 -2 q 291 -45 298 -19 q 283 -91 283 -71 q 279 -118 282 -105 q 275 -121 275 -119 l 276 -126 q 274 -149 276 -149 q 272 -149 273 -149 q 268 -143 271 -149 q 262 -129 265 -137 l 259 -123 q 227 -47 241 -85 q 212 -18 220 -31 q 191 -5 203 -5 q 165 -18 180 -5 q 132 -118 132 -49 q 136 -167 132 -143 q 139 -194 139 -178 z "},"M":{"ha":940,"x_min":0,"x_max":901,"o":"m 511 -221 q 503 -155 503 -202 q 504 -126 503 -138 q 546 2 516 -56 q 572 66 560 33 l 593 120 q 623 200 609 159 q 677 493 677 363 q 670 578 677 541 q 646 655 663 614 q 599 529 614 604 q 583 393 585 454 q 565 282 578 332 l 554 231 q 548 224 552 224 q 532 239 543 224 l 519 256 q 510 260 515 260 q 484 229 498 260 l 463 179 q 451 164 456 164 q 448 167 450 164 q 445 179 447 170 q 441 199 443 188 q 437 218 439 210 q 434 232 435 227 q 402 281 418 281 q 371 222 382 281 q 363 145 363 186 q 360 127 362 127 q 357 145 359 127 q 355 161 355 157 q 349 264 349 216 q 355 385 349 321 q 356 439 356 410 q 358 492 357 467 q 359 521 359 505 q 341 616 359 616 l 337 614 q 330 604 333 612 q 323 588 326 596 q 319 575 321 580 q 315 570 317 570 q 307 606 310 570 l 304 635 q 299 606 304 635 q 292 581 296 581 q 281 608 288 581 l 277 622 q 264 643 271 643 l 262 642 q 248 615 254 635 q 237 574 241 595 q 231 543 233 553 q 224 453 224 499 q 262 195 224 322 q 269 173 264 184 q 283 105 283 128 q 266 52 281 78 q 227 -102 227 -22 l 228 -134 q 226 -142 228 -142 q 220 -138 223 -142 q 193 -87 208 -124 q 159 -33 174 -33 q 148 -39 153 -33 q 139 -54 144 -45 q 129 -68 134 -62 q 117 -76 123 -75 q 105 -65 110 -76 q 92 -18 96 -45 q 75 35 89 -3 q 60 75 66 54 q 50 111 56 94 q 28 195 38 151 q 0 446 0 316 q 94 839 0 678 q 261 985 164 954 q 326 995 294 995 q 410 975 370 995 q 524 852 480 940 q 648 897 585 897 q 731 878 689 897 q 865 718 818 838 q 901 499 901 623 q 873 261 901 380 q 806 41 846 142 q 790 -1 795 16 q 785 -37 785 -17 q 788 -73 785 -52 l 792 -106 q 800 -186 800 -147 q 796 -214 800 -214 q 789 -201 794 -214 l 785 -193 q 712 -109 750 -109 q 700 -111 707 -109 q 684 -115 692 -113 q 648 -137 664 -121 q 617 -171 631 -152 q 583 -208 601 -192 q 575 -212 578 -212 q 572 -207 572 -212 q 575 -188 572 -199 q 582 -128 582 -154 q 565 -90 582 -90 q 532 -121 545 -94 q 517 -168 519 -148 q 514 -195 516 -174 q 511 -221 513 -217 z "},"N":{"ha":745,"x_min":0,"x_max":707,"o":"m 295 -323 q 288 -311 292 -323 q 282 -272 282 -283 q 286 -257 282 -261 q 310 -201 289 -252 q 321 -174 317 -182 q 345 -95 339 -133 q 353 -19 351 -56 q 368 85 356 31 q 388 140 375 112 q 467 432 448 284 l 471 463 q 480 559 480 512 q 477 594 480 577 q 470 612 475 612 q 451 583 463 612 l 439 555 q 433 549 436 549 q 427 560 429 549 q 426 566 427 563 q 423 576 425 569 q 398 659 410 629 q 374 688 387 688 q 349 674 362 688 q 304 620 325 650 q 228 394 239 528 l 227 342 q 267 150 229 253 q 275 108 275 127 q 253 42 275 75 q 235 11 242 25 q 217 -26 221 -14 q 203 -54 211 -41 q 184 -68 195 -68 q 163 -46 174 -68 l 159 -39 q 146 -15 153 -26 q 127 -3 138 -3 q 103 -16 117 -3 q 75 -89 75 -46 q 76 -105 75 -97 q 77 -123 77 -113 q 75 -131 77 -131 q 69 -122 73 -131 q 45 -13 45 -75 l 45 14 q 47 49 47 35 q 44 80 47 66 q 33 117 41 94 q 5 268 10 191 q 0 361 0 315 q 2 418 0 390 q 33 750 8 591 q 83 956 58 909 q 125 996 100 982 q 180 1010 151 1010 q 239 994 210 1010 q 292 911 286 964 q 436 951 363 951 l 454 951 q 562 916 515 946 q 690 722 662 852 q 707 569 707 651 q 655 224 707 411 q 559 -27 617 87 q 534 -134 538 -75 q 524 -199 530 -168 q 512 -237 520 -213 q 496 -273 504 -262 l 493 -275 q 491 -267 491 -275 q 493 -218 493 -233 q 467 -134 493 -168 q 439 -119 457 -121 l 412 -116 q 387 -126 397 -116 q 368 -150 376 -137 q 364 -155 367 -153 q 325 -219 344 -184 q 302 -288 305 -254 l 300 -304 q 295 -323 298 -323 z "},"O":{"ha":701,"x_min":0,"x_max":668,"o":"m 351 229 q 393 264 374 231 q 442 498 442 349 q 463 564 442 535 q 516 605 484 592 q 451 644 477 614 q 425 714 425 674 q 426 728 425 721 q 427 741 427 734 q 414 758 427 758 l 412 758 q 346 667 376 750 q 334 650 339 650 q 325 670 330 650 q 312 706 319 690 q 296 723 305 723 q 266 690 284 723 q 227 503 227 608 q 243 369 227 433 q 310 246 266 287 q 330 234 321 237 q 351 229 338 231 m 415 -170 q 411 -131 412 -170 q 407 -82 411 -102 q 382 -43 399 -46 q 355 -83 369 -43 l 349 -98 q 340 -114 343 -114 q 333 -102 337 -114 q 325 -68 328 -87 q 313 -19 321 -42 q 281 12 304 3 l 273 14 q 250 20 259 20 q 235 -4 235 20 q 239 -43 235 -16 q 247 -106 247 -91 q 243 -117 247 -117 q 230 -100 238 -117 l 218 -75 q 190 -20 206 -48 q 165 28 176 5 l 153 51 q 132 72 142 72 q 117 63 125 72 q 106 46 115 60 q 99 34 102 39 q 92 27 96 28 q 88 32 90 27 l 87 35 q 81 109 83 52 q 73 175 79 151 q 51 237 67 198 q 26 310 36 273 q 0 505 0 406 q 43 746 0 635 q 122 878 73 820 q 227 964 170 934 q 380 1002 301 1002 q 493 979 440 1002 q 613 881 568 948 q 654 745 654 821 q 650 696 654 722 q 577 610 636 632 q 642 571 616 602 q 668 500 667 541 l 668 485 q 623 222 668 345 q 603 120 604 168 q 599 80 602 102 q 574 -8 593 37 q 532 -90 555 -53 q 524 -98 526 -98 q 524 -96 524 -98 q 525 -85 524 -92 q 529 -73 527 -79 q 532 -65 531 -66 l 532 -64 q 542 -24 536 -49 q 548 23 548 1 q 537 60 548 47 q 526 65 531 65 q 503 54 517 65 l 501 52 q 472 9 481 35 q 458 -44 463 -18 q 441 -106 452 -71 q 418 -166 427 -154 l 418 -167 q 415 -170 416 -170 z "},"P":{"ha":611,"x_min":0,"x_max":581,"o":"m 186 -159 q 180 -152 184 -159 q 172 -138 176 -146 q 165 -123 168 -130 q 162 -115 163 -117 q 154 -87 158 -103 q 139 -37 148 -62 q 114 -1 130 -13 q 106 2 109 2 q 95 -11 97 2 q 93 -38 93 -24 q 92 -68 93 -62 q 85 -84 91 -84 q 67 -52 79 -84 q 49 -12 60 -33 q 33 41 33 20 q 33 55 33 47 q 34 78 34 63 q 24 153 34 109 l 19 184 q 1 372 5 277 l 1 377 q 0 444 0 410 q 239 1000 0 925 q 308 1010 271 1010 q 447 961 382 1010 q 549 833 513 911 l 552 826 q 581 701 578 768 q 572 612 581 650 l 567 574 l 555 459 l 552 441 q 541 412 547 414 q 534 432 538 418 q 524 463 530 448 q 505 477 517 477 q 489 471 498 477 q 448 414 463 448 q 422 343 433 380 q 400 283 412 311 q 393 274 395 274 q 388 285 391 274 q 380 306 385 296 q 364 315 376 315 q 344 293 351 313 q 334 254 338 273 q 327 231 330 231 q 323 235 326 231 q 307 282 314 252 q 292 331 300 308 q 265 356 283 353 q 250 354 259 356 q 229 349 231 351 q 258 142 239 209 q 263 109 263 124 q 236 35 263 70 q 189 -96 195 -24 q 187 -119 187 -107 q 189 -149 187 -134 q 186 -159 189 -159 m 233 582 q 347 656 327 610 q 355 690 355 672 q 347 731 355 708 l 344 739 q 325 771 334 758 q 309 784 315 784 l 304 783 q 273 749 287 778 q 233 582 244 687 z "},"Q":{"ha":718,"x_min":7,"x_max":778,"o":"m 332 186 q 309 222 324 200 q 292 283 292 252 q 307 339 292 313 q 349 380 321 365 q 377 390 359 387 q 412 393 395 393 q 447 387 430 393 q 448 389 448 387 l 450 435 q 456 486 450 461 q 489 534 462 510 q 524 555 505 547 q 457 595 481 565 q 432 667 432 626 l 434 692 q 416 711 434 711 q 398 707 408 711 q 380 696 388 703 q 353 660 361 679 q 342 618 346 640 q 332 583 337 583 q 323 594 329 583 q 322 596 323 595 q 318 606 321 598 q 311 623 315 613 q 292 646 300 646 q 265 616 279 642 q 250 579 254 593 q 234 452 234 519 q 251 319 234 383 q 317 196 273 237 q 332 186 325 190 m 665 -193 q 615 -181 640 -193 q 574 -148 591 -170 q 477 -18 501 -50 q 448 -53 458 -31 q 431 -99 438 -76 l 420 -138 q 408 -172 410 -170 q 405 -174 406 -174 q 401 -171 404 -174 l 401 -170 q 389 -140 394 -159 q 376 -102 385 -120 q 352 -83 368 -84 q 336 -92 343 -83 q 300 -139 326 -102 q 267 -180 278 -170 q 265 -170 265 -174 q 270 -142 265 -166 q 277 -81 277 -113 q 254 -28 277 -42 q 220 -16 236 -16 q 191 -27 206 -16 q 168 -59 172 -41 q 164 -97 164 -77 q 159 -132 164 -132 q 155 -126 157 -132 q 151 -117 153 -121 q 149 -111 150 -113 q 133 -70 138 -83 q 129 -39 129 -56 q 131 -6 129 -26 l 132 24 q 127 57 132 42 q 107 85 122 73 q 99 89 102 89 q 87 56 89 89 l 85 28 q 79 -22 81 -14 l 78 -22 q 71 3 75 -22 l 69 15 q 52 100 62 66 q 38 159 43 134 q 31 220 33 184 q 18 330 28 275 q 7 454 7 391 q 129 828 7 679 q 234 913 178 884 q 387 952 308 952 q 500 929 447 952 q 620 831 576 898 q 661 693 661 770 q 585 559 661 589 q 649 521 624 551 q 675 450 674 491 q 670 337 675 392 q 627 162 659 245 q 755 -11 688 78 q 778 -79 778 -43 q 766 -129 778 -104 q 733 -170 755 -153 q 665 -193 701 -193 z "},"R":{"ha":687,"x_min":0,"x_max":636,"o":"m 547 -286 q 545 -279 545 -286 q 547 -259 545 -273 q 549 -222 549 -246 q 532 -116 549 -168 q 516 -78 526 -94 q 492 -61 506 -61 q 460 -89 477 -61 q 448 -121 448 -109 q 452 -151 448 -124 q 449 -163 452 -163 q 438 -156 447 -163 q 420 -147 427 -147 l 415 -148 l 413 -147 q 408 -161 408 -147 q 412 -197 408 -178 q 415 -228 415 -216 q 413 -238 414 -238 q 410 -235 412 -238 q 396 -202 403 -218 q 383 -171 390 -186 q 364 -119 369 -140 q 359 -73 359 -98 q 361 -31 359 -55 q 362 46 362 -6 q 366 80 362 65 q 380 113 370 95 q 389 146 389 123 l 390 168 q 369 273 390 218 q 304 361 346 336 q 230 346 269 352 q 249 186 233 266 q 264 27 264 106 l 265 9 q 278 -98 269 -45 q 280 -109 279 -104 q 281 -134 281 -115 q 275 -152 281 -152 q 271 -150 274 -152 q 256 -125 263 -144 q 241 -85 248 -107 q 224 -40 233 -60 q 208 -20 216 -20 q 172 -152 189 -20 q 162 -225 169 -189 l 162 -229 q 161 -233 161 -231 q 160 -235 161 -235 q 144 -150 155 -235 q 136 -98 139 -115 q 117 -74 129 -74 q 92 -91 104 -74 q 77 -130 79 -109 q 76 -144 76 -136 q 74 -160 75 -151 q 59 -136 66 -157 q 51 -88 51 -112 q 55 -41 51 -64 q 59 5 59 -18 q 54 43 59 24 l 41 78 q 13 231 24 140 q 2 425 2 321 q 0 449 0 435 q 3 478 0 465 q 8 550 5 514 l 8 553 q 47 753 17 657 q 135 918 77 849 q 284 1008 193 986 q 330 1014 307 1014 q 450 979 393 1014 q 547 886 507 945 q 593 793 576 843 q 623 693 610 744 q 636 578 636 635 q 631 490 636 534 l 631 477 q 632 455 631 464 q 634 433 633 446 q 632 423 634 423 q 628 428 630 423 q 619 448 623 437 l 616 454 q 610 490 612 469 l 604 522 q 587 549 599 549 q 555 517 575 549 q 515 470 541 496 q 590 327 564 406 q 616 168 616 248 q 615 142 616 153 q 614 117 614 130 q 601 56 609 85 q 586 -64 590 1 l 583 -116 q 575 -200 581 -158 q 551 -279 569 -241 q 547 -286 548 -286 m 238 576 q 374 654 351 604 q 382 691 382 672 q 361 758 380 730 q 335 788 341 785 l 332 787 q 238 576 262 761 z "},"S":{"ha":694,"x_min":0,"x_max":665,"o":"m 298 -254 l 298 -245 q 302 -214 298 -235 q 306 -165 306 -192 q 300 -112 306 -139 q 281 -64 294 -85 q 250 -42 267 -42 q 231 -52 240 -42 q 199 -111 206 -77 l 199 -117 q 194 -133 197 -133 q 183 -119 191 -133 q 170 -52 170 -87 q 158 0 168 -20 q 142 9 151 9 q 111 -10 128 9 q 87 -42 93 -28 q 77 -79 81 -56 q 74 -85 76 -85 q 71 -79 73 -85 q 64 -24 64 -50 l 64 -19 q 61 22 64 1 q 53 43 58 43 q 45 33 49 43 q 32 -43 33 9 q 29 -66 32 -66 q 20 -41 26 -66 l 16 -22 q 12 -4 12 -7 q 5 66 5 35 l 6 102 l 7 145 q 2 218 7 182 q 0 252 0 235 q 14 345 0 298 q 56 405 26 382 q 123 427 86 427 q 155 422 138 427 q 214 380 192 410 q 236 313 236 350 q 231 281 236 298 q 227 252 227 264 q 242 222 227 230 q 273 208 256 212 q 326 200 295 200 q 391 212 361 200 q 427 241 421 224 q 337 363 427 288 q 222 470 266 422 q 145 566 173 522 q 91 743 91 654 q 114 854 91 802 q 211 966 144 923 q 330 1008 262 1000 q 359 1010 344 1010 l 378 1010 q 525 958 460 1006 q 612 806 597 905 q 613 775 613 791 q 611 741 613 757 q 608 687 608 718 l 609 660 q 595 562 609 562 q 585 572 591 562 q 574 595 580 582 q 556 634 568 616 q 520 656 544 652 l 495 656 q 418 691 449 659 q 387 768 387 723 l 387 779 q 367 784 380 783 q 333 776 347 784 l 332 776 q 321 763 325 772 q 317 743 317 754 l 318 734 q 387 625 322 692 q 482 536 426 584 q 631 348 597 437 q 654 242 654 292 q 643 174 654 205 l 631 141 q 631 140 631 141 q 620 78 620 113 q 621 53 620 66 q 621 28 621 41 l 621 -15 q 625 -64 621 -41 q 647 -113 630 -87 l 654 -124 q 665 -149 665 -142 q 662 -152 665 -152 q 627 -126 652 -152 q 574 -43 589 -87 q 558 -5 568 -24 q 534 18 547 18 q 503 -55 517 18 q 491 -103 498 -79 q 461 -151 479 -131 q 422 -191 444 -172 l 418 -193 l 417 -189 q 433 -156 417 -186 q 447 -129 441 -142 q 452 -99 452 -116 q 451 -82 452 -91 q 443 -56 449 -71 q 427 -30 437 -41 q 404 -19 416 -19 l 395 -20 q 373 -31 380 -23 q 350 -111 359 -50 q 314 -231 341 -173 q 298 -254 304 -251 z "},"T":{"ha":823,"x_min":0,"x_max":781,"o":"m 477 -197 q 471 -170 475 -194 q 448 -106 467 -142 q 437 -87 442 -97 q 414 -59 424 -59 q 405 -75 408 -63 q 401 -98 401 -87 l 403 -112 q 399 -119 403 -119 q 387 -111 395 -119 q 362 -65 372 -93 q 332 -12 351 -33 q 318 -5 324 -5 q 302 -15 309 -5 q 286 -55 290 -33 q 279 -105 279 -85 q 283 -144 279 -125 l 285 -157 q 284 -160 285 -160 q 280 -155 283 -160 q 274 -143 277 -150 q 269 -132 271 -136 q 267 -126 267 -127 q 254 -23 254 -78 l 254 -18 q 235 171 254 69 q 210 393 214 280 q 214 434 210 420 q 218 469 218 449 q 214 503 218 483 q 210 538 210 523 q 244 780 218 667 l 211 781 q 187 780 198 781 q 140 727 155 777 q 126 624 126 677 q 142 525 126 574 q 135 526 137 525 q 128 536 134 528 q 99 598 111 561 q 79 673 87 635 q 47 774 63 746 q 22 810 38 789 q 12 828 16 819 q 10 831 11 829 q 0 878 0 854 q 18 938 0 910 q 68 981 35 966 q 139 1001 100 995 q 220 1006 178 1006 q 376 997 294 1006 l 378 997 q 532 987 463 987 q 620 1000 588 987 q 667 1010 644 1010 q 728 994 700 1010 q 770 945 755 977 q 781 898 781 920 q 767 838 781 874 q 734 680 745 783 l 728 631 l 723 609 q 715 591 718 591 q 711 607 713 591 q 684 728 702 684 q 649 768 671 763 q 623 730 633 768 q 605 627 611 684 q 590 550 595 550 q 587 554 589 550 q 584 571 584 563 l 579 598 q 561 684 573 640 q 522 751 549 728 q 503 760 512 758 q 473 763 489 763 q 435 498 441 650 l 435 452 q 473 142 435 292 q 478 90 478 119 q 475 21 478 56 q 473 -46 473 -15 q 477 -136 473 -94 q 481 -176 481 -163 q 477 -197 481 -190 z "},"U":{"ha":727,"x_min":0,"x_max":679,"o":"m 298 207 l 297 208 q 298 207 297 207 m 208 -227 q 195 -203 204 -221 l 189 -191 q 162 -138 172 -160 q 136 -39 142 -94 q 89 110 126 43 q 69 125 79 125 q 51 115 60 125 q 37 91 43 104 q 30 67 31 77 q 28 49 29 58 q 41 -28 28 26 l 41 -31 q 40 -34 41 -34 q 24 -5 38 -34 q 21 1 21 -1 q 0 92 0 52 q 16 181 0 123 l 23 211 q 33 283 33 254 q 30 327 33 304 q 24 444 24 376 q 30 573 24 509 q 88 928 46 767 q 129 990 98 967 q 198 1014 160 1014 q 226 1010 212 1014 q 288 969 264 1000 q 311 900 311 938 q 308 872 311 886 q 256 555 271 728 q 251 439 251 495 q 265 284 251 352 q 297 208 279 216 q 376 298 334 224 q 439 526 427 389 q 441 578 441 551 q 391 840 441 711 q 383 881 383 860 q 402 944 383 915 q 456 987 422 972 q 496 994 476 994 q 559 975 530 994 q 602 922 588 956 q 668 587 668 749 q 679 459 679 560 q 674 289 679 383 q 648 46 667 110 q 627 -7 640 21 q 612 -39 618 -24 l 585 -109 q 556 -169 560 -169 q 552 -127 552 -169 q 529 -56 552 -56 q 511 -69 521 -56 q 490 -96 500 -82 q 479 -105 483 -105 q 470 -84 472 -105 l 469 -80 q 459 -25 465 -46 q 438 27 453 -5 q 410 -32 418 1 q 396 -101 401 -65 q 372 -201 390 -155 q 367 -188 367 -196 q 366 -172 367 -180 q 344 -61 365 -114 q 324 -41 334 -41 q 303 -81 311 -41 q 291 -113 296 -113 q 285 -110 288 -113 l 284 -109 q 268 -82 278 -101 q 244 -45 258 -64 q 218 -26 231 -26 q 193 -54 204 -26 q 185 -98 185 -77 q 202 -181 185 -128 q 209 -218 209 -199 l 208 -227 z "},"V":{"ha":647,"x_min":0,"x_max":614,"o":"m 137 -223 q 131 -199 132 -210 q 130 -161 130 -189 q 135 -79 130 -119 q 140 -16 138 -48 q 136 18 140 1 q 123 48 132 36 q 106 61 115 61 q 81 44 93 61 q 62 -19 63 15 q 60 -26 61 -26 q 50 -3 56 -26 q 47 30 47 11 q 51 86 47 56 q 54 140 54 115 q 39 263 54 203 q 0 646 0 442 q 20 935 0 794 q 59 1004 27 977 q 132 1031 91 1031 l 149 1030 q 218 991 191 1023 q 245 918 245 960 q 244 901 245 910 q 226 642 226 769 q 269 272 226 426 q 363 686 315 390 q 387 930 385 819 q 422 1008 390 977 q 500 1040 454 1040 q 582 1005 549 1039 q 614 926 614 972 q 604 783 613 866 q 587 650 598 715 q 560 498 574 574 q 554 429 555 465 l 552 395 q 525 156 544 275 q 520 142 522 142 q 514 178 517 142 l 513 184 q 507 206 511 206 l 507 206 q 500 203 503 204 q 494 199 497 202 q 477 165 480 184 q 473 135 473 151 l 472 127 q 470 60 470 96 q 467 -17 470 19 l 466 -42 q 458 -112 464 -99 q 445 -57 453 -104 q 440 -31 444 -46 q 406 35 428 35 q 365 0 381 35 q 348 -70 354 -24 q 333 -130 340 -130 q 321 -111 329 -130 q 297 -63 310 -83 q 262 -33 284 -43 q 250 -31 256 -31 q 219 -45 233 -31 q 142 -209 161 -100 q 138 -220 141 -215 l 137 -223 z "},"W":{"ha":1042,"x_min":0,"x_max":996,"o":"m 149 -174 q 136 -132 144 -174 l 135 -127 q 130 -79 132 -102 q 82 81 127 16 q 16 246 32 157 q 0 423 0 328 q 47 760 0 591 q 126 955 77 865 q 169 999 142 983 q 225 1014 195 1014 q 280 1000 253 1014 q 323 957 308 983 q 338 900 338 930 q 325 846 338 872 q 232 525 250 702 q 227 422 227 471 q 238 290 227 349 q 254 231 245 252 q 299 302 270 252 q 388 582 366 414 q 391 629 390 605 q 390 701 390 667 q 420 778 390 745 q 504 814 452 813 q 580 785 548 814 q 616 709 612 755 q 618 648 618 678 l 618 627 q 675 317 627 465 q 718 209 712 209 l 722 209 q 743 237 730 212 q 769 360 764 283 l 770 399 q 747 600 770 488 q 673 838 723 711 q 665 880 665 859 q 684 942 665 913 q 736 985 703 971 q 778 994 757 994 q 841 975 812 994 q 883 922 869 956 q 969 641 941 774 q 996 399 996 508 q 995 347 996 372 q 943 131 987 219 q 928 97 933 112 q 913 -14 915 63 q 907 -101 913 -58 q 904 -111 906 -106 l 903 -114 q 895 -102 897 -111 q 887 -75 893 -94 q 857 -28 871 -28 q 828 -83 844 -28 q 802 -147 816 -122 q 796 -153 798 -153 q 793 -144 793 -153 l 794 -113 q 777 -37 794 -56 q 768 -33 772 -33 q 751 -49 758 -33 q 734 -117 741 -74 l 732 -125 q 722 -153 726 -153 q 711 -131 718 -153 q 694 -89 703 -104 q 663 -64 684 -68 l 660 -64 q 643 -73 649 -64 q 632 -93 637 -83 q 619 -111 624 -111 q 611 -89 614 -111 q 606 -51 608 -67 q 600 -13 604 -31 q 578 33 595 5 q 552 69 566 53 q 487 176 517 112 l 471 152 q 454 124 462 138 q 410 -16 436 90 q 378 -118 384 -118 q 374 -87 374 -118 q 372 -41 373 -60 q 345 19 368 19 l 339 18 q 296 -18 312 9 q 268 -76 279 -45 q 256 -98 262 -93 l 254 -98 q 246 -90 250 -98 q 237 -71 241 -82 q 222 -41 230 -55 q 204 -27 214 -27 q 183 -45 195 -27 q 163 -101 170 -67 q 153 -162 155 -136 q 149 -174 151 -174 z "},"X":{"ha":1050,"x_min":0,"x_max":1009,"o":"m 425 -192 q 413 -178 422 -192 q 370 -87 387 -137 l 356 -53 q 319 -14 339 -14 q 288 -54 299 -14 q 273 -111 279 -82 q 256 -161 263 -161 q 254 -156 255 -161 q 249 -134 251 -147 q 244 -101 248 -121 q 220 -50 234 -50 q 203 -65 211 -50 q 189 -92 195 -77 q 172 -117 178 -117 q 170 -115 171 -117 q 165 -75 167 -109 l 163 -56 q 146 38 160 -2 q 123 64 138 64 q 115 62 119 64 q 97 22 97 52 q 100 -1 98 6 q 104 -39 104 -20 q 82 -2 94 -24 q 64 37 71 20 q 58 92 58 65 l 58 114 q 43 189 58 149 l 37 204 q 18 273 18 240 q 34 332 18 304 q 81 374 51 359 q 134 382 98 382 q 163 380 151 382 q 235 318 212 366 q 275 246 257 267 q 311 217 294 224 q 327 231 318 219 q 356 294 345 254 q 367 390 367 334 q 365 437 367 412 q 317 656 353 576 q 237 762 281 735 q 224 768 231 766 q 228 741 224 764 l 229 728 q 221 685 229 704 q 197 648 213 667 q 162 587 177 623 q 142 513 145 546 q 146 482 142 499 q 150 454 150 465 q 141 437 150 437 q 104 484 127 437 q 93 506 95 500 q 87 538 90 520 q 63 617 77 595 q 43 640 54 631 q 13 678 24 655 q 0 759 0 705 q 25 876 0 826 q 92 957 50 926 q 216 998 148 998 l 228 997 q 360 951 294 993 q 503 786 439 903 q 646 951 568 903 q 779 997 713 993 l 791 998 q 914 957 859 998 q 1007 757 1007 886 l 1004 693 l 1005 652 l 1009 528 q 1008 508 1009 517 q 1005 492 1008 498 q 996 485 1002 485 q 974 505 984 485 q 960 535 967 518 q 935 587 950 564 q 895 614 920 611 q 878 614 882 614 q 806 653 833 621 q 778 728 778 685 l 779 741 q 782 768 782 764 q 770 762 776 766 q 690 656 726 735 q 642 437 654 576 q 640 390 640 412 q 650 294 640 334 q 680 231 661 254 q 695 217 687 220 l 698 218 q 772 318 732 231 q 815 368 787 350 q 876 385 843 385 q 922 376 899 385 q 971 333 954 361 q 989 272 989 304 q 979 227 989 250 q 972 186 972 207 q 976 141 972 163 q 981 71 981 107 q 962 -60 981 4 q 957 -75 958 -75 q 954 -59 955 -75 q 953 -28 954 -56 q 948 25 952 -1 q 928 74 944 51 q 903 92 916 92 q 888 79 895 92 q 873 14 876 51 q 867 -24 871 -5 l 863 -38 q 847 -71 856 -66 q 846 -70 846 -71 q 845 -67 845 -68 q 844 -64 844 -66 l 839 -47 q 832 -26 836 -37 q 817 -7 827 -16 q 799 1 807 1 q 766 -54 776 1 q 756 -129 758 -89 l 755 -147 q 753 -158 754 -156 q 750 -162 751 -161 q 747 -159 748 -162 q 745 -154 747 -156 q 729 -113 738 -139 q 715 -74 722 -92 q 689 -45 703 -45 q 672 -58 679 -45 q 656 -90 665 -70 q 608 -155 633 -138 q 606 -149 606 -152 q 607 -144 606 -146 q 608 -140 608 -142 l 612 -125 q 620 -73 620 -98 q 608 -22 620 -50 q 585 14 597 1 q 557 38 572 27 q 510 81 531 56 l 503 89 q 479 62 490 73 q 452 39 468 52 q 422 -20 431 19 q 413 -90 413 -59 q 422 -165 415 -133 q 426 -189 426 -186 q 425 -192 426 -192 z "},"Y":{"ha":796,"x_min":0,"x_max":749,"o":"m 170 -345 q 169 -333 169 -340 q 177 -257 169 -325 q 182 -184 182 -220 q 170 -99 182 -145 q 151 -55 164 -79 q 113 -24 136 -28 q 91 -42 99 -24 q 79 -81 83 -60 q 66 -115 73 -104 q 59 -89 61 -107 q 55 -49 55 -61 q 43 48 48 16 q 21 132 37 87 q 0 252 0 190 l 0 267 q 36 343 3 313 q 113 374 68 374 q 196 338 162 374 q 227 260 227 305 l 227 247 q 247 178 227 212 q 300 123 267 144 q 347 108 323 108 q 441 206 401 116 q 499 403 481 291 l 499 406 l 495 404 q 405 374 452 381 q 377 359 387 370 q 359 332 366 348 q 346 291 346 308 q 351 261 346 277 l 356 243 q 357 232 357 236 q 355 227 357 227 q 323 262 347 227 q 297 323 303 289 q 284 364 293 345 q 250 397 275 383 q 197 429 219 413 q 151 471 175 445 q 75 598 104 523 q 46 763 46 673 q 70 921 46 838 q 112 980 81 958 q 179 1002 142 1002 q 210 998 194 1002 q 269 956 248 987 q 291 889 291 926 q 287 858 291 873 q 272 762 272 806 q 285 682 272 717 q 319 623 298 646 q 365 597 342 597 q 390 604 376 597 q 465 696 431 624 q 520 903 500 768 l 519 922 q 551 1000 519 968 q 633 1036 584 1036 q 710 1005 678 1036 q 746 927 743 974 l 747 898 q 749 760 749 831 q 669 172 749 401 q 664 129 664 153 l 665 83 q 662 28 665 49 q 652 -22 659 8 q 645 -63 648 -45 q 643 -115 643 -81 q 638 -140 643 -140 l 637 -140 q 629 -130 633 -140 q 621 -107 624 -121 q 612 -52 614 -81 q 593 11 608 11 q 582 5 587 11 q 571 -6 576 0 l 568 -9 q 554 -34 557 -22 q 551 -66 551 -46 q 553 -117 551 -92 q 556 -184 555 -142 q 551 -262 556 -222 q 549 -274 551 -268 l 547 -279 q 541 -264 543 -274 l 536 -240 q 516 -168 529 -204 q 473 -110 503 -132 q 448 -101 460 -101 q 420 -112 433 -101 q 399 -138 407 -123 l 377 -182 q 368 -189 372 -189 q 353 -174 363 -189 l 353 -172 q 325 -132 341 -150 q 285 -113 311 -117 l 281 -113 q 255 -127 264 -113 q 224 -205 244 -144 q 202 -269 214 -239 q 170 -345 180 -330 z "},"Z":{"ha":933,"x_min":0,"x_max":887,"o":"m 673 -264 q 694 -210 673 -260 l 696 -203 q 713 -143 707 -170 q 720 -89 720 -116 q 718 -59 720 -75 q 707 -26 716 -43 q 680 -5 699 -9 l 677 -5 q 653 -16 662 -5 q 640 -41 645 -26 q 626 -98 626 -69 q 635 -138 626 -118 q 647 -179 647 -165 q 639 -190 647 -189 q 619 -178 631 -190 q 595 -152 606 -165 q 581 -131 585 -138 q 562 -83 570 -109 q 541 -33 554 -52 q 526 -22 533 -22 q 506 -43 515 -22 q 490 -88 497 -64 q 483 -112 486 -102 q 476 -124 479 -121 q 472 -126 473 -126 q 469 -125 470 -126 q 467 -121 467 -123 q 465 -119 466 -119 l 460 -106 q 443 -67 454 -87 q 416 -47 433 -47 q 397 -56 408 -47 q 374 -92 387 -65 q 357 -112 363 -112 q 350 -107 354 -112 q 342 -93 347 -102 q 322 -60 334 -77 q 298 -43 311 -43 q 290 -45 294 -43 q 262 -138 272 -60 l 260 -152 q 239 -244 252 -220 q 231 -195 232 -224 q 185 -66 222 -100 q 174 -61 179 -61 q 155 -73 163 -61 q 147 -99 147 -85 q 151 -129 147 -112 q 155 -157 155 -145 q 146 -171 155 -171 q 123 -152 138 -171 l 123 -151 q 94 -107 104 -127 q 75 -58 84 -87 q 57 -22 66 -36 q 38 3 47 -8 q 8 48 21 20 q 0 88 0 68 q 66 210 0 146 q 334 465 227 366 l 351 480 q 391 518 370 497 q 469 591 428 555 l 540 656 q 637 745 590 700 l 638 746 q 652 762 652 758 l 651 763 q 509 768 637 768 l 414 768 q 366 734 385 768 q 345 692 357 717 q 327 659 332 662 l 324 657 q 319 664 321 657 q 311 693 314 677 q 300 732 308 713 q 273 764 292 751 q 256 769 264 769 q 228 751 239 769 q 219 730 221 741 q 216 709 216 719 q 212 694 215 699 q 190 736 197 707 q 183 787 184 766 q 176 857 179 836 l 175 878 q 223 972 175 939 q 288 994 252 994 l 451 994 q 611 989 541 994 q 731 969 681 985 q 814 920 782 953 q 823 909 819 916 q 854 852 844 883 q 871 681 871 791 q 865 560 871 609 q 846 468 855 488 q 840 488 841 471 l 840 513 q 831 590 838 548 q 799 644 823 631 l 794 644 q 779 636 786 644 q 768 620 772 628 l 764 615 q 620 445 700 530 q 464 283 541 359 l 376 197 q 555 214 460 206 q 749 222 651 222 l 775 222 q 854 190 822 222 q 887 109 887 157 q 838 16 885 52 q 811 -15 821 3 q 794 -53 802 -33 l 780 -87 q 737 -174 763 -131 l 734 -179 q 673 -264 684 -262 z "},"[":{"ha":545,"x_min":34,"x_max":443,"o":"m 227 -315 q 218 -269 221 -304 l 218 -260 q 214 -182 214 -220 q 211 -128 213 -144 q 187 -86 205 -91 l 156 -87 q 127 -82 138 -86 q 102 -70 117 -79 q 90 -66 96 -66 q 67 -83 75 -66 q 56 -134 56 -106 q 58 -159 56 -147 l 59 -179 q 58 -184 59 -184 q 43 -140 55 -184 q 34 -68 34 -109 q 54 65 34 0 q 63 105 60 87 q 67 146 66 123 q 71 656 70 566 q 73 995 73 823 q 104 1056 77 1033 q 163 1076 130 1076 l 297 1069 q 357 1038 340 1064 q 374 972 374 1013 q 370 892 373 932 q 368 808 368 842 l 367 762 q 359 687 366 698 q 350 743 355 694 l 349 753 q 328 858 342 818 q 289 897 314 895 l 253 898 q 250 460 251 557 q 248 93 248 278 l 345 100 q 386 89 369 100 q 416 58 403 78 q 443 -45 443 16 q 437 -123 443 -84 l 434 -144 q 403 -286 428 -217 q 393 -301 396 -301 q 388 -296 389 -301 q 386 -283 387 -290 q 385 -271 385 -276 l 386 -217 q 368 -119 386 -171 q 335 -75 353 -75 q 327 -78 332 -75 q 317 -86 323 -81 l 311 -92 q 240 -260 260 -147 q 227 -315 233 -304 z "},"\\":{"ha":899,"x_min":34,"x_max":798,"o":"m 592 -288 q 590 -285 590 -288 q 604 -246 590 -276 q 630 -178 618 -216 q 644 -93 643 -134 q 628 -12 644 -51 q 590 62 612 27 l 566 102 q 526 167 538 147 q 513 188 521 177 q 496 198 505 198 q 481 189 489 198 q 452 51 453 147 q 449 35 452 35 l 446 39 q 425 218 428 83 q 406 362 425 317 q 379 411 397 382 q 157 780 186 731 q 109 856 119 846 q 92 866 99 866 q 72 842 80 866 q 58 761 58 802 l 59 729 q 58 721 59 721 q 55 724 56 721 q 43 760 47 737 q 34 899 34 803 q 41 1013 34 966 q 84 1069 47 1053 q 126 1078 104 1078 q 172 1067 150 1078 q 205 1036 193 1057 l 787 71 q 798 34 798 52 q 787 -1 798 16 q 766 -26 777 -18 q 753 -37 760 -31 q 715 -104 741 -49 q 691 -152 704 -129 q 627 -253 654 -218 q 592 -288 600 -288 z "},"]":{"ha":546,"x_min":34,"x_max":444,"o":"m 211 -330 q 208 -324 208 -330 q 216 -275 208 -306 l 219 -260 q 222 -226 222 -245 q 205 -123 222 -174 q 191 -88 200 -104 q 161 -72 182 -72 l 154 -73 q 139 -70 146 -71 q 125 -68 132 -68 q 102 -80 115 -68 q 52 -235 60 -125 q 51 -244 51 -239 q 50 -254 51 -249 q 47 -266 49 -266 q 41 -252 45 -266 q 34 -195 34 -224 q 60 -39 34 -126 q 104 64 77 20 q 128 92 115 84 q 163 100 142 100 q 262 93 169 100 l 256 898 l 244 898 q 218 897 231 897 q 198 898 208 897 l 193 898 q 137 868 165 898 q 93 802 109 838 q 66 728 77 766 q 65 726 66 727 q 58 708 62 708 q 56 721 57 708 l 55 741 q 117 974 55 831 l 120 982 q 152 1040 134 1017 q 212 1069 171 1064 l 346 1076 q 405 1056 379 1076 q 436 995 433 1033 l 438 697 q 444 -30 442 334 l 444 -74 q 431 -161 444 -121 l 431 -162 l 425 -180 q 401 -216 412 -216 q 397 -215 399 -216 q 389 -184 389 -209 l 390 -147 q 349 -87 390 -92 q 325 -85 339 -85 q 307 -90 315 -85 q 291 -108 298 -94 q 268 -188 275 -142 q 255 -244 262 -218 q 228 -305 248 -265 q 211 -330 216 -330 z "},"^":{"ha":689,"x_min":34,"x_max":587,"o":"m 98 454 q 91 467 96 454 q 75 583 75 511 l 75 629 l 77 664 q 74 690 77 677 q 60 713 71 704 q 34 768 34 736 q 60 822 34 798 l 279 997 q 322 1012 300 1012 q 370 993 348 1012 l 566 806 q 587 757 587 784 q 568 709 587 731 q 518 687 545 687 q 471 707 492 687 l 463 714 q 441 734 452 724 q 418 749 425 749 q 399 732 407 749 q 380 660 387 705 q 370 596 373 615 q 355 549 360 549 q 349 590 351 549 q 326 772 344 682 l 323 785 q 320 798 322 793 q 310 812 318 804 q 290 823 299 823 q 275 818 282 823 q 262 807 269 813 l 235 785 q 196 742 216 768 l 157 686 q 99 494 99 602 l 100 465 q 98 454 100 454 z "},"_":{"ha":817,"x_min":34,"x_max":715,"o":"m 124 -287 q 101 -252 111 -279 q 85 -197 89 -222 q 81 -144 81 -172 l 83 -85 q 68 -34 83 -48 q 47 -12 53 -20 q 37 12 41 -3 q 34 35 34 22 q 54 89 34 66 q 101 112 73 112 q 157 112 130 112 q 213 111 184 112 q 274 103 241 111 q 301 99 294 99 q 326 104 316 99 q 354 111 335 109 l 387 112 l 505 111 l 647 111 q 695 88 675 111 q 715 33 715 65 q 695 -21 715 1 q 647 -44 675 -44 l 626 -44 q 609 -47 615 -44 q 589 -62 602 -50 q 566 -71 576 -71 q 537 -63 551 -71 l 515 -54 q 494 -47 504 -50 q 471 -44 484 -44 l 407 -44 q 380 -56 388 -44 q 368 -85 372 -68 q 352 -178 355 -128 q 336 -222 350 -222 l 332 -221 q 295 -125 314 -210 l 289 -103 q 248 -44 274 -52 q 236 -43 245 -43 q 208 -49 219 -43 q 184 -66 196 -55 q 134 -134 153 -96 q 115 -215 115 -172 q 121 -269 115 -235 l 124 -287 z "},"`":{"ha":448,"x_min":34,"x_max":347,"o":"m 246 397 q 241 412 243 397 l 239 433 l 241 474 l 239 496 q 214 606 234 541 q 168 703 195 670 q 59 819 117 760 q 34 882 34 848 q 63 949 35 922 q 126 974 92 974 q 193 945 164 974 l 322 809 q 347 748 347 781 q 340 710 346 722 q 323 685 334 698 q 292 621 299 653 q 278 530 283 583 q 267 452 277 494 l 262 432 q 246 397 252 397 z "},"a":{"ha":749,"x_min":0,"x_max":710,"o":"m 557 -241 l 557 -241 q 545 -235 555 -241 q 481 -116 486 -191 l 479 -82 q 465 21 479 -33 q 444 125 450 72 l 429 111 q 411 93 418 100 q 397 75 404 85 q 380 47 391 65 q 348 -25 360 11 q 336 -102 336 -61 q 332 -113 335 -113 q 328 -110 330 -113 q 309 -51 316 -92 q 293 1 301 -10 q 281 6 288 6 q 262 0 272 6 q 239 -35 245 -12 q 231 -89 237 -49 q 220 -149 227 -119 q 196 -207 213 -178 q 194 -211 195 -209 q 192 -212 193 -212 l 189 -212 q 192 -157 192 -184 q 172 -71 192 -107 q 156 -51 165 -60 q 136 -42 146 -42 q 113 -60 123 -42 q 97 -79 102 -79 q 77 -12 88 -76 q 47 62 71 28 q 0 244 0 134 q 45 475 0 353 q 126 630 76 559 q 209 723 163 683 q 422 809 307 809 q 654 724 534 809 q 689 683 677 707 q 701 632 701 659 q 684 572 701 601 q 710 500 710 539 q 701 457 710 479 q 665 261 669 371 l 665 221 q 681 90 665 130 q 692 37 692 63 q 682 -33 692 2 q 662 -110 673 -71 q 639 -200 649 -155 q 632 -221 635 -221 q 629 -214 630 -221 q 625 -180 626 -201 q 614 -96 624 -123 q 589 -73 606 -74 l 576 -74 q 536 -106 551 -77 q 522 -159 522 -134 q 549 -229 524 -195 q 557 -241 557 -239 m 224 201 q 369 365 253 201 q 498 555 444 471 q 429 574 465 574 q 370 547 391 574 q 344 487 350 516 q 315 444 334 444 q 306 445 311 444 q 297 446 302 446 q 281 439 290 446 q 263 413 273 433 q 243 353 254 393 q 229 283 233 319 q 220 205 220 222 q 221 201 220 202 q 224 201 222 201 z "},"b":{"ha":727,"x_min":0,"x_max":674,"o":"m 397 -264 q 395 -250 395 -264 q 402 -197 395 -229 q 412 -113 412 -144 q 389 -41 412 -68 q 361 -28 375 -28 q 323 -50 340 -28 q 305 -96 307 -73 l 305 -115 q 297 -142 305 -142 q 280 -127 292 -142 q 253 -66 258 -93 q 236 -24 248 -46 q 222 -8 230 -14 q 203 1 215 -2 l 197 -5 q 166 -40 180 -21 q 150 -89 153 -59 q 147 -112 149 -101 q 138 -123 144 -123 q 118 -105 131 -123 q 94 -65 104 -88 l 86 -50 q 54 -12 75 -29 q 35 4 44 -5 q 17 33 26 14 q 7 71 9 51 q 0 287 0 180 q 64 947 0 610 q 104 1014 73 988 q 176 1039 136 1039 q 197 1037 186 1039 q 263 997 238 1028 q 289 926 289 966 q 287 905 289 916 q 250 672 264 790 q 347 696 298 696 l 370 695 q 513 629 448 686 q 620 489 578 572 q 674 269 674 381 q 659 163 674 214 q 634 105 650 138 q 618 52 623 78 q 574 -58 610 3 q 556 -77 563 -76 q 542 -28 544 -77 l 541 -20 q 528 0 536 0 q 507 -13 517 0 q 490 -36 496 -26 q 474 -81 480 -57 q 425 -203 462 -121 l 405 -250 q 397 -264 399 -264 m 366 197 q 430 213 408 197 q 448 271 448 227 q 440 329 448 300 q 416 378 432 359 q 408 382 411 382 q 392 367 399 382 q 383 342 388 357 q 358 288 365 290 q 345 334 349 291 l 345 340 q 341 376 341 362 q 344 404 341 391 q 348 439 347 423 q 338 463 348 463 q 323 449 333 463 q 273 332 287 395 q 252 222 262 288 l 321 202 q 366 197 341 197 z "},"c":{"ha":659,"x_min":0,"x_max":616,"o":"m 243 -168 q 241 -164 241 -168 q 251 -124 241 -154 q 266 -56 266 -80 q 250 -15 266 -32 q 237 -9 243 -9 q 212 -24 223 -9 q 190 -88 190 -55 q 191 -103 190 -96 q 191 -119 191 -111 q 190 -134 191 -127 q 189 -142 189 -142 q 185 -136 187 -142 q 180 -125 184 -130 q 157 -71 163 -96 q 145 -15 150 -47 q 131 37 140 17 q 101 79 122 57 q 85 98 92 88 q 20 221 40 155 q 0 356 0 288 q 58 597 0 484 q 151 726 95 673 q 295 803 214 787 q 340 807 317 807 q 566 669 471 807 q 585 606 585 638 q 572 553 585 578 q 534 511 559 528 q 505 497 519 501 q 474 491 491 492 q 448 478 456 490 q 434 450 439 466 q 410 399 422 423 q 381 361 391 361 q 375 376 375 361 q 379 416 375 392 q 382 452 382 439 q 377 493 382 466 q 363 544 372 519 q 341 576 354 568 q 335 577 338 577 q 297 551 320 577 q 260 496 274 526 q 225 354 225 427 q 261 239 225 285 q 302 212 283 212 q 339 228 318 212 q 397 298 375 260 l 405 310 q 433 339 414 323 q 467 362 452 356 q 503 369 485 369 q 560 353 532 369 q 602 311 588 336 q 616 257 616 286 q 603 202 616 230 q 586 150 590 174 q 582 100 583 125 q 559 -13 581 41 q 538 -54 550 -37 q 531 -60 534 -60 q 526 -56 528 -60 q 524 -47 525 -52 q 524 -39 524 -43 q 526 -14 524 -28 q 528 15 528 0 q 519 52 528 34 q 502 63 511 63 q 483 54 493 63 q 447 4 459 33 q 435 -56 435 -25 q 439 -91 435 -75 q 446 -132 446 -117 q 441 -145 446 -145 q 431 -140 437 -145 q 411 -115 421 -131 q 391 -83 401 -99 q 374 -56 382 -67 q 362 -41 367 -44 q 353 -37 357 -37 q 338 -45 345 -37 q 326 -63 331 -54 q 256 -154 317 -77 q 243 -168 246 -168 z "},"d":{"ha":724,"x_min":0,"x_max":675,"o":"m 175 -197 l 174 -196 l 177 -156 q 153 -60 177 -118 q 101 30 128 -1 q 83 48 92 39 q 64 60 73 60 q 50 47 56 60 q 43 19 43 35 q 68 -80 43 -18 q 74 -98 74 -95 l 73 -99 q 41 -52 67 -99 q 7 26 17 -11 q 0 89 0 55 q 2 135 0 110 q 5 183 5 161 q 3 223 5 201 q 1 269 1 245 q 44 467 1 372 l 54 489 q 161 629 96 572 q 305 695 226 686 l 327 696 q 424 672 376 696 q 387 905 410 790 q 385 926 385 916 q 411 997 385 966 q 478 1037 437 1028 q 499 1039 489 1039 q 570 1014 539 1039 q 610 947 601 988 q 666 519 650 736 q 675 290 675 406 q 654 28 675 67 q 631 -7 644 10 l 616 -30 q 588 -71 602 -54 q 554 -109 575 -88 q 522 -152 533 -130 q 517 -142 517 -147 q 532 -96 520 -118 q 543 -70 538 -84 q 548 -36 548 -56 q 543 -3 548 -24 q 511 49 530 49 l 507 48 q 479 14 496 44 l 475 8 q 457 -40 471 3 q 439 -91 447 -68 q 423 -149 431 -113 q 414 -173 418 -173 q 402 -126 410 -173 q 394 -81 399 -104 q 372 -39 386 -39 q 348 -68 361 -39 q 334 -90 342 -79 q 310 -113 326 -101 q 275 -131 287 -131 q 269 -122 269 -131 q 275 -97 269 -115 q 281 -72 281 -85 q 273 -48 281 -62 q 258 -32 267 -38 q 239 -26 248 -26 q 214 -46 224 -26 q 205 -102 206 -72 q 191 -175 204 -137 l 189 -178 q 178 -196 186 -188 l 175 -197 m 299 199 q 422 222 343 199 q 406 292 416 266 q 397 334 399 313 q 389 373 395 355 q 380 385 384 385 q 374 375 376 385 q 368 352 371 366 q 359 325 364 338 q 345 306 353 306 q 321 350 333 306 q 301 388 316 370 q 276 403 289 403 q 235 332 255 403 q 226 269 226 298 l 227 256 q 231 232 227 244 q 299 199 241 199 z "},"e":{"ha":709,"x_min":0,"x_max":658,"o":"m 330 -197 l 329 -193 q 332 -178 329 -185 q 342 -127 342 -149 q 319 -62 342 -94 q 267 -23 301 -31 q 236 -17 240 -17 q 208 -43 216 -17 q 202 -71 202 -58 q 209 -102 202 -87 q 223 -132 215 -117 l 234 -153 l 233 -152 l 233 -154 q 232 -156 233 -156 q 222 -149 230 -156 q 172 -91 185 -117 q 149 -26 158 -64 l 141 -1 q 127 34 136 16 q 92 73 109 73 q 69 59 80 73 q 53 35 58 45 q 39 -26 39 4 q 41 -61 39 -42 l 41 -69 q 40 -75 41 -75 q 33 -64 39 -75 l 31 -60 q 13 31 13 -21 q 22 119 13 75 q 26 168 26 144 q 19 215 26 191 q 0 343 0 278 q 18 476 0 410 q 182 743 64 641 q 239 783 211 767 q 377 821 311 821 q 446 811 413 821 q 554 741 511 791 q 609 625 597 691 q 613 580 613 603 q 600 497 613 535 q 559 418 587 460 q 454 342 520 368 q 347 311 406 323 q 323 308 335 308 q 227 362 264 308 l 227 345 q 248 254 227 295 q 263 232 255 242 q 321 198 292 198 l 326 198 q 380 224 349 199 q 448 309 414 253 q 491 350 465 336 q 545 363 517 363 q 604 347 576 363 q 658 250 658 309 q 648 189 658 233 q 637 114 640 154 l 637 106 q 633 65 636 79 q 623 54 630 54 q 602 70 616 54 q 579 87 587 87 q 566 71 572 87 q 560 27 560 53 q 531 -62 558 -42 q 528 -44 528 -53 q 525 -27 528 -36 q 513 -6 523 -18 q 478 12 498 12 q 465 9 472 12 q 449 2 457 6 q 431 -7 440 -3 q 400 -40 410 -17 q 387 -90 391 -63 q 376 -130 382 -112 q 330 -197 361 -170 m 290 530 l 300 532 q 369 551 343 541 l 372 552 l 375 551 q 377 553 376 551 q 379 556 378 555 q 387 580 387 570 q 387 586 387 583 q 385 591 387 589 q 380 594 382 593 q 376 595 378 594 q 350 585 368 595 q 328 570 338 578 l 328 570 q 290 530 308 553 z "},"f":{"ha":827,"x_min":0,"x_max":768,"o":"m 210 -659 q 192 -599 192 -633 q 199 -541 192 -570 q 207 -488 207 -513 q 203 -463 207 -475 q 192 -443 199 -451 q 177 -435 184 -435 q 159 -459 165 -435 l 158 -462 q 142 -508 152 -508 q 138 -505 141 -508 q 131 -485 136 -502 q 121 -449 125 -467 q 116 -425 116 -431 q 115 -411 115 -418 q 119 -364 115 -388 q 123 -317 123 -340 q 119 -250 123 -285 q 109 -111 113 -195 q 94 129 94 19 q 26 168 53 137 q 0 241 0 199 q 31 319 0 287 q 109 354 62 351 q 169 572 130 481 q 258 716 208 662 q 477 823 357 823 q 607 787 545 823 q 720 664 676 747 q 768 463 764 581 q 715 365 768 401 q 684 329 694 351 q 666 284 673 308 q 627 193 635 193 q 623 203 624 193 l 623 220 l 623 245 l 623 261 q 580 374 622 326 q 553 412 562 393 q 542 458 543 431 q 492 592 536 568 q 478 596 486 596 l 471 595 q 425 564 451 591 q 336 355 367 503 l 372 355 q 454 319 422 352 q 485 237 485 287 q 477 156 485 207 q 460 79 469 108 q 445 41 452 58 q 419 -41 428 7 q 416 -77 416 -60 l 416 -102 q 399 -23 399 -88 q 403 30 399 4 q 408 77 408 56 l 406 93 q 376 127 401 125 l 319 127 q 334 -88 322 19 q 339 -162 334 -96 q 349 -271 343 -229 q 360 -329 352 -296 q 374 -392 368 -361 q 379 -452 379 -422 q 340 -585 379 -516 q 323 -606 328 -606 q 321 -598 321 -606 q 332 -559 322 -588 q 341 -528 338 -541 q 344 -500 344 -515 q 326 -445 344 -463 q 317 -440 321 -440 q 304 -448 309 -440 q 294 -465 298 -456 l 256 -526 q 225 -574 239 -549 q 211 -629 212 -600 l 212 -647 q 210 -659 212 -654 z "},"g":{"ha":785,"x_min":0,"x_max":743,"o":"m 443 -681 q 449 -655 444 -670 q 459 -627 454 -641 q 482 -536 482 -570 q 465 -498 482 -509 q 452 -494 460 -494 q 428 -499 441 -494 q 361 -509 401 -506 q 332 -527 340 -511 q 319 -562 323 -543 l 314 -578 q 288 -645 307 -614 q 281 -651 283 -651 q 276 -647 277 -651 q 273 -637 274 -642 q 266 -615 273 -635 q 241 -584 255 -584 q 228 -596 233 -585 q 220 -618 223 -608 q 208 -642 215 -635 q 204 -644 205 -644 q 203 -636 203 -644 q 201 -595 201 -618 q 185 -520 197 -559 q 149 -454 172 -481 q 130 -444 139 -444 q 113 -456 122 -444 q 98 -502 102 -475 q 95 -555 95 -528 l 96 -598 q 90 -637 96 -628 q 79 -592 83 -623 l 74 -571 q 52 -419 56 -498 q 44 -348 49 -375 q 24 -279 39 -321 q 0 -134 0 -211 q 33 -54 0 -87 q 113 -20 66 -20 q 193 -54 159 -20 q 226 -134 226 -87 l 227 -153 q 268 -254 234 -220 q 337 -288 298 -280 l 361 -291 q 429 -255 399 -291 q 453 -224 441 -240 q 493 -136 480 -182 q 515 66 515 -52 q 513 129 514 129 l 507 121 q 360 37 447 55 q 324 -1 330 29 q 323 -15 323 -8 q 327 -43 323 -29 q 337 -71 332 -57 q 351 -117 348 -97 q 349 -121 351 -121 q 344 -117 347 -121 q 339 -110 341 -113 q 315 -80 336 -106 q 284 -41 298 -60 q 256 6 271 -22 q 227 52 240 38 q 199 75 214 66 q 156 114 182 86 q 81 349 81 203 q 130 576 81 465 q 251 742 172 675 q 444 815 340 815 q 627 758 533 815 q 667 715 653 741 q 681 661 681 690 q 678 638 681 650 q 715 553 715 602 l 715 524 q 725 361 715 463 q 726 346 726 355 q 738 202 733 274 q 743 59 743 131 q 730 -132 743 -36 q 724 -224 724 -175 q 723 -272 724 -238 l 723 -279 q 713 -382 723 -336 q 699 -421 709 -396 q 679 -470 690 -446 q 659 -503 668 -493 q 659 -499 659 -502 q 660 -487 659 -494 q 664 -472 662 -479 q 666 -463 665 -465 q 667 -459 666 -460 q 675 -397 675 -422 q 663 -362 675 -369 q 657 -361 660 -361 q 640 -370 649 -361 q 624 -389 631 -379 q 592 -421 616 -399 l 591 -422 q 570 -450 577 -435 q 558 -481 563 -465 q 452 -672 530 -571 q 443 -681 448 -677 m 334 259 l 336 262 q 350 284 337 269 q 490 575 416 353 q 446 585 466 585 q 395 567 416 585 q 337 484 360 537 q 307 366 311 427 l 307 342 q 313 287 307 310 q 333 259 319 264 l 334 259 z "},"h":{"ha":726,"x_min":0,"x_max":682,"o":"m 450 -291 q 442 -278 444 -288 l 440 -272 q 430 -75 430 -231 q 427 -21 430 -37 q 419 14 425 -5 l 414 34 q 410 64 410 50 q 421 113 410 89 q 447 185 436 144 q 457 264 457 226 q 453 305 457 286 q 433 341 448 328 q 424 353 429 346 q 412 391 418 361 q 401 437 408 414 q 377 475 393 460 l 374 477 l 334 431 q 291 330 309 399 q 246 73 257 204 q 222 6 241 35 q 205 -29 213 -10 l 185 -79 l 155 -155 q 121 -243 133 -202 q 115 -260 119 -252 q 110 -252 111 -256 q 109 -244 109 -248 q 109 -238 109 -241 l 109 -224 q 113 -170 109 -197 q 117 -114 117 -142 l 117 -104 q 77 -20 114 -44 q 60 -13 68 -13 q 43 -23 51 -13 q 25 -93 25 -46 q 28 -135 25 -115 l 28 -142 l 28 -146 q 12 -109 24 -146 l 11 -104 q 0 -21 0 -60 q 9 68 0 21 q 16 132 16 103 l 15 167 q 12 288 12 222 q 77 947 12 610 q 117 1014 85 988 q 188 1039 148 1039 q 209 1037 198 1039 q 276 997 250 1028 q 301 926 301 966 q 299 905 301 916 q 264 682 278 794 q 370 711 317 711 q 454 694 412 711 q 608 553 547 656 q 664 417 646 490 q 682 269 682 344 q 645 60 682 161 q 629 -8 633 26 q 618 -59 625 -33 q 600 -116 609 -88 q 568 -243 576 -176 q 565 -255 567 -255 q 558 -228 562 -255 q 555 -189 555 -210 q 556 -153 555 -171 q 557 -111 557 -135 q 556 -86 557 -98 q 550 -65 554 -75 q 537 -56 545 -56 q 522 -64 531 -56 q 473 -155 490 -94 q 450 -291 454 -222 z "},"i":{"ha":294,"x_min":0,"x_max":247,"o":"m 242 720 q 224 733 235 720 q 210 756 218 742 q 193 783 202 770 q 170 801 181 801 q 151 796 161 801 q 115 790 136 790 q 31 826 64 790 q 0 903 0 858 l 1 929 q 37 1005 5 975 q 114 1036 69 1036 l 120 1036 q 192 1005 165 1032 q 228 934 219 978 q 236 844 236 890 l 236 810 q 242 766 236 785 q 247 732 245 749 q 242 720 247 720 m 95 -240 l 94 -238 l 96 -220 l 97 -199 q 92 -160 97 -176 q 80 -125 87 -143 q 52 -30 60 -78 q 43 12 48 -5 q 29 52 37 28 q 21 88 22 70 q 6 532 6 331 q 8 666 6 600 q 43 745 11 713 q 122 776 76 776 q 162 767 150 776 q 186 741 175 758 q 219 701 204 715 q 231 687 224 695 q 238 671 238 680 q 236 658 238 665 q 234 643 235 651 q 233 563 233 614 q 247 99 233 342 q 240 55 247 71 q 225 27 234 40 q 189 -76 203 -5 q 176 -130 184 -103 l 171 -147 q 153 -182 159 -182 q 150 -178 151 -182 q 149 -160 149 -174 q 149 -143 149 -147 q 137 -90 148 -115 q 120 -75 130 -75 q 109 -115 109 -75 l 109 -146 q 106 -192 109 -165 q 95 -240 101 -229 z "},"j":{"ha":740,"x_min":0,"x_max":686,"o":"m 450 711 q 439 739 439 711 q 435 779 439 749 q 432 819 432 801 q 439 860 432 840 q 566 975 477 975 q 649 939 616 974 q 679 861 679 906 q 679 848 679 852 q 677 836 678 844 q 642 759 674 789 q 564 728 610 728 q 520 738 538 729 q 492 745 505 745 q 480 741 484 745 q 472 730 475 736 q 463 718 468 724 q 450 711 458 713 m 389 -713 q 388 -705 389 -713 q 389 -689 388 -699 q 390 -671 389 -679 l 391 -661 q 385 -595 391 -627 q 305 -496 367 -505 q 280 -493 293 -495 l 276 -493 q 251 -506 260 -493 q 234 -532 241 -518 q 218 -553 225 -553 q 203 -530 212 -553 q 174 -471 185 -490 q 134 -424 159 -446 q 109 -410 121 -410 q 92 -420 101 -410 q 65 -474 74 -440 q 55 -536 56 -509 q 52 -549 54 -549 q 48 -543 50 -549 q 38 -458 38 -509 l 39 -387 q 29 -290 39 -337 q 15 -239 25 -267 q 0 -174 0 -196 q 23 -106 0 -137 q 84 -65 45 -76 q 113 -61 99 -61 q 182 -84 151 -61 q 223 -145 212 -106 q 279 -250 243 -218 q 320 -269 300 -269 l 323 -269 q 407 -223 377 -262 q 447 -119 436 -183 q 458 21 458 -55 q 454 138 458 78 l 445 269 q 434 468 434 402 q 446 600 434 541 q 487 664 456 640 q 556 688 517 688 q 581 685 568 688 q 645 645 621 675 q 669 575 669 614 q 667 550 669 563 q 661 471 661 519 q 671 275 661 389 l 673 250 q 686 7 686 99 q 672 -170 686 -83 q 621 -328 659 -256 q 598 -391 604 -360 q 590 -451 592 -421 q 576 -535 587 -491 l 576 -538 q 554 -590 559 -590 q 552 -581 552 -590 l 553 -547 q 549 -502 553 -524 q 530 -460 545 -479 q 510 -448 520 -448 q 489 -456 498 -448 q 471 -464 481 -460 q 450 -478 456 -470 q 439 -502 443 -487 q 429 -566 432 -533 q 420 -628 427 -599 q 395 -706 409 -681 q 392 -710 393 -708 q 389 -713 391 -713 z "},"k":{"ha":630,"x_min":0,"x_max":578,"o":"m 223 -262 q 222 -260 222 -262 q 220 -228 220 -251 l 220 -214 q 214 -135 220 -176 q 166 -38 201 -54 q 157 -37 161 -37 q 130 -52 141 -37 q 109 -141 109 -84 q 107 -170 109 -155 q 105 -178 107 -175 q 102 -181 104 -181 q 100 -176 101 -181 l 98 -173 q 82 -133 90 -158 q 56 -52 75 -114 q 28 13 45 -18 q 17 38 21 26 q 12 65 13 50 q 0 372 0 229 q 5 534 0 455 q 81 983 18 747 q 122 1044 92 1021 q 190 1067 152 1067 q 219 1063 204 1067 q 280 1021 258 1052 q 303 953 303 991 q 299 924 303 939 q 257 738 273 827 q 386 801 321 786 q 413 804 399 804 q 462 792 439 804 q 501 759 485 781 q 534 705 517 736 q 557 645 550 673 q 564 585 564 617 q 559 541 564 562 q 557 545 558 542 q 555 552 556 548 q 554 560 555 557 q 554 564 554 563 q 548 588 553 574 q 535 614 543 603 q 515 627 528 626 q 504 623 509 627 q 495 613 499 618 q 486 605 490 608 q 439 581 465 587 q 350 507 396 572 q 559 243 515 435 q 578 111 574 177 l 578 102 q 570 56 578 80 q 562 20 565 40 q 558 -22 559 4 q 553 -83 556 -53 q 530 -134 546 -134 q 507 -112 518 -134 l 497 -87 q 479 -45 490 -65 q 450 -16 469 -25 q 443 -15 446 -15 q 430 -20 435 -15 q 420 -33 425 -26 q 397 -121 397 -70 q 399 -144 397 -133 l 403 -170 q 410 -232 410 -219 q 408 -240 410 -239 q 399 -224 406 -240 q 389 -198 395 -210 q 368 -136 376 -166 q 357 -67 359 -105 l 353 64 q 345 161 351 113 q 269 294 331 260 q 250 195 259 252 q 241 94 241 138 q 245 28 243 61 q 251 -89 251 -31 q 242 -195 251 -142 l 236 -224 q 223 -262 229 -262 z "},"l":{"ha":438,"x_min":0,"x_max":402,"o":"m 167 -380 q 180 -329 173 -353 q 193 -279 187 -304 q 198 -228 198 -254 q 192 -177 198 -204 q 175 -114 186 -149 q 144 -58 164 -78 q 130 -52 137 -52 q 110 -63 119 -52 q 81 -142 91 -90 q 71 -178 75 -172 q 68 -182 71 -180 q 66 -173 66 -182 l 65 -170 q 60 -73 60 -139 l 61 2 q 57 53 61 30 q 43 112 54 76 q 24 184 32 147 q 0 466 0 308 q 50 957 0 698 q 90 1022 59 998 q 161 1047 121 1047 q 183 1045 172 1047 q 249 1005 224 1036 q 274 935 274 975 q 272 912 274 924 q 225 465 225 673 q 245 229 225 332 q 279 131 258 165 l 279 129 q 278 126 279 127 l 277 125 l 290 126 q 360 101 330 126 q 400 36 391 77 q 402 14 402 24 q 395 -37 402 -12 q 382 -117 388 -66 l 376 -157 q 357 -224 371 -198 q 351 -212 352 -221 q 318 -116 343 -146 q 294 -102 306 -102 q 281 -108 286 -102 q 250 -191 260 -129 q 241 -234 246 -214 q 214 -303 231 -265 q 178 -368 196 -341 l 175 -374 q 167 -380 172 -378 z "},"m":{"ha":983,"x_min":0,"x_max":935,"o":"m 690 -155 q 677 -140 686 -155 q 669 -123 671 -128 q 616 9 625 -41 l 614 27 q 625 90 614 59 q 677 195 639 149 q 706 251 699 221 q 713 311 713 280 q 711 350 712 345 q 701 391 707 391 l 701 391 q 684 346 694 386 q 673 315 675 318 l 671 315 q 669 326 669 315 q 665 379 666 352 l 662 419 q 656 520 658 469 q 655 547 656 534 q 648 573 654 560 q 622 510 629 538 q 612 445 616 481 q 604 407 610 420 l 598 391 l 600 322 q 594 245 600 288 q 569 174 588 202 q 542 148 557 160 q 507 113 524 134 q 471 41 481 77 q 455 -35 461 5 l 451 -59 q 446 -83 449 -72 q 437 -52 437 -69 l 435 -43 q 428 29 431 -7 q 421 100 425 64 q 410 141 418 127 q 394 165 402 156 q 378 186 385 175 q 368 216 372 197 q 364 241 364 229 q 367 264 364 252 q 374 343 374 302 q 373 380 374 362 q 370 407 370 394 q 321 572 358 503 q 233 89 262 456 l 232 89 q 218 43 229 60 q 193 11 208 26 q 167 -20 180 -1 q 138 -68 146 -48 q 124 -115 130 -89 q 112 -152 115 -152 q 106 -132 109 -152 l 106 -123 q 75 -29 96 -29 q 62 -40 69 -29 q 41 -103 46 -68 q 31 -133 35 -133 q 26 -120 28 -133 q 18 -39 20 -82 q 12 28 16 -9 q 6 109 7 68 q 0 412 0 260 q 11 727 1 576 q 47 802 15 772 q 123 832 79 832 q 210 793 178 830 q 313 829 259 829 q 366 821 339 829 q 486 732 435 800 q 541 788 513 768 q 648 825 596 825 q 781 766 718 825 q 892 586 850 702 q 935 335 935 467 q 886 106 935 203 q 864 47 870 75 q 856 -9 859 20 q 846 -75 852 -48 q 840 -92 843 -89 l 837 -93 q 835 -92 836 -93 q 834 -89 834 -91 q 833 -86 833 -87 q 827 -66 829 -76 q 819 -45 824 -57 q 783 -1 801 -1 q 755 -45 767 -1 l 753 -55 q 743 -90 749 -81 l 739 -93 q 734 -86 736 -93 q 730 -77 732 -84 q 690 -16 705 -16 q 683 -21 686 -16 q 678 -44 678 -30 q 685 -96 678 -66 q 692 -145 692 -125 q 690 -155 692 -155 z "},"n":{"ha":752,"x_min":0,"x_max":705,"o":"m 551 -244 q 547 -241 549 -244 q 543 -237 545 -238 q 484 -149 510 -195 q 461 -96 466 -119 q 457 -47 457 -73 q 451 20 457 -2 q 441 45 448 31 l 436 57 q 427 103 427 80 q 435 148 427 125 q 479 358 479 252 q 471 440 479 399 q 467 456 469 449 q 459 463 464 463 q 446 450 454 463 q 429 399 433 427 q 420 366 425 381 q 416 360 418 360 q 413 369 414 360 q 411 378 411 378 q 402 536 402 458 l 402 562 q 391 590 401 585 q 381 583 389 590 q 359 557 366 567 q 289 387 313 488 q 256 203 264 286 q 254 174 254 189 q 256 132 254 153 q 257 89 257 111 l 256 64 q 253 37 256 57 q 247 -2 250 17 q 241 -23 243 -20 q 236 -26 239 -26 q 214 -2 229 -26 l 208 8 q 199 15 203 15 q 172 -47 184 15 q 162 -152 163 -87 q 159 -165 162 -160 q 128 -83 138 -127 q 110 -25 121 -53 q 79 23 99 2 q 64 30 71 30 q 44 13 52 30 q 36 -17 37 -4 l 35 -33 q 41 -75 35 -55 q 55 -116 47 -95 q 60 -135 60 -131 q 60 -136 60 -136 q 43 -117 55 -136 q 0 34 0 -48 q 10 137 0 76 q 16 209 16 163 q 13 420 13 315 q 24 719 13 576 q 62 793 29 764 q 138 823 94 823 l 147 823 q 239 760 212 814 l 240 760 q 392 819 315 819 q 476 802 435 819 q 630 661 570 764 q 705 357 705 530 q 669 126 705 238 q 660 90 662 106 q 656 56 657 73 q 626 -40 652 -5 q 600 -105 607 -67 q 597 -124 600 -110 q 589 -150 594 -150 q 583 -142 586 -150 q 574 -93 574 -119 q 576 -64 574 -78 l 577 -62 q 582 -27 582 -40 q 572 -8 582 -8 q 536 -38 557 -11 q 510 -108 510 -71 q 517 -150 510 -130 q 534 -192 524 -170 l 543 -214 q 544 -217 543 -215 q 547 -223 545 -219 q 551 -234 549 -228 q 553 -241 553 -239 q 551 -244 552 -244 z "},"o":{"ha":659,"x_min":0,"x_max":620,"o":"m 322 207 q 355 242 330 207 q 393 335 384 283 q 452 414 405 389 q 431 429 438 422 q 414 447 423 436 q 395 463 405 458 q 384 468 391 464 q 377 470 380 470 q 348 454 367 470 q 329 441 334 441 q 321 456 323 441 l 321 480 q 317 519 321 499 q 298 539 313 539 q 274 520 286 538 q 240 395 240 467 q 267 272 240 332 q 279 247 271 262 q 300 219 288 232 q 322 207 311 207 m 206 -142 q 204 -136 205 -142 q 206 -95 204 -114 q 208 -62 208 -77 q 196 -8 208 -39 q 165 34 185 22 q 157 35 160 35 q 142 24 146 35 q 137 -21 139 12 q 131 -66 134 -60 q 126 -69 129 -69 q 119 -62 121 -69 q 115 -20 116 -51 q 113 7 114 -3 q 101 62 111 24 q 79 136 92 101 q 50 177 65 171 l 48 177 q 40 163 40 177 q 53 90 40 140 q 60 56 60 65 q 33 106 53 59 q 8 165 18 139 q 0 233 0 197 q 1 281 0 258 l 2 290 q 8 344 4 317 q 14 407 12 374 q 31 525 17 469 q 79 634 45 580 q 175 739 117 696 q 300 794 235 782 q 351 800 319 800 q 439 784 395 800 q 555 696 507 760 q 619 528 604 633 l 620 513 q 559 412 620 448 q 617 314 617 376 q 604 250 617 292 l 596 218 q 586 119 586 179 l 587 28 q 578 -58 587 -35 q 574 -56 575 -58 q 573 -51 574 -54 q 565 -7 573 -45 q 525 72 547 72 q 504 51 515 72 q 469 -33 485 11 l 456 -68 q 438 -101 446 -92 q 434 -82 434 -98 q 432 -50 434 -66 q 407 -5 427 -5 q 384 -17 397 -5 q 360 -53 369 -32 q 346 -96 352 -74 q 331 -130 336 -130 q 326 -126 328 -130 q 322 -116 324 -121 q 319 -105 321 -115 q 304 -66 313 -87 q 281 -45 295 -45 q 258 -61 271 -45 q 238 -96 250 -73 l 222 -123 q 206 -142 213 -139 z "},"p":{"ha":767,"x_min":0,"x_max":726,"o":"m 19 -549 q 12 -532 16 -549 q 0 -425 0 -488 q 18 -267 0 -344 q 29 -233 23 -249 q 37 -213 33 -224 q 41 -177 41 -197 q 39 -131 41 -151 q 37 -1 37 -77 q 41 130 37 106 q 102 527 50 353 q 406 831 190 813 q 429 831 414 831 q 577 783 510 829 q 684 658 644 736 q 726 489 723 582 l 726 480 q 684 303 726 393 q 671 279 676 288 q 661 260 664 267 q 654 208 656 248 q 631 45 654 106 q 622 31 625 31 q 616 37 618 31 q 612 51 614 43 q 607 66 610 59 q 599 73 604 73 q 583 54 593 73 q 566 5 570 27 q 555 -27 560 -27 q 547 -16 551 -27 q 533 36 540 2 l 524 71 q 507 100 516 100 q 481 45 494 100 q 473 12 473 14 l 448 -86 q 432 -153 446 -100 q 422 -177 425 -177 q 421 -174 421 -177 q 420 -168 421 -171 q 418 -89 418 -150 q 401 26 418 -12 q 381 44 391 44 q 361 29 372 44 q 336 -47 345 3 q 327 -126 327 -96 q 326 -141 327 -133 q 320 -138 321 -140 q 317 -132 318 -136 q 298 -75 306 -111 q 285 -27 293 -50 q 263 9 277 -4 q 269 -165 263 -96 q 271 -221 271 -193 q 273 -261 271 -241 q 265 -313 273 -294 q 256 -397 256 -342 l 257 -414 q 249 -489 257 -452 q 243 -500 245 -500 q 235 -485 239 -500 q 221 -450 230 -470 q 176 -410 202 -410 l 170 -410 q 109 -468 153 -414 q 85 -510 94 -488 l 81 -521 q 75 -535 75 -535 q 72 -530 73 -535 q 70 -509 70 -522 q 81 -443 70 -481 q 92 -381 92 -414 q 74 -351 87 -351 q 52 -370 64 -351 q 20 -538 20 -428 q 19 -549 20 -549 m 278 260 q 412 326 362 288 q 500 481 500 393 q 483 555 500 522 q 428 606 458 602 l 421 605 q 318 459 361 599 q 278 260 290 372 z "},"q":{"ha":731,"x_min":0,"x_max":689,"o":"m 645 -618 q 641 -617 642 -618 q 640 -614 640 -616 q 639 -608 640 -612 q 629 -550 633 -583 q 617 -484 625 -517 q 597 -427 610 -451 q 574 -408 586 -408 q 562 -413 568 -408 q 455 -536 508 -456 l 442 -557 q 425 -585 427 -583 l 424 -587 q 420 -590 421 -590 q 420 -587 420 -590 q 445 -496 425 -540 l 461 -452 q 475 -412 469 -433 q 481 -370 481 -390 q 472 -334 481 -351 q 458 -303 463 -317 q 454 -269 454 -289 l 454 -261 q 463 -43 463 -137 l 463 18 q 435 0 447 13 q 412 -28 422 -14 q 387 -58 397 -50 q 380 -62 383 -62 q 372 -35 374 -62 q 368 -1 372 -17 q 348 16 363 16 q 323 3 334 16 q 305 -26 313 -10 q 294 -45 300 -37 q 288 -51 290 -51 q 282 -36 284 -51 q 278 0 280 -22 q 273 28 277 7 q 245 79 260 79 q 228 56 234 77 q 215 -32 218 22 q 210 -60 214 -60 q 204 -50 208 -60 q 186 31 193 -12 q 157 139 175 96 q 106 201 132 201 q 97 199 102 201 q 59 124 68 177 q 48 34 49 71 l 45 -14 q 39 -110 39 -62 q 48 -192 39 -157 q 56 -220 56 -218 l 55 -221 q 33 -143 39 -184 q 28 -74 28 -109 l 29 1 l 28 129 l 28 220 q 26 283 28 252 q 13 376 24 322 q 4 426 7 402 q 0 479 0 450 q 42 657 1 578 q 150 783 83 736 q 297 831 216 829 q 321 831 313 831 q 625 527 537 812 q 686 130 677 353 q 687 113 687 121 l 688 81 q 689 -21 689 56 q 680 -277 689 -154 q 673 -323 677 -300 q 665 -388 668 -355 q 645 -618 652 -583 m 448 260 q 408 459 436 372 q 305 605 366 599 l 298 606 q 243 555 269 602 q 226 481 227 522 q 244 406 226 444 q 448 260 290 312 z "},"r":{"ha":718,"x_min":0,"x_max":675,"o":"m 36 -262 q 9 -200 19 -235 q 0 -134 0 -164 q 3 -75 0 -101 q 11 -18 6 -48 q 19 89 19 35 l 18 139 q 14 391 14 262 q 26 720 14 561 q 62 796 30 766 q 139 825 94 825 l 146 825 q 245 749 220 816 q 406 807 321 807 q 500 788 455 807 q 653 642 596 746 q 671 561 670 604 l 673 541 q 675 503 675 524 q 663 458 675 464 l 657 457 q 631 469 645 457 q 598 482 610 482 q 583 479 589 481 q 569 476 576 477 q 540 448 549 470 q 528 404 531 425 q 507 326 519 365 q 477 256 497 294 q 468 243 470 243 q 467 246 467 243 q 472 275 467 254 q 484 372 484 329 q 480 433 484 399 q 462 509 475 468 q 420 573 448 551 q 404 580 411 580 q 373 561 391 580 q 354 536 363 549 q 280 343 303 456 q 251 117 254 216 q 256 45 251 83 q 261 -57 261 -13 q 254 -134 261 -98 q 251 -141 253 -141 q 239 -95 246 -141 q 233 -72 237 -84 q 212 -44 224 -44 q 172 -115 197 -44 q 153 -176 159 -151 l 151 -180 q 142 -203 149 -197 q 128 -143 133 -182 q 118 -90 124 -115 q 100 -58 112 -66 q 91 -55 95 -55 q 50 -99 70 -55 q 30 -183 30 -142 q 35 -235 30 -208 l 37 -256 l 36 -262 z "},"s":{"ha":621,"x_min":0,"x_max":584,"o":"m 427 -185 q 417 -153 423 -178 q 400 -98 410 -122 q 337 -44 377 -44 q 307 -47 322 -45 q 276 -68 286 -50 q 262 -103 267 -85 q 256 -120 259 -113 q 250 -126 254 -126 q 225 -98 243 -126 q 212 -79 218 -87 q 156 -31 180 -31 q 134 -45 144 -31 l 128 -54 q 106 -81 112 -81 q 96 -69 100 -79 q 89 -46 92 -59 q 79 -17 85 -30 q 63 -3 73 -3 q 43 -14 55 -3 q 18 -52 26 -32 q 5 -72 9 -72 q 3 -67 4 -72 l 3 -66 q 0 -40 0 -56 q 7 35 0 -9 q 11 83 11 62 q 4 146 11 112 q 1 184 1 165 q 16 279 1 232 q 57 339 27 317 q 124 361 87 361 q 155 357 140 361 q 215 316 193 346 q 237 248 237 286 q 233 218 237 233 q 231 204 231 210 q 246 182 231 186 q 277 178 261 178 q 303 181 288 178 l 308 182 q 342 198 331 187 q 345 205 345 201 q 282 291 345 229 q 195 366 234 338 l 191 370 q 106 448 140 407 q 49 587 56 516 l 47 610 q 67 703 47 659 q 139 793 91 755 q 285 848 198 838 q 321 850 303 850 q 472 806 406 848 q 535 741 514 777 q 570 658 555 705 q 584 583 584 617 q 567 490 584 548 q 557 440 559 464 q 543 388 550 388 q 536 395 539 388 q 531 446 531 411 l 532 502 q 529 525 532 514 q 516 536 527 536 q 503 533 511 536 q 477 523 489 526 q 449 519 465 519 q 372 551 404 520 q 337 621 342 579 q 315 624 332 623 q 277 613 286 622 q 275 612 276 612 q 274 610 275 612 q 287 586 275 600 q 335 544 299 571 l 337 543 q 441 452 383 507 q 461 431 454 439 q 485 395 472 420 q 505 361 498 370 q 520 344 512 353 l 532 331 q 561 277 551 309 q 572 217 570 245 q 574 155 574 196 q 573 84 574 121 q 570 20 572 47 q 566 -6 568 -6 q 561 9 563 -3 q 555 32 559 22 q 545 45 552 42 q 535 50 540 47 q 526 52 531 52 q 492 28 517 52 l 480 18 q 462 -4 467 7 q 454 -32 457 -16 q 444 -106 447 -62 q 437 -157 441 -133 q 427 -185 435 -173 z "},"t":{"ha":596,"x_min":0,"x_max":564,"o":"m 320 -257 q 289 -229 315 -257 l 287 -227 q 241 -113 247 -177 q 227 -28 237 -66 q 194 53 218 11 q 159 146 171 96 q 139 355 139 227 q 101 359 114 355 q 73 371 89 363 q 61 374 66 374 q 37 355 45 374 q 26 312 29 336 q 23 273 23 288 q 24 246 23 259 l 26 218 l 26 214 q 7 276 12 236 q 0 357 0 319 q 62 559 0 510 q 131 583 93 583 l 155 583 q 224 999 181 789 q 265 1064 234 1040 q 336 1089 296 1089 q 358 1087 347 1089 q 424 1047 399 1078 q 448 977 448 1016 q 446 954 448 966 q 382 583 408 766 l 451 583 q 531 549 498 583 q 564 469 564 516 q 519 378 564 413 q 489 346 498 359 q 467 309 479 332 q 437 278 450 278 q 420 290 428 278 q 406 317 412 302 q 375 355 390 352 q 365 355 371 355 l 365 349 q 396 189 365 189 q 410 192 404 190 q 435 195 419 195 q 543 117 509 195 q 548 80 548 98 q 517 4 548 39 q 486 -41 496 -21 q 466 -88 476 -62 q 448 -134 459 -107 q 414 -203 424 -190 q 412 -205 413 -204 q 410 -206 411 -206 q 409 -197 409 -201 q 411 -165 409 -186 q 412 -134 412 -145 q 409 -96 412 -115 q 366 -45 401 -47 l 338 -44 q 314 -54 322 -44 q 301 -77 306 -64 q 284 -152 284 -114 q 296 -205 287 -185 q 312 -238 302 -220 q 321 -256 321 -253 q 320 -257 321 -257 z "},"u":{"ha":702,"x_min":0,"x_max":647,"o":"m 199 -336 q 188 -310 195 -336 q 169 -176 172 -260 l 166 -115 q 149 -11 166 -64 q 119 31 140 14 q 100 39 109 39 q 77 24 86 39 q 52 -66 60 -5 q 52 -68 52 -66 q 47 -83 49 -83 q 44 -79 45 -83 q 43 -70 43 -75 q 41 -61 42 -65 q 37 43 37 -12 q 33 138 37 94 q 16 227 26 184 q 14 237 16 232 q 0 381 0 308 q 79 740 0 566 q 123 792 94 774 q 184 810 153 810 q 232 800 208 810 q 280 757 263 785 q 298 696 298 729 q 288 650 298 673 q 225 381 225 512 q 253 230 225 291 q 263 208 256 221 q 344 363 304 247 q 416 691 384 480 q 452 758 422 732 q 528 787 484 787 q 606 756 574 787 q 641 679 638 726 q 647 380 647 532 q 641 140 647 259 q 640 89 640 115 q 635 -1 639 44 l 628 -85 q 609 -195 618 -176 q 607 -197 608 -197 q 606 -193 606 -197 q 606 -167 606 -184 q 584 -26 606 -60 q 566 -16 575 -16 q 552 -18 559 -16 q 536 -21 545 -20 q 516 -22 528 -22 q 420 44 450 -16 q 391 -15 399 20 q 379 -82 382 -49 q 367 -184 375 -103 l 358 -262 q 353 -277 356 -277 q 349 -267 351 -277 q 340 -210 344 -240 q 335 -169 338 -189 q 334 -163 334 -166 q 325 -111 332 -142 q 306 -55 319 -80 q 271 -29 293 -29 q 252 -35 262 -29 q 237 -50 242 -40 q 229 -69 232 -59 l 227 -74 q 198 -245 203 -157 l 197 -270 q 199 -328 197 -291 q 199 -336 199 -336 z "},"v":{"ha":663,"x_min":0,"x_max":623,"o":"m 355 -204 l 353 -197 q 355 -189 353 -193 q 366 -113 366 -142 q 351 -39 366 -79 q 339 -10 347 -24 q 315 5 331 5 q 295 2 305 4 l 282 0 q 236 -34 256 -5 q 208 -87 216 -62 q 193 -142 198 -115 q 180 -187 185 -178 q 172 -140 172 -165 l 170 -129 l 167 -64 l 165 -22 q 150 36 163 12 q 127 53 142 52 q 93 -19 104 53 q 88 -33 90 -33 q 74 35 83 -33 q 66 104 66 96 q 36 240 56 173 q 0 507 0 370 q 22 721 0 617 q 62 786 31 762 q 132 810 93 810 q 156 808 144 810 q 221 767 197 798 q 246 696 246 736 q 243 673 246 685 q 226 503 226 586 q 273 251 226 352 q 374 547 319 317 q 397 708 395 633 q 433 786 400 755 q 511 817 465 817 q 593 781 559 816 q 623 703 623 749 l 623 699 q 595 496 618 595 q 560 367 578 431 q 539 233 543 305 q 505 1 530 117 q 498 -14 500 -14 q 495 10 496 -14 l 495 24 q 494 64 495 40 q 473 131 491 131 q 458 122 467 131 q 417 41 428 89 q 404 -54 407 -6 l 399 -91 q 357 -201 391 -151 l 355 -204 z "},"w":{"ha":856,"x_min":0,"x_max":811,"o":"m 601 -271 l 600 -271 q 597 -261 597 -271 q 589 -219 593 -249 l 583 -189 q 555 -95 574 -142 q 498 -16 536 -47 q 465 7 480 -2 l 441 23 q 393 68 413 42 l 374 47 q 354 24 363 37 q 318 -77 332 -5 q 304 -130 312 -104 l 304 -133 q 289 -164 298 -157 q 284 -130 286 -149 l 281 -108 q 249 -21 273 -47 q 235 -14 241 -14 q 213 -30 222 -14 q 199 -56 204 -45 l 191 -75 q 172 -110 177 -110 q 168 -106 170 -110 q 163 -90 166 -103 q 157 -61 161 -77 q 152 -37 154 -45 q 133 14 144 -7 q 102 55 122 35 q 81 66 90 66 q 64 53 70 66 q 56 24 58 41 q 54 -5 54 8 q 59 -56 55 -32 q 63 -102 62 -78 q 62 -109 63 -109 q 56 -102 60 -109 q 45 -71 47 -83 l 43 -68 q 14 42 20 -7 q 1 210 1 123 l 2 294 q 1 376 2 336 l 0 419 q 35 729 0 576 q 75 793 45 769 q 144 817 106 817 q 170 814 157 817 q 234 773 210 804 q 258 703 258 742 q 256 678 258 691 q 231 521 239 607 q 227 420 227 469 q 231 333 227 366 q 243 261 235 299 q 282 453 272 337 q 287 557 287 507 q 322 635 289 604 q 403 667 355 667 q 481 631 450 664 q 513 553 513 599 l 512 517 q 545 269 513 385 q 547 254 547 261 l 547 247 l 547 249 q 583 383 574 299 q 585 429 585 406 q 545 650 585 537 q 538 688 538 669 q 558 753 538 724 q 612 795 578 782 q 650 802 631 802 q 715 782 686 802 q 758 726 744 762 q 811 428 811 576 q 798 290 811 351 q 779 217 791 256 q 758 115 765 167 l 747 56 q 689 -141 728 -46 q 680 -155 682 -155 q 680 -153 680 -155 q 682 -127 680 -147 l 684 -111 q 692 -24 692 -68 q 683 28 692 7 q 670 37 677 37 q 643 24 659 37 l 626 14 q 608 -6 612 6 q 604 -33 604 -18 q 606 -101 604 -75 q 607 -163 607 -128 l 606 -224 q 601 -271 605 -267 z "},"x":{"ha":921,"x_min":0,"x_max":885,"o":"m 298 -230 l 295 -230 q 294 -188 294 -208 l 293 -167 q 264 -17 291 -57 q 250 -9 258 -9 q 214 -46 233 -9 q 184 -153 194 -86 q 173 -200 177 -194 l 172 -202 q 167 -185 168 -193 q 165 -167 165 -178 q 157 -83 160 -125 q 149 1 153 -41 q 140 38 147 18 q 117 67 133 58 q 108 70 112 70 q 96 66 101 70 q 85 56 90 62 q 63 11 71 39 q 55 -42 55 -18 q 59 -75 56 -58 q 63 -108 63 -96 l 63 -110 q 48 -89 56 -105 q 36 -56 41 -73 q 28 -28 31 -38 q 25 20 25 -6 q 27 76 25 47 q 28 132 28 104 q 25 204 28 174 q 11 275 22 235 q 0 338 0 315 q 25 409 0 378 q 92 448 50 439 q 114 450 102 450 q 184 425 153 450 q 224 359 216 400 q 282 224 250 244 l 283 224 q 314 306 308 248 q 313 339 313 322 l 314 374 q 250 566 301 511 q 219 501 245 528 q 153 469 193 475 l 138 468 q 65 495 96 468 q 26 566 33 522 q 23 604 23 586 q 46 707 23 663 q 108 779 68 751 q 222 814 159 814 q 345 778 285 813 q 430 701 389 751 q 530 785 477 757 q 656 819 591 819 q 770 787 718 819 q 837 716 812 760 q 861 613 861 672 q 859 574 861 594 q 821 504 852 531 q 747 476 789 476 l 732 477 q 663 513 690 484 q 633 584 636 543 q 576 514 602 565 q 541 374 550 463 l 543 340 l 541 309 q 574 233 549 254 q 585 227 581 229 q 592 229 589 227 q 661 368 633 245 q 701 434 669 408 q 772 459 732 459 q 793 457 783 459 q 860 417 835 448 q 885 345 885 385 q 883 324 885 335 q 859 235 873 278 q 831 126 842 179 q 802 12 821 68 q 774 -87 785 -37 l 764 -127 q 758 -157 760 -142 q 751 -180 753 -180 q 746 -165 749 -180 q 743 -140 743 -149 q 744 -101 743 -118 q 745 -62 745 -83 q 743 -11 745 -39 q 736 27 742 17 q 723 38 731 38 q 701 26 712 38 q 631 -140 631 -45 l 631 -158 q 628 -174 631 -174 q 616 -151 625 -174 q 599 -78 602 -112 q 578 -4 592 -14 q 551 3 570 1 q 434 56 488 13 q 406 34 419 43 l 397 28 q 351 -38 366 5 q 328 -124 336 -82 q 302 -222 314 -186 q 300 -228 301 -225 q 298 -230 300 -230 z "},"y":{"ha":803,"x_min":0,"x_max":753,"o":"m 93 -748 q 90 -739 92 -748 q 88 -702 88 -724 q 91 -640 88 -673 q 104 -522 95 -578 q 106 -508 105 -515 q 112 -428 112 -477 q 94 -332 112 -353 q 88 -329 91 -329 q 81 -334 84 -329 q 75 -348 78 -340 q 67 -362 71 -355 q 57 -369 63 -369 q 48 -365 53 -369 q 16 -295 35 -352 q 0 -175 0 -250 q 3 -77 0 -123 q 9 -14 3 -39 q 37 32 14 9 q 117 65 70 65 q 200 29 171 62 q 231 -58 229 -5 q 285 -193 233 -149 q 345 -219 314 -214 l 370 -225 q 407 -232 391 -232 q 459 -174 452 -232 l 460 -165 q 462 -151 460 -157 q 473 -123 463 -142 q 510 14 501 -64 q 519 163 519 91 q 518 236 519 202 q 463 184 493 208 q 436 120 439 165 l 430 63 q 411 3 422 6 q 398 15 403 3 q 388 44 393 26 q 374 85 382 65 q 351 112 366 104 q 342 114 347 114 q 330 105 334 114 q 323 88 326 97 l 323 87 q 317 31 317 58 l 317 25 q 313 -4 317 -4 q 310 -1 313 -4 q 306 8 308 1 l 305 9 q 290 54 298 28 q 266 118 279 87 q 233 163 253 149 q 130 265 166 198 q 84 460 84 350 q 123 676 84 567 q 150 740 134 710 q 193 786 165 770 q 251 802 220 802 q 302 790 277 802 q 348 748 332 774 q 364 690 364 721 q 352 638 364 664 q 335 600 342 619 q 311 464 311 530 q 313 428 311 446 q 339 363 319 374 q 340 363 340 363 l 339 370 q 345 382 339 375 q 461 605 399 437 q 498 717 479 653 q 540 776 510 754 q 606 798 570 798 q 639 793 623 798 q 698 751 676 781 q 720 684 720 721 q 719 649 719 667 q 729 476 719 583 q 730 470 730 473 q 730 463 730 467 q 747 157 747 275 q 736 -26 747 64 q 733 -66 733 -47 q 736 -117 733 -92 l 749 -201 q 753 -269 753 -231 q 749 -356 753 -311 q 734 -433 744 -401 q 730 -443 732 -443 q 726 -429 728 -443 l 726 -414 q 688 -260 720 -296 q 677 -254 682 -254 q 656 -273 666 -254 q 623 -382 631 -322 q 610 -439 618 -413 q 576 -521 593 -497 q 574 -515 574 -518 l 575 -499 q 576 -465 576 -484 q 547 -398 576 -403 l 546 -398 q 490 -446 522 -398 q 449 -582 458 -494 q 437 -640 441 -640 q 430 -613 433 -640 l 424 -557 q 414 -477 420 -515 q 391 -439 409 -439 q 382 -442 387 -439 q 355 -530 355 -460 q 363 -612 355 -576 q 357 -610 358 -612 q 355 -608 356 -609 q 333 -574 345 -597 q 307 -513 328 -563 q 276 -457 294 -483 q 227 -419 258 -431 q 218 -417 222 -417 q 204 -423 209 -417 q 179 -485 191 -440 l 172 -507 q 131 -610 160 -541 q 104 -705 113 -657 l 96 -740 q 93 -748 95 -748 z "},"z":{"ha":768,"x_min":0,"x_max":728,"o":"m 496 -281 q 494 -280 494 -281 l 496 -272 q 508 -220 501 -245 q 527 -80 527 -152 q 515 -4 527 -43 q 481 46 500 46 q 473 43 477 46 q 439 -9 454 29 q 414 -81 424 -47 q 378 -172 389 -162 q 377 -166 378 -172 q 376 -155 377 -161 q 379 -115 376 -140 q 382 -55 381 -95 q 378 -2 382 -31 q 365 49 375 28 q 332 70 355 70 q 305 65 322 70 q 276 46 288 60 q 255 17 264 33 q 240 -4 248 5 q 226 -13 233 -13 q 203 1 216 -11 q 183 14 191 14 q 159 -15 172 14 q 149 -71 149 -42 q 157 -136 149 -103 q 175 -197 165 -168 l 183 -224 q 194 -266 194 -258 q 193 -271 194 -271 q 191 -268 193 -271 q 186 -262 189 -265 q 165 -229 178 -252 q 139 -182 152 -206 q 120 -144 127 -158 q 71 -27 91 -87 q 55 12 63 -2 q 28 42 46 26 q 0 108 0 73 q 18 174 0 141 q 96 277 58 252 l 109 287 q 133 310 125 298 q 146 334 141 322 q 171 371 154 352 l 214 415 q 369 593 330 531 q 227 562 307 587 q 194 557 210 557 q 144 570 169 557 q 128 574 136 574 q 100 556 112 574 q 73 486 77 524 q 69 478 71 478 q 60 514 65 478 q 58 542 59 517 q 83 694 58 602 q 162 779 99 758 q 399 821 297 821 q 453 817 427 821 q 588 740 541 804 q 620 641 620 697 q 607 568 620 607 q 414 296 578 470 q 463 289 439 294 q 680 197 573 271 q 716 156 704 180 q 728 104 728 132 q 708 40 728 71 q 639 -6 682 4 q 610 -26 620 -11 q 595 -59 601 -42 q 583 -91 589 -76 l 560 -153 q 517 -250 541 -203 q 503 -276 509 -265 q 496 -281 500 -280 z "},"{":{"ha":586,"x_min":34,"x_max":484,"o":"m 215 -300 q 197 -266 212 -300 l 193 -258 q 158 -79 158 -173 q 163 13 158 -33 q 167 68 167 43 q 155 177 167 114 q 151 217 155 182 q 135 279 142 271 q 127 281 132 281 q 85 258 110 281 q 54 210 64 237 q 45 191 51 201 q 37 181 40 181 q 34 191 34 181 q 35 215 34 202 q 40 246 39 243 q 64 310 49 281 q 82 354 74 331 q 90 405 90 376 q 85 437 89 425 q 80 467 80 448 q 84 495 80 483 q 124 547 94 529 q 180 729 151 566 q 199 833 189 782 q 223 912 210 878 q 286 993 246 969 q 331 1005 307 1005 q 388 989 357 1005 q 424 952 411 975 q 446 905 437 930 q 477 800 467 849 q 484 709 484 755 q 479 673 484 685 q 475 671 477 671 q 471 673 473 671 q 463 684 465 679 q 450 723 455 704 q 424 785 445 753 q 372 821 400 821 l 361 821 q 338 710 347 765 l 335 692 q 306 560 323 626 q 260 451 289 498 q 313 205 291 369 q 321 145 317 169 q 332 84 331 89 q 345 83 338 84 q 396 47 376 77 q 412 -5 412 22 l 410 -19 q 378 -77 405 -54 q 302 -109 338 -109 q 271 -102 279 -106 l 255 -94 q 243 -91 249 -91 q 209 -144 218 -91 q 204 -185 204 -168 q 215 -288 204 -228 l 216 -297 q 215 -300 216 -300 m 334 39 l 336 42 l 332 39 l 334 39 z "},"|":{"ha":346,"x_min":34,"x_max":244,"o":"m 104 -310 q 91 -241 94 -275 l 84 -125 q 77 -84 83 -101 q 58 -47 72 -67 q 45 -22 50 -34 q 40 6 41 -10 l 34 954 q 54 1010 34 987 q 112 1037 77 1037 q 170 1010 146 1037 q 191 954 191 987 l 192 792 q 193 614 192 703 l 193 562 q 195 406 193 484 q 207 318 195 374 l 213 288 q 224 235 218 260 q 244 81 244 153 q 231 -31 244 26 q 225 -45 227 -45 q 223 -39 224 -45 q 220 -22 220 -26 l 218 -6 l 215 16 q 205 45 210 45 q 197 9 200 45 l 194 -16 q 193 -36 193 -24 l 193 -41 q 191 -56 193 -49 q 180 -73 189 -63 q 145 -130 158 -99 q 112 -271 119 -200 l 109 -295 q 108 -303 109 -301 q 104 -310 108 -304 z "},"}":{"ha":517,"x_min":34,"x_max":416,"o":"m 167 -363 l 164 -359 q 155 -331 159 -351 q 150 -291 152 -311 q 149 -259 149 -271 q 148 -204 148 -239 q 147 -143 148 -165 q 140 -105 146 -121 q 117 -77 135 -90 q 85 -19 91 -54 l 85 -5 q 100 47 85 22 q 152 83 120 77 q 163 84 157 84 q 183 205 177 156 q 236 451 206 370 q 190 560 207 498 q 161 692 173 626 l 157 710 q 134 820 143 795 q 83 771 101 816 q 71 694 71 733 l 72 652 q 66 629 72 629 q 54 648 62 629 q 34 765 34 706 q 50 884 34 825 l 52 892 q 70 947 58 921 q 108 989 81 973 q 165 1005 138 1005 q 210 993 189 1005 q 273 912 250 969 q 296 833 287 878 q 316 729 301 811 q 372 547 344 566 q 412 495 401 529 q 416 467 416 481 q 401 416 416 441 q 381 379 389 399 q 364 319 373 359 q 342 189 351 256 l 340 177 q 319 52 327 89 q 282 -52 307 -12 l 260 -87 q 202 -194 224 -144 q 172 -317 180 -244 l 170 -332 q 168 -353 170 -345 q 168 -360 168 -357 q 167 -363 168 -363 m 163 39 l 160 42 l 161 39 l 163 39 z "},"~":{"ha":763,"x_min":34,"x_max":661,"o":"m 284 139 q 222 193 245 163 q 156 295 189 233 q 125 349 142 323 q 90 387 109 376 l 79 393 q 54 412 64 400 q 34 458 34 434 l 35 470 q 73 522 41 501 q 234 569 155 569 q 315 565 282 569 q 379 554 347 560 q 462 544 424 544 q 511 554 490 544 q 564 566 536 566 q 645 532 616 566 q 661 489 661 511 q 618 422 661 448 q 469 386 551 386 q 436 369 446 385 q 420 332 426 353 q 399 290 413 306 q 387 285 392 285 q 363 307 372 285 q 348 348 353 328 q 327 392 339 376 q 297 408 317 404 q 251 411 275 411 q 228 405 235 411 q 216 385 220 399 q 210 342 210 366 q 225 252 210 296 q 248 198 236 218 q 281 150 260 178 q 284 146 283 148 q 286 144 286 145 q 284 139 286 142 z "},"":{"ha":495,"x_min":34,"x_max":393,"o":"m 90 -305 q 66 -256 73 -286 q 56 -189 56 -216 q 47 -59 50 -124 q 37 42 45 -8 q 34 85 34 62 q 37 158 34 120 l 62 941 q 99 1023 65 991 q 183 1055 133 1055 q 266 1018 233 1053 q 298 934 298 984 q 277 289 286 612 l 271 113 l 271 100 q 256 -22 271 36 l 248 -55 l 235 -112 q 224 -158 229 -135 l 220 -177 q 205 -211 209 -211 q 201 -192 201 -211 q 204 -130 201 -183 q 208 -51 206 -91 q 207 -41 208 -41 l 205 -51 q 203 -43 204 -51 q 202 -5 202 -26 q 197 62 202 48 q 193 99 195 70 q 187 149 189 140 q 183 157 185 157 q 181 153 181 155 q 180 151 180 151 l 175 154 q 173 150 174 154 q 170 129 170 139 l 168 116 q 165 98 166 113 l 163 55 l 160 8 q 149 -52 155 -50 l 142 -52 q 130 -60 136 -52 q 96 -150 109 -90 q 83 -245 83 -209 q 86 -275 83 -258 q 90 -305 90 -292 m 382 1054 l 378 1055 q 359 1068 369 1057 q 337 1095 349 1080 q 306 1132 322 1115 q 273 1148 290 1148 q 258 1143 266 1148 q 189 1120 224 1120 q 168 1122 178 1120 q 102 1159 129 1130 q 63 1233 75 1189 q 57 1276 57 1257 q 81 1345 57 1320 q 143 1380 105 1371 q 178 1384 160 1384 q 260 1360 222 1384 q 309 1315 294 1339 q 335 1259 324 1291 l 342 1241 q 370 1158 357 1200 l 380 1128 q 393 1071 393 1093 q 382 1054 393 1054 z "},"":{"ha":682,"x_min":34,"x_max":580,"o":"m 238 -309 q 232 -307 233 -308 q 230 -303 231 -305 q 228 -298 229 -300 q 210 -197 216 -270 l 206 -160 q 178 -7 199 -83 q 170 29 170 17 q 173 43 170 37 q 182 60 176 50 l 190 73 q 200 112 200 94 q 195 149 200 130 q 189 189 189 167 l 189 192 q 176 170 176 189 q 179 144 176 159 q 182 118 182 130 q 174 97 182 104 q 168 95 172 95 q 113 149 147 95 q 69 257 84 193 q 50 320 61 288 q 34 398 34 361 q 85 530 34 470 q 239 620 138 592 l 258 770 q 287 823 262 803 q 335 840 309 840 q 397 809 376 837 q 414 761 414 787 q 400 636 414 751 q 466 632 432 636 q 519 603 499 628 q 536 553 536 581 q 507 492 534 515 q 457 475 485 475 l 450 475 q 381 479 411 479 l 363 330 q 456 351 409 336 q 482 355 470 355 q 560 286 536 355 q 580 154 580 231 q 554 3 580 69 l 552 -3 q 534 -47 542 -31 q 524 -63 528 -60 q 523 -60 523 -63 q 523 -53 523 -56 q 529 -3 523 -41 q 534 51 534 28 q 528 112 534 81 q 506 167 522 142 q 472 191 491 191 l 465 191 q 345 172 401 174 l 327 25 q 300 -34 319 -6 q 255 -144 267 -85 q 241 -238 245 -192 q 238 -280 238 -260 l 238 -309 m 208 359 l 218 440 q 202 423 209 433 q 189 378 189 399 q 203 361 189 364 l 208 359 z "},"":{"ha":703,"x_min":34,"x_max":601,"o":"m 545 -289 q 543 -279 544 -288 l 541 -235 q 534 -171 539 -197 q 522 -137 530 -149 q 510 -125 514 -125 q 503 -156 505 -125 l 500 -180 q 488 -216 497 -212 q 474 -201 481 -216 q 452 -141 465 -184 q 450 -136 451 -137 q 450 -132 450 -134 l 441 -113 q 415 -81 427 -81 q 405 -87 410 -81 q 389 -117 397 -102 q 362 -163 378 -141 l 350 -180 q 313 -213 325 -213 q 304 -205 307 -213 q 302 -197 302 -201 q 310 -163 302 -182 q 317 -135 313 -150 q 320 -104 320 -121 q 315 -71 320 -89 q 301 -49 310 -54 q 278 -44 292 -44 l 218 -44 q 149 -104 174 -44 q 125 -203 126 -153 q 128 -236 125 -222 q 132 -265 132 -250 q 131 -273 132 -273 q 123 -266 127 -273 q 106 -233 115 -253 l 102 -224 q 85 -113 87 -175 q 79 -49 83 -78 q 68 -14 76 -29 q 58 28 58 12 q 66 61 58 45 l 94 113 q 176 274 144 208 q 208 377 208 341 q 203 407 208 393 l 106 407 q 55 428 77 407 q 34 479 34 450 q 55 530 34 509 q 106 551 77 551 l 139 551 q 113 692 113 617 q 189 907 113 830 q 340 970 254 970 q 395 963 368 970 q 471 921 439 951 q 545 748 528 863 q 557 608 555 678 q 556 581 557 595 q 552 558 555 568 q 545 549 550 549 q 522 587 536 549 q 505 627 514 608 q 483 646 495 646 l 478 646 q 447 613 467 641 l 426 588 q 376 564 405 566 q 325 583 347 564 q 301 632 302 604 q 319 684 301 661 q 381 795 381 753 q 380 804 380 800 q 378 811 379 808 q 373 816 376 814 q 366 821 371 819 q 340 827 354 827 q 322 825 331 827 q 269 771 286 815 q 257 694 257 739 q 279 587 257 633 l 298 551 l 382 551 l 424 551 q 500 499 478 549 q 513 428 513 468 q 493 304 513 365 q 443 184 470 227 q 433 175 436 175 q 428 189 428 175 q 434 229 429 209 q 443 311 443 269 q 417 397 443 370 q 387 408 407 408 l 349 407 q 351 378 351 393 q 320 247 351 319 q 248 99 293 182 l 332 99 q 436 98 394 99 q 468 98 452 98 q 529 99 484 99 q 582 76 564 98 q 601 20 600 54 q 597 -38 601 -13 q 583 -121 593 -62 q 577 -154 581 -128 q 567 -210 573 -179 q 545 -289 552 -286 z "},"":{"ha":644,"x_min":34,"x_max":543,"o":"m 274 331 l 283 332 q 318 339 298 334 q 323 392 321 349 l 322 414 q 317 443 320 430 l 309 444 q 285 447 298 447 q 274 447 277 447 q 267 446 271 446 l 264 435 q 257 368 257 394 q 264 333 258 337 q 274 331 267 331 m 178 -161 q 163 -132 172 -155 l 161 -125 q 140 -14 144 -68 q 134 30 138 6 q 125 67 130 53 q 101 93 118 86 q 72 110 83 100 q 43 172 44 135 q 63 226 43 201 l 109 279 q 94 349 98 309 l 94 372 q 102 462 94 412 l 105 481 l 54 541 q 34 593 34 565 l 35 600 q 62 656 37 633 q 117 677 88 677 q 178 648 153 676 l 218 603 q 279 612 249 612 q 333 607 306 611 l 344 606 l 395 665 q 457 694 420 692 q 511 674 486 694 q 540 618 538 650 l 541 610 q 520 558 541 583 l 471 501 q 488 391 488 451 q 486 356 488 373 q 473 286 483 315 l 522 229 q 543 165 543 203 q 535 111 543 138 q 463 -71 512 28 l 441 -120 q 421 -155 431 -142 q 420 -145 420 -151 q 428 -98 420 -137 q 445 30 445 -16 q 427 96 445 78 q 414 102 420 102 q 398 94 406 102 q 385 71 391 86 q 357 28 372 28 q 322 85 336 32 q 310 125 315 110 q 272 168 295 168 q 241 151 259 168 l 239 150 q 222 121 229 138 l 220 115 q 176 -89 176 5 l 178 -127 q 179 -150 179 -139 q 178 -161 179 -156 z "},"":{"ha":646,"x_min":34,"x_max":544,"o":"m 188 -272 q 185 -267 185 -272 q 191 -246 185 -260 q 214 -197 201 -221 q 252 -80 252 -127 q 229 -23 252 -43 q 205 35 205 2 q 204 139 204 81 q 201 248 203 168 l 158 248 q 100 273 123 250 q 77 330 77 297 q 103 389 79 366 q 160 412 127 412 l 201 411 l 201 416 l 157 416 q 100 441 123 418 q 77 496 77 465 q 101 557 77 534 q 159 581 126 581 l 212 580 l 45 857 q 34 900 34 878 q 74 969 34 945 q 117 981 94 981 q 136 979 126 981 q 186 941 168 970 l 284 777 q 321 831 286 780 q 391 935 362 884 q 465 977 416 977 q 510 959 493 977 q 544 838 544 922 q 532 734 544 787 q 505 638 521 681 q 483 582 500 623 q 470 562 473 562 q 469 563 469 562 q 469 566 469 564 q 473 617 469 584 q 479 675 479 645 q 461 728 479 728 q 429 699 450 728 l 404 659 q 377 578 383 621 l 382 578 q 409 573 401 578 q 421 547 418 569 q 423 521 422 538 q 429 467 425 494 q 452 433 435 435 q 466 438 458 433 q 479 449 473 444 q 490 458 486 458 q 492 453 492 458 q 475 418 492 433 q 439 402 459 404 q 407 408 421 402 q 365 414 393 414 l 365 409 q 397 406 384 408 q 425 399 410 404 l 441 395 q 475 382 463 391 q 499 306 499 364 l 500 248 q 498 212 500 231 q 489 180 496 193 q 470 167 483 167 q 458 170 465 167 q 425 203 439 180 q 401 231 414 218 q 365 245 387 243 q 367 136 365 189 q 369 24 369 80 q 355 -40 369 -4 q 321 -109 340 -75 q 283 -165 301 -142 q 219 -241 252 -203 q 188 -272 194 -272 z "},"":{"ha":458,"x_min":34,"x_max":357,"o":"m 356 325 l 355 325 q 346 334 350 325 l 345 335 q 332 360 338 347 q 315 393 325 378 q 249 481 271 463 q 231 489 239 489 q 209 482 219 489 q 184 471 199 475 q 168 469 174 469 q 144 472 153 469 q 127 474 136 474 q 98 465 115 474 q 70 433 80 453 q 54 393 60 414 q 41 368 45 368 q 37 377 39 368 q 35 399 35 387 q 34 420 34 412 q 43 495 35 462 q 64 560 52 528 q 85 629 76 593 q 90 682 90 654 l 90 831 q 113 886 90 863 q 168 909 136 909 q 224 886 201 909 q 247 831 247 863 q 246 665 247 747 q 250 635 246 647 q 260 610 254 623 l 264 600 q 279 567 271 584 q 296 531 288 551 q 317 471 307 501 q 337 412 326 441 q 350 374 343 398 q 357 333 357 351 l 356 325 m 149 -364 q 141 -361 144 -364 q 137 -352 139 -357 q 136 -345 136 -347 q 138 -340 136 -342 q 140 -335 140 -339 q 138 -323 140 -331 q 126 -275 130 -300 q 115 -226 121 -251 q 91 -73 97 -143 q 79 64 81 18 q 84 84 79 84 q 98 54 90 84 q 103 41 102 41 q 104 66 104 41 q 92 262 103 168 q 90 298 90 277 q 99 350 90 325 q 138 376 108 375 q 170 370 155 376 q 199 355 185 363 l 214 347 q 236 333 229 340 q 243 311 243 326 l 242 300 l 238 247 l 237 205 q 235 147 235 176 q 245 53 235 84 q 249 29 249 41 q 240 -7 249 10 q 216 -43 227 -29 q 197 -72 205 -56 q 168 -221 168 -121 q 173 -300 168 -270 q 177 -338 177 -321 q 173 -356 177 -350 q 162 -363 169 -361 q 149 -364 155 -364 z "},"":{"ha":598,"x_min":34,"x_max":496,"o":"m 270 -216 q 265 -202 267 -216 q 262 -152 262 -182 q 258 -95 261 -122 q 247 -54 256 -67 q 214 -43 236 -43 l 209 -43 q 163 -114 176 -49 q 157 -165 157 -144 q 146 -216 157 -216 q 132 -198 140 -216 q 109 -107 113 -152 q 95 -45 104 -76 q 66 17 87 -14 q 42 57 50 39 q 34 105 34 75 q 106 256 34 169 l 107 256 q 117 266 111 262 q 83 314 96 287 q 70 361 72 338 l 69 375 q 81 427 69 403 q 121 479 95 459 q 172 507 143 496 q 257 522 212 522 q 285 520 271 522 q 311 515 299 518 q 336 508 323 513 l 342 512 l 339 517 q 278 567 325 538 l 232 596 q 161 651 189 625 q 94 768 99 705 l 93 780 q 121 860 93 824 q 196 913 149 896 q 281 927 236 927 q 355 916 320 927 q 424 869 400 900 q 449 799 449 838 q 448 779 449 789 q 418 709 444 746 q 361 680 396 680 q 333 686 347 680 q 408 635 385 654 q 475 537 460 591 q 487 477 483 508 q 496 380 496 422 q 477 333 496 333 q 435 368 460 333 l 433 370 q 432 369 432 370 q 431 363 432 367 q 427 353 431 359 q 405 321 414 336 q 397 309 401 315 l 393 303 q 337 275 373 275 q 309 281 323 275 l 326 270 q 400 215 367 246 q 451 139 434 184 q 466 60 461 109 q 471 -33 471 12 q 460 -115 471 -115 q 441 -75 450 -115 q 433 -42 438 -59 q 401 -1 422 -1 q 373 -16 389 -1 q 318 -100 340 -54 q 286 -179 296 -141 q 277 -204 281 -192 q 270 -216 273 -216 m 315 698 q 294 745 294 718 q 306 781 294 763 l 313 793 q 281 799 300 798 q 235 789 250 798 q 228 781 231 786 q 229 774 228 777 q 231 771 230 772 q 239 759 233 766 q 255 743 245 751 q 300 708 276 724 l 315 698 m 292 292 q 271 338 271 312 q 281 375 271 357 q 289 387 286 381 q 257 393 277 392 q 211 383 225 392 q 204 375 207 380 q 207 366 204 370 q 218 350 215 353 q 247 325 229 338 l 254 319 q 292 292 271 305 m 231 85 q 256 86 243 85 q 290 92 270 87 q 320 108 309 96 l 321 109 q 282 143 301 130 q 218 184 270 152 l 216 182 q 211 174 214 178 q 172 113 177 135 l 170 105 q 173 98 170 100 q 231 85 191 85 z "},"":{"ha":709,"x_min":35,"x_max":608,"o":"m 497 760 q 516 763 514 760 q 517 771 517 766 l 517 781 q 494 802 509 795 q 473 807 483 807 q 462 804 465 806 q 456 796 458 802 q 468 767 459 775 q 497 760 477 760 m 455 535 q 452 537 452 535 q 465 566 452 546 q 478 595 473 578 q 483 627 483 611 q 467 658 483 650 q 458 660 462 660 q 439 654 448 660 q 422 648 430 648 q 399 681 409 648 q 378 742 392 708 q 366 797 367 768 l 366 808 q 405 875 376 853 q 471 897 435 897 q 533 884 505 897 q 576 853 557 873 q 608 771 608 821 q 600 731 608 747 q 581 694 593 714 l 562 661 q 521 593 543 626 q 465 538 498 561 q 455 535 458 535 m 167 760 q 185 763 183 760 q 187 771 187 766 l 186 781 q 164 802 179 795 q 142 807 153 807 q 132 804 135 806 q 126 796 128 802 q 138 767 129 775 q 167 760 146 760 m 175 540 q 163 550 170 540 q 132 620 140 583 q 117 644 125 644 q 107 637 113 644 q 85 625 98 627 q 56 665 71 625 l 54 669 q 42 708 44 690 q 39 744 39 726 q 37 783 39 762 q 35 797 35 790 l 36 808 q 75 875 45 853 q 144 897 104 897 q 203 884 174 897 q 246 852 227 873 q 277 772 277 821 q 229 683 277 715 q 206 662 216 674 q 187 627 195 650 q 182 589 182 606 l 183 560 q 175 540 183 540 z "},"":{"ha":930,"x_min":34,"x_max":829,"o":"m 475 56 l 511 57 q 686 153 631 66 q 716 261 715 201 q 689 385 716 322 q 598 498 659 449 q 447 566 538 547 q 397 571 421 571 q 275 538 329 571 q 188 454 222 506 q 141 319 147 393 l 140 292 q 156 205 140 233 q 207 138 180 165 q 279 92 234 111 q 475 56 359 56 m 451 106 q 305 146 361 106 q 236 279 236 197 q 289 414 236 350 q 387 488 326 458 q 447 506 409 499 l 449 506 q 473 508 460 508 q 583 441 548 508 q 596 387 594 416 q 583 352 596 368 q 543 334 569 336 q 509 347 524 334 q 491 380 494 360 q 485 399 488 395 q 471 402 481 402 l 463 401 l 462 401 q 432 392 444 398 q 344 297 357 353 q 342 280 342 288 q 366 233 342 250 q 449 212 393 212 q 543 224 488 212 q 555 226 549 226 q 588 215 573 226 q 607 185 602 203 q 608 173 608 179 q 597 140 608 155 q 568 121 586 126 q 451 106 503 106 m 616 -207 q 608 -202 612 -207 q 601 -178 603 -194 q 599 -142 600 -162 q 594 -86 599 -113 q 572 -47 589 -59 q 562 -44 566 -44 q 547 -46 555 -44 q 525 -54 532 -48 q 498 -94 513 -61 q 453 -158 473 -158 q 436 -144 441 -157 q 428 -114 431 -132 q 418 -79 424 -96 q 398 -53 412 -62 q 370 -43 385 -43 q 323 -64 345 -43 l 315 -73 q 292 -136 292 -102 q 294 -154 292 -152 q 300 -190 300 -178 q 293 -204 300 -204 l 290 -203 q 257 -163 277 -198 q 237 -66 237 -128 q 231 -10 237 -29 q 208 9 225 1 q 168 34 181 24 q 139 57 145 51 q 123 64 130 64 q 106 46 111 64 q 102 14 102 29 q 115 -42 104 -17 q 125 -77 123 -60 q 122 -87 125 -87 q 107 -78 115 -87 q 41 62 50 -15 q 37 137 37 98 l 37 213 q 36 257 37 236 q 34 301 34 279 l 35 328 q 100 513 44 428 q 223 632 147 586 q 394 677 298 677 q 467 670 430 677 q 666 580 587 645 q 785 429 746 515 q 821 268 821 349 l 821 233 q 824 191 821 214 q 829 123 829 156 q 821 27 829 74 q 802 -70 813 -20 q 795 -87 798 -87 q 790 -51 791 -87 q 789 0 789 -36 q 787 24 789 7 q 766 70 782 70 q 760 67 764 70 q 735 45 755 65 q 707 18 726 36 q 686 -11 693 7 q 675 -47 680 -28 q 640 -166 669 -73 l 634 -183 q 616 -207 625 -207 z "},"":{"ha":540,"x_min":34,"x_max":438,"o":"m 267 356 q 255 367 264 356 q 233 404 238 388 q 222 486 226 427 q 214 557 218 542 q 203 570 210 567 q 188 573 196 573 q 176 572 182 573 q 163 572 170 572 q 145 573 151 572 q 132 574 138 574 q 106 566 121 574 q 94 563 98 563 q 84 567 88 563 q 75 579 80 571 q 56 621 67 594 q 39 663 45 647 q 34 705 34 683 q 50 781 34 741 q 200 925 93 882 q 291 941 241 941 q 353 935 321 941 q 398 904 382 928 q 410 865 410 886 q 396 823 407 836 q 374 804 387 812 q 384 766 384 786 q 385 715 384 730 q 397 671 389 684 q 438 597 438 652 q 414 488 438 555 l 414 487 q 404 460 412 479 q 363 406 380 406 q 353 410 358 406 q 345 431 347 418 q 343 462 343 445 l 343 469 q 341 500 343 484 q 329 528 339 517 q 317 535 323 535 q 307 531 312 535 q 298 522 302 527 q 270 473 283 505 q 256 414 256 441 q 260 392 256 406 q 269 359 269 366 q 267 356 269 356 m 177 715 q 237 760 216 724 q 243 779 241 769 q 247 791 245 785 q 200 759 218 780 q 177 715 182 737 z "},"":{"ha":1106,"x_min":34,"x_max":1004,"o":"m 832 -140 l 831 -139 l 833 -131 q 841 -102 836 -119 q 854 -27 854 -63 q 836 57 854 16 q 813 91 825 79 q 784 114 801 102 q 763 130 770 124 q 749 140 755 136 q 736 144 743 144 q 712 128 726 144 q 686 65 695 104 q 675 -5 677 26 q 673 -79 674 -41 q 672 -90 673 -89 q 671 -94 671 -92 q 669 -91 669 -94 q 667 -86 669 -89 q 649 -15 656 -58 q 640 58 642 27 q 637 132 638 96 l 636 167 q 612 244 636 223 q 593 259 600 254 q 580 269 586 264 q 532 357 534 305 q 564 435 532 400 l 791 667 q 869 700 825 699 q 946 669 914 700 q 979 591 979 635 q 947 513 979 546 l 808 371 l 961 255 q 1003 182 998 226 l 1004 167 q 982 102 1004 132 q 961 81 970 87 q 936 52 945 68 q 896 -37 913 10 l 889 -54 q 853 -117 878 -81 q 832 -140 841 -136 m 281 -69 q 275 -61 279 -69 q 269 -44 272 -53 q 265 -31 266 -35 l 264 -30 q 251 64 254 15 q 246 114 249 90 q 236 168 243 138 q 213 216 229 197 q 193 227 203 227 q 134 192 171 227 q 102 159 115 175 l 100 157 q 65 104 76 127 q 45 51 54 81 l 39 34 q 34 58 34 45 q 35 81 34 65 q 69 198 45 148 q 94 267 83 230 q 103 327 103 297 l 101 357 q 132 435 101 400 l 360 667 q 437 700 394 699 q 515 669 483 700 q 547 591 547 633 l 547 589 q 516 513 547 549 l 376 371 l 530 255 q 572 182 566 226 l 573 167 q 551 102 573 132 q 479 59 522 65 l 463 58 q 389 87 426 58 q 349 116 363 106 q 332 124 338 123 q 295 64 309 124 q 283 -13 284 20 l 283 -62 q 281 -69 282 -69 z "},"":{"ha":718,"x_min":34,"x_max":616,"o":"m 515 204 q 443 234 473 204 q 414 306 414 264 l 414 416 l 399 416 q 365 412 379 416 q 334 386 351 408 q 323 370 328 378 q 304 345 313 355 q 285 334 294 334 q 257 368 271 334 l 257 368 q 246 395 252 384 q 233 406 241 406 q 209 382 223 406 q 196 361 203 370 q 177 349 189 352 q 158 359 167 349 q 142 381 150 369 q 127 401 135 393 q 112 410 120 410 q 87 380 96 410 q 81 345 81 361 q 90 292 81 317 q 108 247 99 267 q 117 220 117 227 q 115 216 117 216 q 109 220 112 216 q 68 273 87 241 q 42 335 50 305 q 34 395 34 364 q 43 469 34 433 q 68 539 53 506 q 105 592 84 572 q 165 614 126 612 l 513 621 q 586 592 555 621 q 616 521 616 563 l 616 306 q 587 234 616 264 q 515 204 557 204 z "},"":{"ha":931,"x_min":34,"x_max":829,"o":"m 408 110 q 490 115 447 110 l 508 116 l 534 115 q 585 132 554 115 l 607 142 q 650 168 632 153 q 698 231 684 197 q 712 309 712 266 q 684 430 711 370 q 596 544 652 497 q 440 602 527 602 q 329 578 383 602 q 232 516 275 555 q 144 354 155 445 l 142 332 q 211 174 142 248 q 315 119 254 130 q 408 110 356 110 m 363 146 l 360 146 q 323 160 338 146 q 306 195 308 174 l 304 231 q 298 370 298 295 q 307 508 298 436 q 321 537 310 525 q 349 552 333 549 q 432 564 395 564 q 535 532 498 564 q 574 450 574 496 q 543 368 573 406 q 482 322 520 339 q 537 268 528 270 q 573 251 559 266 q 587 214 587 235 q 570 176 586 191 q 533 161 554 161 q 465 189 496 163 q 410 244 436 212 l 412 199 q 398 163 412 178 q 363 146 385 148 m 405 410 q 460 435 445 415 q 468 449 468 444 l 467 450 q 435 458 458 458 q 408 456 423 458 l 405 410 m 304 -231 q 319 -197 311 -213 q 340 -141 331 -169 q 350 -75 349 -113 q 345 -36 350 -56 q 329 -1 340 -16 q 296 14 317 14 l 289 13 q 271 6 279 12 q 256 -7 263 0 q 210 -77 230 -35 q 176 -180 188 -125 q 165 -220 168 -214 q 164 -223 165 -221 q 163 -224 163 -224 q 160 -215 162 -220 q 158 -195 159 -209 q 157 -165 157 -181 l 158 -135 q 164 -75 159 -111 q 173 16 173 -26 q 165 65 173 45 q 138 96 155 81 q 118 117 126 108 q 88 143 99 143 q 73 118 77 143 q 78 86 73 104 q 82 64 82 73 l 80 58 q 72 68 77 58 q 50 111 62 84 q 34 186 34 144 q 35 218 34 202 q 37 288 37 248 l 37 304 q 43 394 37 352 q 78 491 50 436 q 160 595 111 549 q 290 677 217 647 q 440 708 363 708 q 479 706 460 708 q 659 629 581 693 q 779 475 737 566 q 819 313 818 394 q 818 284 819 298 q 817 256 817 271 q 823 189 818 225 q 829 110 829 153 q 827 51 829 80 q 815 -7 825 22 q 787 -71 804 -37 q 770 -97 777 -93 q 770 -96 770 -97 q 770 -89 770 -92 q 772 -74 770 -85 q 777 -51 774 -63 q 781 -33 780 -39 q 788 17 788 -7 q 774 79 788 47 q 748 104 762 104 q 729 95 739 104 q 650 44 693 64 q 623 17 631 35 q 610 -20 615 0 l 609 -24 q 552 -168 584 -109 l 536 -199 q 521 -219 528 -215 q 519 -218 520 -219 q 517 -214 519 -217 q 516 -205 516 -212 q 527 -146 516 -189 q 534 -79 534 -115 q 529 -33 534 -56 q 490 9 519 9 q 466 5 477 9 l 465 5 q 429 -31 446 3 q 406 -81 416 -56 l 395 -106 q 315 -224 357 -183 l 313 -227 q 304 -231 310 -231 z "},"":{"ha":672,"x_min":34,"x_max":570,"o":"m 267 562 q 261 574 262 566 l 261 578 q 201 720 251 684 q 179 728 190 728 q 121 668 146 728 q 99 633 106 633 q 90 650 94 633 l 83 673 q 45 768 75 714 q 36 786 39 778 q 34 806 34 795 q 63 865 34 842 q 123 885 90 885 l 481 885 q 541 865 515 885 q 570 806 570 842 q 566 771 570 790 q 562 737 563 753 q 550 668 559 691 q 530 650 544 650 q 510 661 520 650 q 491 686 500 672 q 468 714 479 705 q 443 726 456 724 q 415 728 429 728 l 360 728 q 335 727 345 728 q 303 685 315 719 q 287 619 292 650 q 281 597 284 605 q 267 562 276 574 z "},"":{"ha":400,"x_min":34,"x_max":298,"o":"m 158 786 q 204 795 187 786 q 206 805 206 798 q 205 819 206 810 q 178 845 196 837 q 150 852 163 852 q 127 836 132 852 l 127 831 q 133 803 128 817 q 152 787 138 789 l 158 786 m 52 452 q 48 457 49 454 q 47 461 47 459 q 46 467 47 464 q 42 525 42 489 q 50 658 42 593 q 53 710 53 685 q 43 785 53 745 q 34 836 37 808 l 35 847 q 77 920 45 896 q 148 944 109 943 q 217 929 182 944 q 264 896 243 917 q 298 806 298 861 q 240 709 298 739 q 182 696 216 696 q 156 688 168 696 q 135 671 145 681 q 84 579 102 634 q 57 476 65 524 l 52 452 z "},"":{"ha":604,"x_min":34,"x_max":503,"o":"m 152 -266 q 150 -264 151 -266 q 149 -260 149 -262 q 147 -257 148 -258 q 142 -205 142 -239 q 144 -146 142 -177 q 145 -104 145 -122 q 144 -79 145 -94 q 121 -37 140 -41 l 112 -37 q 72 -19 90 -35 l 69 -17 q 52 19 52 1 q 68 50 52 35 q 81 61 76 56 q 89 70 85 65 q 97 80 92 74 l 103 87 q 116 98 109 96 q 131 100 123 100 l 433 100 q 482 80 462 100 q 503 31 503 60 q 307 -44 503 -44 l 288 -44 q 255 -50 267 -44 q 228 -77 243 -55 q 157 -254 172 -161 q 155 -261 156 -257 q 152 -266 154 -266 m 60 104 q 49 119 55 104 q 37 157 39 141 q 34 197 34 172 l 35 279 q 38 333 35 303 q 56 382 41 363 q 107 405 75 405 l 197 405 q 196 446 196 425 q 267 557 197 557 l 271 557 q 318 536 299 557 q 338 489 338 516 l 335 406 l 433 406 q 482 386 462 406 q 502 337 502 366 q 482 288 502 309 q 433 268 462 268 l 332 268 l 329 182 q 308 134 328 153 q 261 115 288 115 l 258 115 q 211 136 230 115 q 191 183 191 157 l 194 268 l 168 268 q 144 268 155 268 q 127 265 132 267 q 84 214 102 252 q 65 147 66 175 l 66 127 q 60 104 66 104 z "},"":{"ha":422,"x_min":34,"x_max":321,"o":"m 199 519 q 196 524 198 519 q 193 547 195 528 l 191 563 q 155 632 186 607 q 137 618 142 624 q 130 605 133 612 q 121 586 127 597 q 95 566 109 566 q 76 583 84 566 q 60 626 68 601 q 50 673 51 650 q 62 714 50 699 q 101 737 75 729 q 182 860 176 826 q 146 854 163 860 q 123 842 129 849 q 85 825 106 825 q 52 837 68 825 q 34 875 34 854 q 46 907 34 892 q 105 944 64 927 q 185 960 146 960 q 251 940 223 960 q 284 869 284 917 l 284 863 q 223 731 283 818 q 277 722 233 729 q 309 704 296 718 q 321 672 321 690 q 304 635 319 646 q 282 622 294 626 q 258 609 269 618 q 229 562 248 600 q 215 536 222 548 q 199 519 208 524 z "},"":{"ha":405,"x_min":34,"x_max":303,"o":"m 92 459 q 86 467 88 459 l 85 476 q 102 549 85 498 q 112 589 112 576 q 102 617 112 606 q 79 636 92 627 q 45 667 60 648 q 34 699 34 681 q 57 743 34 725 q 86 752 71 752 q 130 729 111 752 q 154 723 136 723 q 175 725 168 723 q 192 731 182 726 l 177 743 l 168 743 q 136 753 151 743 q 117 783 122 764 q 116 795 116 789 q 147 843 116 826 q 159 847 153 846 q 174 867 169 853 q 124 845 159 863 q 99 839 112 839 q 53 866 71 839 q 47 891 47 878 q 75 937 47 919 q 186 970 142 970 q 233 960 214 970 q 281 876 281 935 q 262 808 281 840 q 297 766 289 785 q 302 746 301 756 l 303 734 q 299 705 303 719 q 290 675 295 690 q 263 561 271 623 q 256 545 261 545 q 243 559 252 545 l 239 566 q 226 584 233 576 q 210 592 219 592 q 191 579 202 592 l 183 569 l 157 538 q 125 498 136 515 q 92 459 103 459 z "},"":{"ha":448,"x_min":34,"x_max":347,"o":"m 134 397 q 127 408 131 397 q 115 450 120 427 l 114 452 q 102 530 104 494 q 89 621 98 583 q 57 685 81 653 q 41 710 47 698 q 34 748 35 722 q 58 809 34 781 l 187 945 q 254 974 216 974 q 317 949 289 974 q 347 882 346 922 q 321 819 347 848 q 213 703 264 760 q 166 606 186 670 q 141 496 146 541 l 140 474 l 141 433 l 140 412 q 134 397 138 397 z "},"":{"ha":549,"x_min":34,"x_max":448,"o":"m 111 -321 q 96 -290 102 -313 l 91 -273 q 52 -121 64 -199 l 36 12 q 34 52 34 30 l 35 89 q 36 250 36 136 l 36 745 q 62 809 36 783 q 125 835 89 835 q 190 809 163 835 q 216 745 216 783 l 216 662 q 230 523 218 576 l 238 493 l 241 503 q 264 619 258 553 l 264 747 q 286 806 264 781 q 353 838 312 837 q 411 817 385 838 q 442 761 437 795 q 446 682 445 747 q 444 622 446 652 l 444 467 q 446 337 444 368 q 448 280 448 309 q 445 225 448 254 q 407 34 433 128 l 405 24 q 380 -63 387 -60 q 376 4 376 -63 l 376 71 q 356 156 376 156 q 344 150 350 156 q 334 139 338 144 q 312 97 321 122 q 303 50 303 73 q 304 33 303 41 q 311 1 311 12 q 309 -5 311 -5 q 298 5 305 -5 q 274 58 279 31 q 269 115 269 85 q 271 171 269 149 l 271 208 q 267 267 271 235 q 266 278 266 274 q 264 281 265 281 q 260 280 262 281 q 246 279 257 279 l 231 279 q 216 279 223 279 l 216 38 q 189 -18 216 9 q 161 -37 172 -33 q 141 -51 151 -42 q 123 -81 132 -59 q 103 -176 104 -126 q 107 -245 103 -211 q 111 -315 111 -280 l 111 -321 z "},"":{"ha":676,"x_min":34,"x_max":574,"o":"m 500 -220 q 499 -219 499 -220 q 505 -197 499 -214 q 523 -93 523 -137 q 519 -63 523 -76 q 494 -42 513 -45 q 475 -35 484 -41 q 445 20 446 -14 l 445 745 l 412 745 l 412 20 q 398 -24 410 -4 q 373 -64 387 -45 q 322 -148 341 -106 q 303 -186 310 -174 q 292 -198 298 -195 q 291 -195 291 -198 q 291 -188 291 -193 q 293 -153 291 -173 q 297 -73 297 -112 l 297 -50 q 303 -23 297 -37 q 311 0 308 -15 l 311 10 q 310 17 311 15 q 306 20 308 19 q 300 24 303 22 q 294 30 297 26 q 277 66 286 43 q 265 105 268 89 q 262 145 262 121 q 273 288 262 211 q 283 361 283 356 q 259 387 281 364 q 239 407 246 401 q 216 417 231 412 q 204 420 211 418 q 192 422 197 422 q 171 412 178 422 q 127 262 147 379 l 122 237 q 115 218 118 218 q 113 222 114 218 l 113 225 q 106 277 109 242 l 102 349 q 56 540 100 450 q 35 613 39 574 l 34 629 q 58 721 34 675 q 156 816 87 776 q 337 871 225 857 l 340 871 l 340 872 l 445 872 l 445 899 q 464 944 445 926 q 509 963 482 963 q 554 944 535 963 q 573 899 573 926 q 574 43 573 60 l 574 15 q 572 -23 574 -3 q 561 -73 569 -43 q 536 -147 553 -103 q 503 -217 519 -191 q 500 -220 500 -220 m 284 531 l 284 732 q 161 627 161 696 q 176 587 162 607 q 284 531 208 545 z "},"":{"ha":400,"x_min":34,"x_max":298,"o":"m 163 93 q 155 137 160 93 q 146 252 153 157 q 136 308 144 282 q 102 350 128 333 l 90 357 q 34 472 40 391 l 35 483 q 77 556 45 532 q 148 581 109 580 q 217 565 182 581 q 264 532 243 553 q 298 442 298 497 q 278 376 298 404 q 263 360 271 368 q 242 334 252 351 q 178 159 193 252 q 163 93 168 93 z "},"":{"ha":272,"x_min":34,"x_max":170,"o":"m 52 -333 q 48 -321 48 -333 l 51 -259 q 39 -178 51 -218 q 34 -149 34 -163 q 62 -109 34 -117 q 75 -107 68 -107 q 92 -106 87 -107 q 66 -54 87 -79 q 57 -29 57 -43 q 67 13 57 -25 q 81 34 71 26 q 104 41 92 41 q 136 26 125 41 q 144 2 144 15 q 140 -20 144 -3 q 166 -77 157 -46 q 170 -105 170 -91 q 166 -130 170 -117 q 152 -162 163 -142 q 131 -199 142 -181 l 121 -216 q 89 -274 106 -245 l 64 -318 q 52 -333 55 -333 z "},"":{"ha":298,"x_min":34,"x_max":197,"o":"m 177 368 q 161 395 173 369 l 158 401 q 127 479 142 436 l 118 505 q 75 593 102 544 q 63 635 63 616 q 66 665 63 649 q 79 754 73 709 q 40 779 54 755 q 34 802 34 790 q 60 844 34 827 q 76 859 71 850 q 90 889 82 868 l 105 924 q 149 952 121 952 q 168 948 158 952 q 189 930 181 942 q 197 904 197 918 l 174 745 l 165 680 q 163 629 163 656 q 163 581 163 604 q 164 537 164 557 q 176 394 164 463 q 178 374 178 380 q 177 368 178 368 z "},"":{"ha":366,"x_min":34,"x_max":264,"o":"m 142 669 q 166 760 166 692 q 163 807 166 787 q 154 789 159 800 l 149 779 q 136 707 136 743 q 142 669 136 688 m 39 351 q 34 401 34 376 q 43 498 35 455 q 52 572 52 542 q 45 651 52 614 q 38 708 38 680 q 58 817 38 763 q 144 923 101 909 q 174 929 160 929 q 242 880 218 929 q 264 774 262 839 q 260 715 264 743 q 256 632 256 682 q 251 526 256 576 q 218 420 245 477 q 201 398 208 398 q 193 420 194 398 l 195 447 q 198 488 198 467 q 178 556 198 532 q 164 564 171 564 q 142 549 155 564 l 138 544 q 67 435 92 496 q 45 360 54 399 q 45 356 45 357 q 44 354 45 355 q 39 351 44 353 z "},"":{"ha":1063,"x_min":34,"x_max":962,"o":"m 211 -201 q 205 -184 208 -201 q 204 -139 204 -161 l 203 -102 q 194 -42 202 -77 q 169 22 186 -7 q 124 60 152 51 q 86 74 102 65 q 56 102 71 83 q 34 168 34 134 q 35 182 34 176 q 77 255 41 226 l 231 371 l 90 513 q 59 591 59 550 q 92 669 60 635 q 170 700 128 700 q 246 667 213 699 l 474 435 q 505 360 505 401 l 505 357 q 473 281 505 316 q 439 254 457 267 q 419 225 425 242 q 412 189 414 208 l 409 172 q 401 118 406 146 q 376 75 393 75 q 354 92 364 75 q 338 123 345 108 l 332 134 q 311 151 323 151 q 294 144 304 151 l 286 138 q 257 109 262 122 q 245 -3 248 82 q 236 -109 243 -66 q 220 -183 230 -143 q 211 -201 215 -201 m 704 -98 q 706 -59 704 -77 q 709 -17 709 -40 q 683 80 709 45 q 665 94 673 94 q 645 83 655 94 q 575 58 612 58 l 559 59 q 488 102 517 65 q 465 167 465 132 l 467 182 q 509 255 473 226 l 663 371 l 522 513 q 490 591 490 550 q 524 669 491 635 q 601 700 555 700 q 678 667 645 699 l 905 435 q 931 395 924 415 q 941 349 937 374 l 947 307 q 957 236 953 272 q 962 167 962 201 l 961 140 q 959 121 960 134 q 953 95 957 107 q 943 82 949 82 q 936 87 939 82 q 928 106 932 93 q 921 135 924 119 q 915 161 918 151 q 903 190 911 172 q 882 223 895 208 q 855 237 870 237 q 835 227 848 237 q 789 192 815 214 q 762 131 770 177 q 750 52 753 89 q 734 -31 747 15 q 713 -87 724 -66 l 711 -92 q 704 -98 709 -97 z "},"":{"ha":872,"x_min":34,"x_max":770,"o":"m 663 -135 q 662 -134 662 -135 l 663 -119 q 664 -108 664 -113 q 659 -68 664 -90 q 623 -41 652 -43 q 589 -25 602 -39 q 575 9 575 -10 q 587 127 575 14 q 466 103 471 103 q 445 108 455 103 q 423 127 431 115 q 415 155 415 140 q 420 177 415 166 l 515 382 q 535 404 522 396 q 563 412 548 412 q 585 407 574 412 q 614 359 614 389 q 610 338 614 349 l 558 228 l 597 236 l 598 251 l 597 258 q 595 275 595 267 q 604 305 595 292 q 629 324 612 318 q 647 328 637 328 q 676 318 663 328 q 694 293 689 309 q 700 231 700 277 q 712 197 712 216 q 696 158 712 174 l 694 136 q 690 70 690 106 l 690 20 q 686 -54 690 -17 q 668 -125 682 -91 q 663 -135 664 -135 m 239 -136 q 224 -106 232 -136 q 212 -64 220 -86 q 178 -33 199 -33 q 161 -37 170 -33 q 125 -45 145 -45 q 83 -35 103 -45 q 47 -6 60 -24 q 34 35 34 13 q 44 71 34 53 q 262 431 240 395 q 288 473 276 450 q 361 595 311 513 q 404 665 382 630 q 569 939 486 802 l 592 977 q 626 1008 604 998 q 672 1019 648 1019 q 713 1010 693 1019 q 735 994 728 1004 q 748 970 742 984 q 763 917 755 952 q 770 855 770 881 q 768 837 770 844 q 760 849 765 838 q 746 866 752 866 q 734 856 741 866 q 697 762 720 831 l 672 692 q 635 600 656 646 q 617 567 620 567 q 616 570 616 567 q 622 605 616 579 q 630 654 630 640 q 629 662 630 660 q 624 658 625 660 q 622 655 623 656 q 616 654 621 654 q 598 638 610 654 q 559 584 576 612 l 309 172 q 288 116 294 144 l 286 108 q 268 -7 274 51 q 252 -106 262 -57 q 239 -136 246 -136 m 216 520 q 207 530 214 520 q 181 578 196 549 q 154 694 154 633 q 158 749 154 722 q 167 807 161 777 l 171 829 q 126 854 142 831 q 119 877 119 865 q 149 919 119 903 q 168 935 161 925 q 184 965 174 944 l 200 999 q 250 1028 218 1028 q 272 1024 261 1028 q 305 981 305 1008 q 260 702 304 974 q 250 680 257 687 q 233 667 243 672 q 213 649 222 661 q 203 608 203 636 q 212 555 203 580 q 218 524 216 539 q 216 520 218 520 z "},"":{"ha":865,"x_min":34,"x_max":763,"o":"m 206 416 q 191 430 203 416 q 132 593 132 499 q 147 735 134 671 l 166 816 q 125 854 138 838 q 119 877 119 865 q 148 919 119 903 q 168 935 161 925 q 183 965 174 944 l 200 999 q 220 1020 207 1013 q 250 1028 234 1028 q 271 1024 260 1028 q 304 981 304 1008 q 261 706 304 974 q 251 682 258 691 q 235 665 244 673 q 208 636 221 655 q 178 534 178 586 q 195 456 178 495 q 208 419 208 428 q 206 416 208 416 m 550 -246 q 542 -199 542 -224 l 542 -189 q 551 -85 542 -150 l 556 -43 q 550 -35 556 -39 l 547 -33 q 523 -22 537 -23 q 495 -9 509 -20 q 477 43 477 8 q 529 104 477 90 q 610 227 604 193 q 574 222 591 227 q 551 210 557 216 q 512 192 534 192 q 480 203 495 192 q 463 241 463 220 q 474 275 463 259 q 533 311 492 294 q 613 328 574 328 q 679 307 651 327 q 712 236 712 281 q 690 161 711 201 q 651 98 676 135 l 705 88 q 736 72 724 85 q 749 39 749 58 l 748 32 q 696 -12 739 -11 q 638 -48 668 -15 q 554 -234 568 -127 q 551 -245 553 -239 l 550 -246 m 124 -44 q 82 -35 102 -44 q 46 -6 59 -24 q 34 34 34 13 q 44 71 34 52 l 171 281 q 211 338 195 323 l 222 347 q 245 370 237 359 q 259 406 254 382 q 265 431 262 422 q 281 462 269 443 l 288 473 q 591 977 579 956 q 625 1008 604 998 q 671 1019 647 1019 q 713 1010 692 1019 q 752 973 742 996 q 763 924 763 951 q 758 869 763 898 q 753 835 755 852 q 741 748 749 782 q 709 667 732 715 q 676 605 696 639 q 659 580 665 585 q 658 585 658 580 q 662 610 658 593 q 671 643 667 627 q 678 667 676 659 q 685 718 685 691 q 678 748 685 735 q 669 754 674 754 q 641 722 658 754 l 203 -2 q 170 -33 191 -22 q 124 -44 148 -44 z "},"":{"ha":863,"x_min":34,"x_max":762,"o":"m 657 -261 q 628 -230 648 -261 q 593 -156 608 -198 q 574 -71 576 -108 q 574 -57 574 -65 q 576 -42 575 -48 q 578 -33 577 -35 q 584 -52 580 -36 q 589 -67 587 -67 q 593 15 589 -67 l 588 25 l 583 38 q 570 69 578 52 q 519 113 548 113 l 513 112 q 466 103 476 103 q 445 108 455 103 q 414 154 414 125 q 419 176 414 165 q 439 218 428 197 l 515 382 q 535 404 522 396 q 563 412 548 412 q 585 407 574 412 q 614 359 614 389 q 610 338 614 349 l 558 228 l 597 236 l 598 251 l 597 258 q 595 275 595 267 q 604 305 595 292 q 629 324 612 318 q 647 328 637 328 q 676 318 663 328 q 696 293 690 309 q 700 244 700 277 l 700 231 q 712 197 712 216 q 696 158 712 174 q 675 -12 683 13 q 663 -35 669 -25 q 639 -134 639 -75 q 654 -220 639 -178 q 661 -254 661 -244 q 657 -261 661 -261 m 155 385 q 126 415 137 392 q 113 456 116 437 q 102 541 105 496 q 87 656 98 602 q 82 692 82 680 q 119 750 82 738 q 134 752 127 752 q 177 728 160 752 q 198 722 184 722 q 222 724 214 722 q 237 730 230 726 l 239 731 l 224 743 l 216 743 q 184 753 198 743 q 165 783 170 764 q 163 795 163 789 q 195 843 163 826 q 206 847 201 846 q 222 867 216 853 q 172 845 207 863 q 146 839 159 839 q 100 866 119 839 q 94 890 94 878 q 122 937 94 919 q 233 970 189 970 q 280 960 262 970 q 329 876 329 935 q 310 808 329 842 q 345 766 336 785 q 351 733 351 752 q 324 667 351 695 q 264 628 300 641 q 211 618 240 621 q 157 548 176 612 q 140 450 140 496 q 150 399 140 421 q 155 385 153 393 m 124 -44 q 83 -35 103 -44 q 47 -6 60 -24 q 34 35 34 13 q 44 71 34 53 l 85 140 q 158 258 121 199 q 188 288 172 278 q 211 309 200 296 q 227 350 222 322 q 235 384 231 373 q 248 408 239 394 l 592 977 q 626 1008 604 998 q 672 1019 648 1019 q 713 1010 693 1019 q 749 981 736 1000 q 762 941 762 962 q 751 905 762 922 l 416 349 q 382 248 400 321 l 361 168 q 331 66 344 101 q 304 4 311 11 l 302 3 q 300 12 300 3 q 304 51 302 33 q 309 96 309 73 q 307 119 309 107 q 302 128 304 128 q 296 124 300 128 q 288 117 293 121 q 229 39 262 100 q 203 -2 211 9 q 170 -33 191 -22 q 124 -44 149 -44 z "},"":{"ha":776,"x_min":34,"x_max":674,"o":"m 492 991 q 486 994 490 991 q 460 1041 472 1006 q 444 1081 454 1061 q 421 1114 435 1101 q 387 1128 407 1128 l 380 1128 q 332 1143 352 1128 q 277 1236 277 1183 q 281 1265 277 1253 q 320 1320 294 1299 q 388 1344 354 1344 l 402 1343 q 448 1324 428 1340 q 477 1282 471 1304 q 485 1234 484 1259 l 488 1205 q 503 1069 500 1139 l 503 1067 q 505 1033 505 1048 q 492 991 505 991 m 201 -286 q 186 -254 193 -273 q 165 -125 168 -191 l 161 -80 q 157 -32 161 -57 q 141 9 153 -7 q 123 28 134 18 q 44 165 66 80 q 34 252 34 204 q 83 481 34 355 q 307 864 143 642 q 309 870 309 867 q 303 879 309 873 q 291 904 293 889 q 289 922 290 905 q 312 985 289 958 q 389 1021 339 1019 q 421 1013 411 1021 q 442 992 431 1005 q 467 963 452 979 q 479 949 475 954 q 484 937 483 944 q 487 916 486 930 l 488 906 q 490 846 490 876 l 489 807 q 486 716 486 766 l 487 651 q 481 573 487 609 l 480 568 q 455 507 467 507 q 449 512 452 507 q 446 531 446 517 q 445 563 445 546 q 444 595 445 583 q 439 618 443 602 q 429 647 435 633 q 413 661 422 661 q 377 623 397 659 l 374 617 q 270 422 313 524 q 231 258 231 321 q 313 152 231 152 l 328 153 q 369 168 351 157 q 400 222 400 187 q 398 241 400 231 q 396 260 396 250 q 413 315 396 290 q 475 356 435 347 q 496 358 486 358 q 551 340 526 358 l 551 340 q 600 283 574 322 q 635 226 622 251 q 674 65 674 152 q 672 35 674 54 q 658 -22 667 -12 q 655 -4 656 -15 q 654 18 654 7 q 653 37 654 29 q 638 98 650 63 q 602 145 625 133 l 597 146 q 585 139 589 146 q 578 125 581 133 q 566 98 572 111 q 543 33 551 74 q 536 1 541 16 q 522 -23 531 -23 q 507 -16 515 -23 q 475 -4 489 -4 q 453 -9 465 -4 l 437 -17 q 410 -32 421 -24 q 385 -59 399 -39 q 356 -114 365 -87 q 340 -173 347 -142 q 337 -183 339 -178 q 334 -189 336 -189 q 328 -183 332 -189 q 315 -133 321 -165 q 308 -97 313 -117 q 274 -45 296 -45 q 239 -70 253 -46 q 219 -113 227 -92 l 216 -121 q 200 -229 200 -174 q 202 -270 200 -249 l 203 -277 l 201 -286 z "},"":{"ha":814,"x_min":0,"x_max":787,"o":"m 567 -232 q 563 -229 565 -231 q 558 -225 561 -227 q 526 -189 541 -211 q 502 -146 510 -167 q 484 -60 484 -100 q 479 -18 483 -41 q 462 28 473 9 q 450 52 455 39 q 446 81 446 64 q 450 111 446 94 q 490 330 476 221 q 409 335 450 332 q 328 340 368 338 q 341 243 333 288 q 354 186 347 212 q 369 132 360 161 q 382 60 378 104 q 387 -21 387 16 l 386 -50 q 376 -191 378 -191 q 363 -144 372 -191 q 356 -98 356 -102 q 340 -54 347 -54 q 338 -56 340 -54 q 336 -76 336 -62 l 336 -96 q 332 -117 336 -111 q 320 -104 329 -115 q 296 -81 310 -90 q 281 -75 288 -76 q 262 -85 269 -75 q 252 -109 255 -96 q 249 -134 249 -123 q 260 -191 249 -156 q 262 -198 262 -196 q 260 -201 262 -201 q 234 -171 255 -201 q 205 -104 214 -141 q 192 -40 197 -73 q 183 3 187 -7 q 174 22 180 13 q 161 47 168 32 q 104 304 123 140 q 24 348 56 308 q 0 417 0 380 q 96 537 0 495 q 103 621 98 580 q 170 843 119 747 q 319 983 221 940 q 373 998 345 993 q 427 1004 401 1004 q 488 996 458 1004 q 647 878 590 970 q 727 552 722 760 q 783 479 770 529 q 787 453 787 466 q 769 391 787 419 q 720 349 751 363 q 673 73 705 210 q 669 28 669 53 l 670 -40 q 668 -75 669 -56 q 663 -110 667 -95 q 652 -125 660 -125 q 625 -86 643 -125 q 607 -54 617 -68 q 585 -40 597 -40 q 555 -62 572 -40 q 535 -127 535 -92 q 543 -170 535 -149 q 562 -211 551 -191 q 571 -231 567 -220 l 567 -232 m 501 556 q 456 755 494 696 q 435 777 445 774 q 427 777 431 777 q 414 776 421 777 q 406 774 410 776 l 404 773 q 328 593 347 747 l 325 567 q 389 563 357 566 l 501 556 m 452 1092 q 423 1097 437 1092 q 334 1197 364 1116 q 305 1310 311 1263 q 294 1369 301 1336 q 288 1402 288 1386 q 296 1442 288 1423 q 349 1492 312 1476 q 383 1498 366 1498 q 422 1489 404 1498 q 472 1436 456 1473 q 526 1249 503 1347 l 530 1231 q 543 1166 543 1185 l 543 1159 q 496 1103 530 1121 q 452 1092 475 1092 z "},"":{"ha":836,"x_min":0,"x_max":787,"o":"m 567 -232 q 563 -230 565 -232 q 559 -225 561 -227 q 526 -189 542 -211 q 502 -146 511 -167 q 484 -60 485 -100 q 479 -18 483 -40 q 462 28 473 9 q 450 52 455 39 q 446 81 446 64 q 448 103 446 91 q 490 330 476 217 q 409 335 450 332 q 328 340 368 338 q 341 243 333 288 q 354 186 347 212 q 370 132 360 161 q 383 57 379 102 q 387 -26 387 11 l 387 -50 l 379 -174 q 376 -191 378 -191 q 363 -144 372 -191 q 356 -98 356 -102 q 340 -54 347 -54 q 338 -56 340 -54 q 336 -76 336 -62 l 336 -96 q 332 -117 336 -111 q 321 -105 328 -115 q 305 -87 314 -95 l 303 -86 q 294 -79 299 -83 q 281 -75 288 -76 q 262 -85 269 -75 q 252 -109 255 -96 q 249 -132 249 -123 q 259 -186 249 -152 q 262 -198 262 -196 q 260 -201 262 -201 q 234 -171 255 -201 q 205 -104 214 -141 q 192 -40 197 -73 q 183 3 187 -7 q 174 22 180 13 q 119 202 142 74 q 104 304 110 250 q 24 348 56 308 q 0 417 0 380 q 11 466 0 442 q 44 507 22 490 q 96 537 68 525 q 104 621 98 580 q 170 843 119 747 q 319 983 221 940 q 373 998 345 993 q 427 1004 401 1004 q 488 996 458 1004 q 647 878 589 970 q 727 552 722 760 q 783 479 770 529 q 787 453 787 466 q 769 391 787 419 q 720 349 751 363 q 673 73 705 210 q 669 28 669 53 l 670 -40 q 668 -75 669 -56 q 663 -110 667 -95 q 652 -125 660 -125 q 625 -86 643 -125 q 607 -54 617 -68 q 585 -40 597 -40 q 555 -62 572 -40 q 535 -127 535 -92 q 543 -170 535 -150 q 562 -211 551 -191 q 571 -231 567 -218 l 567 -232 m 501 556 q 456 755 495 694 q 435 777 445 774 q 427 777 431 777 q 421 777 424 777 q 414 776 418 776 q 405 773 410 776 q 328 593 347 747 l 325 567 q 390 563 357 566 q 501 556 479 557 m 410 1092 q 366 1103 387 1092 q 319 1159 332 1121 l 318 1166 q 331 1231 318 1185 l 342 1272 q 389 1436 363 1360 q 439 1489 405 1473 q 478 1498 458 1498 q 512 1492 495 1498 q 565 1442 549 1476 q 574 1402 574 1423 q 568 1369 574 1386 q 556 1310 560 1336 q 528 1197 550 1263 q 438 1097 497 1116 q 410 1092 424 1092 z "},"":{"ha":836,"x_min":0,"x_max":787,"o":"m 567 -232 q 563 -230 565 -232 q 559 -225 561 -227 q 526 -189 542 -211 q 502 -146 511 -167 q 484 -60 485 -100 q 479 -18 483 -40 q 462 28 473 9 q 450 52 455 39 q 446 81 446 64 q 448 103 446 91 q 490 330 476 217 q 409 335 450 332 q 328 340 368 338 q 341 243 333 288 q 354 186 347 212 q 370 132 360 161 q 383 57 379 102 q 387 -26 387 11 l 387 -50 l 379 -174 q 376 -191 378 -191 q 363 -144 372 -191 q 356 -98 356 -102 q 340 -54 347 -54 q 338 -56 340 -54 q 336 -76 336 -62 l 336 -96 q 332 -117 336 -111 q 321 -105 328 -115 q 305 -87 314 -95 l 303 -86 q 294 -79 299 -83 q 281 -75 288 -76 q 262 -85 269 -75 q 252 -109 255 -96 q 249 -132 249 -123 q 259 -186 249 -152 q 262 -198 262 -196 q 260 -201 262 -201 q 234 -171 255 -201 q 205 -104 214 -141 q 192 -40 197 -73 q 183 3 187 -7 q 174 22 180 13 q 119 202 142 74 q 104 304 110 250 q 24 348 56 308 q 0 417 0 380 q 11 466 0 442 q 44 507 22 490 q 96 537 68 525 q 104 621 98 580 q 170 843 119 747 q 319 983 221 940 q 373 998 345 993 q 427 1004 401 1004 q 488 996 458 1004 q 647 878 589 970 q 727 552 722 760 q 783 479 770 529 q 787 453 787 466 q 769 391 787 419 q 720 349 751 363 q 673 73 705 210 q 669 28 669 53 l 670 -41 q 668 -76 669 -57 q 663 -111 667 -96 q 652 -125 660 -125 q 625 -86 643 -125 q 607 -54 617 -68 q 585 -40 597 -40 q 555 -62 572 -40 q 535 -127 535 -92 q 543 -170 535 -150 q 562 -211 551 -191 q 571 -231 567 -218 l 567 -232 m 501 556 q 456 755 495 694 q 435 777 445 774 q 427 777 431 777 q 421 777 424 777 q 414 776 418 776 q 405 773 410 776 q 328 593 347 747 l 325 567 q 390 563 357 566 q 501 556 479 557 m 654 1048 q 618 1057 636 1048 q 552 1107 583 1075 q 489 1181 522 1139 l 463 1213 l 264 1122 q 231 1114 248 1114 q 186 1127 207 1114 q 155 1163 165 1140 q 147 1197 147 1180 q 160 1241 147 1221 q 196 1273 173 1261 l 452 1390 q 487 1397 469 1397 q 547 1371 521 1397 q 587 1324 569 1347 q 612 1292 598 1309 q 692 1206 671 1217 q 726 1175 713 1195 q 738 1131 738 1154 q 730 1095 738 1113 q 698 1061 718 1073 q 654 1048 677 1048 z "},"":{"ha":819,"x_min":0,"x_max":787,"o":"m 567 -232 q 563 -230 565 -232 q 559 -225 561 -227 q 526 -189 542 -211 q 502 -146 511 -167 q 484 -60 485 -100 q 479 -18 483 -40 q 462 28 473 9 q 450 52 455 39 q 446 81 446 64 q 450 111 446 94 q 490 330 476 221 q 409 335 450 332 q 328 340 368 338 q 341 243 333 288 q 354 186 347 212 q 370 132 360 161 q 383 57 379 102 q 387 -26 387 11 l 387 -50 l 379 -174 q 376 -191 378 -191 q 363 -144 372 -191 q 356 -98 356 -102 q 340 -54 347 -54 q 338 -56 340 -54 q 336 -76 336 -62 l 336 -96 q 332 -117 336 -111 q 321 -105 328 -115 q 296 -81 311 -91 q 281 -75 288 -76 q 262 -85 269 -75 q 252 -109 255 -96 q 249 -132 249 -123 q 259 -186 249 -152 q 262 -198 262 -196 q 260 -201 262 -201 q 234 -171 255 -201 q 205 -104 214 -141 q 192 -40 197 -73 q 183 3 187 -7 q 174 22 180 13 q 161 47 168 32 q 104 304 123 140 q 24 348 56 308 q 0 417 0 380 q 11 466 0 442 q 44 507 22 490 q 96 537 68 525 q 170 843 104 718 q 319 983 221 940 q 373 998 345 993 q 427 1004 401 1004 q 488 996 458 1004 q 647 878 589 970 q 727 552 722 760 q 783 479 770 529 q 787 453 787 466 q 769 391 787 419 q 720 349 751 363 q 673 73 705 210 q 669 28 669 53 l 670 -40 q 668 -75 669 -56 q 663 -110 667 -95 q 652 -125 660 -125 q 625 -86 643 -125 q 607 -54 617 -68 q 585 -40 597 -40 q 555 -62 572 -40 q 535 -127 535 -92 q 543 -170 535 -150 q 562 -211 551 -191 q 571 -231 567 -218 l 567 -232 m 501 556 q 456 755 495 694 q 435 777 445 774 q 427 777 431 777 q 421 777 424 777 q 413 776 418 776 q 405 773 409 776 q 328 593 347 747 l 325 567 q 391 563 358 566 q 501 556 477 557 m 288 1171 q 277 1160 284 1166 q 226 1132 264 1148 q 184 1124 206 1124 q 144 1132 164 1124 q 85 1190 102 1150 q 77 1231 77 1209 q 85 1272 77 1251 q 152 1357 111 1333 q 245 1382 193 1382 l 250 1382 q 346 1366 296 1381 q 444 1333 395 1352 l 449 1332 q 471 1324 461 1327 q 492 1317 481 1320 q 506 1312 498 1315 q 532 1336 517 1326 q 591 1353 558 1353 l 596 1353 q 670 1317 642 1349 q 697 1246 697 1286 l 697 1239 q 644 1120 691 1154 q 543 1090 602 1090 l 526 1090 q 451 1105 490 1093 q 414 1118 431 1111 q 371 1132 394 1125 q 294 1166 314 1153 q 288 1171 291 1168 z "},"":{"ha":813,"x_min":0,"x_max":787,"o":"m 567 -232 q 563 -230 565 -232 q 559 -225 561 -227 q 526 -189 542 -211 q 502 -146 511 -167 q 484 -58 484 -99 q 480 -18 483 -39 q 463 27 474 9 q 451 51 456 39 q 446 79 446 63 q 448 104 446 90 l 450 111 q 490 330 477 221 l 414 334 q 328 340 371 338 q 342 243 333 288 q 354 186 347 212 q 370 132 360 161 q 383 58 379 103 q 387 -24 387 13 l 387 -50 l 379 -174 q 376 -191 378 -191 q 363 -144 372 -191 q 356 -98 356 -102 q 340 -54 347 -54 q 338 -56 340 -54 q 336 -76 336 -62 l 336 -96 q 332 -117 336 -111 q 321 -105 328 -115 q 305 -87 314 -95 l 303 -86 q 294 -79 299 -83 q 281 -75 288 -76 q 262 -85 269 -75 q 252 -109 255 -96 q 249 -132 249 -123 q 259 -186 249 -152 q 262 -198 262 -196 q 260 -201 262 -201 q 254 -195 258 -201 q 235 -171 245 -186 q 204 -102 213 -138 q 193 -37 197 -71 q 184 2 189 -9 q 174 22 180 13 q 119 202 143 74 q 104 304 110 250 q 24 348 56 308 q 0 417 0 381 q 11 466 0 442 q 44 507 22 490 q 96 537 68 525 q 104 621 98 580 q 170 843 119 747 q 319 983 221 940 q 373 998 345 993 q 427 1004 401 1004 q 488 996 458 1004 q 647 878 589 970 q 713 697 694 804 q 728 552 725 630 q 783 479 769 529 q 787 452 787 465 q 769 391 787 418 q 720 349 751 363 q 673 73 705 210 q 670 25 670 52 l 670 -33 l 669 -71 q 652 -125 666 -125 q 625 -86 643 -125 q 585 -40 606 -40 q 555 -62 572 -40 q 535 -127 535 -93 q 543 -170 535 -150 q 562 -211 551 -191 q 571 -231 567 -218 l 567 -232 m 501 556 q 456 755 495 694 q 435 777 445 774 q 427 777 431 777 q 421 777 424 777 q 414 776 418 776 q 405 773 410 776 q 328 593 347 747 l 325 567 q 390 563 357 566 q 501 556 479 557 m 608 1225 q 640 1234 635 1227 q 643 1247 643 1238 q 642 1263 643 1254 q 607 1296 631 1285 q 572 1304 589 1304 q 554 1299 560 1304 q 544 1285 547 1295 q 563 1238 548 1250 q 608 1225 577 1225 m 617 1103 q 544 1112 578 1103 q 480 1147 510 1120 q 420 1289 427 1193 l 421 1300 q 477 1396 435 1364 q 574 1428 520 1428 q 659 1408 617 1428 q 758 1305 727 1376 q 766 1247 766 1275 q 739 1160 766 1196 q 617 1103 701 1108 m 233 1225 q 264 1234 259 1227 q 267 1246 267 1238 q 265 1263 267 1253 q 231 1296 254 1285 q 197 1304 213 1304 q 176 1299 184 1304 q 168 1285 172 1295 q 186 1238 172 1250 q 233 1225 201 1225 m 241 1103 q 168 1112 203 1103 q 104 1147 134 1120 q 44 1285 51 1192 q 45 1300 44 1293 q 101 1396 58 1364 q 197 1428 144 1428 q 283 1408 241 1428 q 382 1305 351 1376 q 390 1246 390 1274 q 363 1160 390 1196 q 241 1103 324 1108 z "},"":{"ha":817,"x_min":0,"x_max":787,"o":"m 420 1213 q 452 1222 447 1215 q 454 1235 454 1225 q 453 1251 454 1242 q 418 1284 442 1273 q 384 1292 400 1292 q 355 1273 362 1292 q 374 1225 359 1238 q 420 1213 388 1213 m 429 1090 q 356 1099 391 1090 q 292 1135 321 1108 q 232 1273 239 1180 l 233 1288 q 289 1384 246 1352 q 385 1415 332 1415 q 471 1396 429 1415 q 570 1293 539 1364 q 578 1234 578 1261 q 551 1148 578 1183 q 429 1090 512 1096 m 567 -232 q 563 -230 565 -232 q 559 -225 561 -227 q 526 -189 542 -211 q 502 -146 511 -167 q 484 -58 484 -99 q 480 -18 483 -39 q 463 27 474 9 q 451 51 456 39 q 446 79 446 63 q 448 104 446 90 l 450 111 q 490 330 477 221 l 414 334 q 328 340 371 338 q 342 243 333 288 q 354 186 347 212 q 370 132 360 161 q 383 58 379 103 q 387 -24 387 13 l 387 -50 l 379 -174 q 376 -191 378 -191 q 363 -144 372 -191 q 356 -98 356 -102 q 340 -54 347 -54 q 338 -56 340 -54 q 336 -76 336 -62 l 336 -96 q 332 -117 336 -111 q 321 -105 328 -115 q 305 -87 314 -95 l 303 -86 q 294 -79 299 -83 q 281 -75 288 -76 q 262 -85 269 -75 q 252 -109 255 -96 q 249 -132 249 -123 q 259 -186 249 -152 q 262 -198 262 -196 q 260 -201 262 -201 q 254 -195 258 -201 q 235 -171 245 -186 q 204 -102 213 -138 q 193 -37 197 -71 q 184 2 189 -9 q 174 22 180 13 q 119 202 143 74 q 104 304 110 250 q 24 348 56 308 q 0 417 0 381 q 11 466 0 442 q 44 507 22 490 q 96 537 68 525 q 104 621 98 580 q 170 843 119 747 q 319 983 221 940 q 373 998 345 993 q 427 1004 401 1004 q 488 996 458 1004 q 647 878 589 970 q 713 697 694 804 q 728 552 725 630 q 783 479 769 529 q 787 452 787 465 q 769 391 787 418 q 720 349 751 363 q 673 73 705 210 q 670 25 670 52 l 670 -33 l 669 -71 q 652 -125 666 -125 q 625 -86 643 -125 q 585 -40 606 -40 q 555 -62 572 -40 q 535 -127 535 -93 q 543 -170 535 -150 q 562 -211 551 -191 q 571 -231 567 -218 l 567 -232 m 501 556 q 456 755 495 694 q 435 777 445 774 q 427 777 431 777 q 421 777 424 777 q 414 776 418 776 q 405 773 410 776 q 328 593 347 747 l 325 567 q 390 563 357 566 q 501 556 479 557 z "},"":{"ha":1326,"x_min":0,"x_max":1289,"o":"m 880 -238 q 864 -213 871 -229 q 856 -197 860 -204 q 833 -158 841 -172 q 823 -130 826 -144 q 816 -95 820 -116 q 812 -71 812 -73 q 805 -41 810 -56 q 788 -21 800 -27 q 767 -14 777 -14 q 744 -24 756 -14 q 725 -48 732 -33 q 719 -81 719 -64 q 735 -129 719 -104 q 748 -154 745 -141 q 718 -132 734 -148 q 695 -104 703 -117 q 675 -7 675 -66 l 675 21 q 671 59 675 46 q 669 28 669 44 l 670 -33 q 668 -75 670 -45 q 652 -125 665 -125 q 625 -86 643 -125 q 607 -54 617 -68 q 585 -40 597 -40 q 555 -62 572 -40 q 535 -127 535 -91 q 543 -170 535 -150 q 562 -211 551 -191 q 571 -231 566 -218 l 567 -232 q 564 -231 566 -232 q 559 -225 563 -229 q 526 -189 542 -211 q 484 -60 486 -131 q 479 -18 483 -40 q 462 28 473 9 q 450 52 455 39 q 446 81 446 64 q 450 111 446 96 q 490 330 476 221 q 409 335 450 332 q 328 340 368 338 q 370 132 340 217 q 383 57 379 102 q 387 -26 387 11 l 387 -50 l 379 -174 q 376 -191 378 -191 q 370 -177 373 -191 q 363 -144 367 -163 l 353 -83 q 340 -54 347 -54 q 338 -56 340 -54 q 336 -76 336 -62 l 336 -96 q 332 -117 336 -111 q 321 -105 328 -115 q 294 -79 311 -90 q 281 -75 288 -75 q 252 -109 260 -75 q 249 -132 249 -123 q 259 -186 249 -153 q 262 -198 262 -195 q 260 -201 262 -201 q 254 -195 258 -201 q 234 -170 242 -182 q 204 -103 214 -142 q 191 -29 195 -64 q 183 2 187 -8 q 174 22 180 13 q 119 202 142 77 q 104 304 110 250 q 24 348 56 308 q 0 417 0 380 q 12 466 0 442 q 96 537 31 509 q 104 621 98 580 q 170 843 119 747 q 319 983 221 940 q 427 1004 372 1004 q 488 996 458 1004 q 647 878 589 970 q 688 791 672 840 q 810 940 726 888 q 922 975 861 970 l 939 976 q 1072 938 1014 976 q 1175 839 1131 899 q 1219 704 1219 779 q 1212 615 1219 655 q 1204 534 1204 575 q 1200 510 1204 510 q 1196 520 1198 510 q 1190 570 1190 540 q 1187 612 1190 591 q 1164 649 1183 649 q 1144 642 1155 649 l 1134 638 q 1099 633 1116 633 q 1002 688 1040 633 q 938 749 966 749 q 910 730 922 747 q 897 694 897 713 l 899 684 q 926 648 902 665 q 998 618 949 631 q 1061 577 1038 608 q 1085 508 1085 546 q 1082 481 1085 494 q 1041 418 1072 441 q 972 395 1010 395 q 940 399 959 395 l 939 399 q 889 407 911 406 q 844 399 854 407 q 827 365 833 391 q 821 309 821 344 q 857 200 821 231 q 893 184 872 187 l 905 183 q 1014 241 962 183 q 1067 336 1046 277 q 1111 393 1081 374 q 1175 413 1141 413 q 1251 383 1215 413 q 1279 339 1271 364 q 1289 287 1287 315 l 1289 258 q 1280 176 1289 214 q 1253 96 1272 138 q 1247 87 1249 87 q 1244 103 1244 87 q 1235 147 1244 147 q 1209 123 1228 147 q 1156 63 1188 94 q 1103 20 1133 41 q 1053 -50 1069 -9 q 1017 -106 1039 -81 q 1011 -110 1014 -110 q 1008 -106 1009 -110 q 1005 -96 1006 -102 q 1002 -81 1004 -89 q 994 -70 1000 -74 q 988 -68 991 -68 q 964 -100 977 -68 q 946 -122 955 -122 q 921 -101 937 -122 q 893 -81 904 -81 q 872 -105 882 -81 q 865 -140 865 -124 q 874 -185 865 -159 q 882 -223 882 -204 q 880 -238 882 -231 m 501 556 q 456 755 495 694 q 435 777 445 774 q 427 777 431 777 q 421 777 424 777 q 414 776 418 776 q 405 773 410 776 q 328 593 347 747 l 325 567 q 390 563 357 566 q 501 556 479 557 z "},"":{"ha":1213,"x_min":0,"x_max":1166,"o":"m 351 198 q 393 232 373 198 q 437 382 427 292 q 441 453 441 420 l 441 466 q 462 532 441 503 q 516 573 482 561 q 450 613 476 583 q 425 683 425 643 q 426 696 425 690 q 427 709 427 703 q 414 726 427 726 l 412 726 q 347 640 378 719 q 334 618 338 618 q 324 637 328 618 q 311 675 318 659 q 296 692 304 692 q 266 659 284 692 q 230 532 237 599 q 227 471 227 502 q 243 338 227 401 q 310 215 266 255 q 330 202 321 205 q 351 198 338 199 m 756 -237 q 747 -225 751 -233 q 740 -210 743 -218 q 732 -197 736 -202 q 710 -157 718 -172 q 700 -129 703 -143 q 693 -94 696 -115 q 689 -70 689 -73 q 682 -41 687 -55 q 665 -20 677 -26 q 644 -14 653 -14 q 621 -23 633 -14 q 602 -48 608 -33 q 595 -80 595 -63 q 612 -128 595 -104 q 625 -153 622 -140 q 595 -132 610 -147 q 571 -102 579 -116 q 559 -72 564 -88 q 531 -121 547 -99 q 524 -129 526 -129 q 523 -127 523 -129 q 526 -115 523 -123 l 531 -96 q 548 -8 548 -42 q 537 29 548 15 q 526 33 532 33 q 502 20 515 33 l 501 20 q 471 -24 481 3 q 457 -79 462 -51 q 429 -173 449 -117 q 416 -199 422 -194 q 415 -201 416 -201 q 414 -197 414 -201 q 412 -182 412 -196 l 411 -163 q 407 -113 411 -134 q 382 -75 400 -78 q 361 -99 371 -75 q 351 -125 356 -110 l 348 -133 q 340 -146 343 -146 q 325 -100 333 -146 q 313 -51 321 -75 q 281 -20 304 -28 l 273 -17 q 250 -12 259 -12 q 235 -35 235 -12 q 240 -79 235 -50 q 247 -138 247 -120 q 243 -149 247 -149 q 231 -134 239 -149 l 226 -123 q 189 -52 204 -77 q 153 19 172 -20 q 131 41 142 41 q 117 32 124 41 l 100 5 q 92 -5 96 -3 q 87 3 89 -5 l 87 3 q 82 61 84 19 q 73 143 78 122 q 50 205 67 167 q 0 474 0 332 q 43 715 0 604 q 121 847 72 789 q 227 932 170 902 q 378 970 300 970 q 493 948 439 970 q 604 863 560 920 q 688 941 638 911 q 799 976 739 971 l 816 977 q 949 938 890 977 q 1052 840 1007 900 q 1096 705 1096 780 q 1088 616 1096 656 q 1081 535 1081 576 q 1077 511 1080 511 q 1072 521 1075 511 q 1067 571 1067 541 q 1064 612 1066 592 q 1041 650 1060 650 q 1021 643 1031 650 l 1010 639 q 975 633 993 633 q 878 689 917 633 q 814 750 842 750 q 786 731 799 748 q 774 694 774 713 l 775 684 q 802 649 779 666 q 875 618 826 631 q 938 577 914 608 q 962 509 962 547 q 958 481 962 495 q 917 419 948 442 q 848 395 886 395 q 817 399 836 395 l 815 400 q 766 408 787 407 q 720 399 731 408 q 703 366 709 391 q 698 309 698 345 q 733 201 698 232 q 770 184 749 188 l 782 184 q 890 242 839 184 q 943 337 922 278 q 987 394 958 374 q 1051 414 1017 414 q 1127 384 1091 414 q 1156 340 1147 365 q 1165 288 1164 315 l 1166 259 q 1157 177 1166 215 q 1129 97 1148 139 q 1124 88 1125 88 q 1121 104 1121 88 q 1112 148 1121 148 q 1086 123 1105 148 q 1032 64 1065 95 q 979 20 1010 42 q 929 -50 945 -9 q 894 -106 916 -81 q 888 -109 890 -109 q 884 -105 886 -109 q 882 -95 883 -102 q 879 -81 881 -88 q 870 -69 876 -73 q 865 -68 867 -68 q 851 -78 857 -68 q 840 -98 846 -87 q 823 -121 831 -121 q 810 -115 817 -121 q 797 -101 804 -109 q 783 -86 790 -93 q 770 -80 777 -80 q 749 -104 759 -80 q 742 -140 742 -123 q 751 -184 742 -158 q 758 -222 758 -203 q 756 -237 758 -230 z "},"":{"ha":680,"x_min":0,"x_max":657,"o":"m 288 -36 l 291 -25 q 265 -8 280 -14 q 250 -5 256 -5 q 234 -11 240 -5 q 222 -27 228 -16 q 209 -53 214 -39 q 204 -81 204 -66 q 208 -117 205 -98 l 208 -119 q 205 -122 208 -122 q 197 -119 202 -122 q 188 -113 193 -116 q 182 -107 184 -109 q 169 -79 172 -94 q 165 -47 165 -64 q 163 -18 165 -33 q 143 42 157 18 q 106 91 128 66 q 101 97 104 94 q 31 225 54 155 q 2 368 8 294 q 0 426 0 397 q 15 584 0 504 q 80 784 36 694 q 192 932 125 875 q 345 998 259 990 l 363 999 q 443 985 405 999 q 538 909 501 962 l 538 909 q 579 793 572 861 l 580 772 q 554 642 580 713 q 483 575 534 593 q 444 551 456 566 q 424 511 433 537 q 402 479 410 479 q 389 495 394 479 q 380 528 384 511 q 378 540 379 534 q 373 564 374 554 q 366 592 370 579 q 351 627 362 606 q 336 682 336 654 q 343 724 336 703 q 353 770 353 751 q 283 683 317 753 q 237 542 252 620 q 227 432 227 487 q 229 387 227 409 q 252 281 233 326 q 306 217 271 236 l 305 217 l 309 216 q 321 213 315 213 q 341 219 330 213 q 422 321 380 239 l 422 321 q 423 323 422 322 q 440 361 431 339 q 483 413 454 394 q 545 431 511 431 q 588 422 566 431 q 640 380 622 408 q 657 319 657 353 q 654 291 657 305 q 650 244 650 266 q 651 217 650 231 q 652 189 652 203 q 650 157 652 174 q 639 104 646 132 q 632 75 635 89 q 629 63 631 71 q 625 47 627 55 q 619 37 622 39 l 617 36 q 616 37 616 36 q 616 41 616 39 l 616 45 l 615 56 q 613 89 615 70 q 607 125 612 109 q 595 146 603 141 q 589 146 592 146 q 579 142 583 146 q 571 132 575 138 q 569 129 570 130 q 546 88 553 105 q 534 46 540 71 q 532 36 533 41 q 509 -87 517 -24 q 490 -146 507 -119 q 487 -134 487 -141 l 488 -120 q 484 -78 488 -106 q 472 -24 479 -50 q 454 12 465 3 q 444 15 449 15 q 422 8 431 15 q 411 3 417 5 q 375 -35 387 -9 q 372 -42 373 -39 q 395 -94 387 -66 q 399 -123 399 -109 q 396 -147 399 -135 q 381 -179 392 -160 q 360 -216 371 -199 q 351 -233 355 -226 q 318 -292 335 -262 q 293 -336 305 -313 q 281 -351 284 -351 q 278 -347 279 -351 q 277 -338 277 -344 l 278 -322 q 280 -277 280 -299 q 269 -196 280 -235 q 263 -167 263 -181 q 270 -142 263 -153 q 292 -126 276 -131 q 298 -125 296 -125 q 304 -125 301 -125 q 321 -123 316 -125 l 319 -115 q 296 -71 312 -91 q 286 -47 286 -60 q 288 -36 286 -41 z "},"":{"ha":725,"x_min":0,"x_max":695,"o":"m 285 -203 q 269 -178 276 -195 q 261 -163 265 -170 q 238 -123 245 -138 q 228 -95 231 -109 q 221 -58 224 -81 q 218 -36 218 -39 q 211 -7 216 -22 q 194 14 205 7 q 173 20 182 20 q 150 11 162 20 q 131 -14 137 1 q 124 -46 124 -29 q 140 -94 124 -70 q 153 -119 151 -107 q 123 -98 139 -113 q 100 -69 108 -82 q 80 33 80 -31 l 80 54 q 75 99 80 85 q 59 126 69 113 q 36 169 50 140 q 0 342 0 247 l 1 365 q 104 607 5 524 q 76 727 76 667 q 130 894 76 818 q 216 974 165 943 q 328 1010 267 1004 l 345 1010 q 477 972 419 1010 q 580 874 536 934 q 625 741 625 814 q 617 650 625 690 q 610 568 610 610 q 607 545 610 545 q 605 545 606 545 q 601 554 604 545 q 597 575 598 564 q 595 602 596 586 q 593 644 595 623 q 583 677 591 665 q 571 683 578 683 q 551 677 561 683 q 505 667 528 667 q 407 723 446 667 q 345 783 372 783 q 315 764 328 783 q 302 728 302 747 l 304 718 q 331 682 307 700 q 404 652 355 665 q 467 611 444 642 q 490 543 490 581 q 487 515 490 529 q 446 453 477 476 q 377 429 415 429 q 345 433 364 429 l 344 434 q 294 441 317 440 q 249 433 260 441 q 232 400 238 425 q 227 343 227 375 q 262 235 227 266 q 298 218 277 222 l 311 217 q 351 225 330 217 q 419 275 387 239 q 473 371 452 311 q 516 428 487 408 q 580 448 546 448 q 656 418 620 448 q 694 321 691 385 l 695 296 q 686 212 695 251 q 659 130 677 174 q 652 121 654 121 q 650 138 650 121 q 640 182 650 182 q 628 174 635 182 q 614 157 621 166 q 607 147 610 151 q 561 97 583 119 q 508 54 538 75 q 458 -16 474 25 q 422 -72 444 -47 q 416 -75 419 -75 q 411 -62 412 -75 l 408 -47 q 394 -34 404 -37 q 380 -44 386 -34 q 369 -65 374 -54 q 351 -87 360 -87 q 339 -82 345 -87 q 326 -68 333 -76 q 312 -53 319 -60 q 298 -46 305 -46 q 277 -71 288 -46 q 271 -105 271 -90 q 279 -151 271 -124 q 287 -189 287 -170 q 285 -203 287 -196 m 385 1092 q 356 1097 370 1092 q 267 1197 297 1116 q 238 1310 244 1263 q 227 1369 234 1336 q 220 1402 220 1386 q 229 1442 220 1423 q 282 1492 245 1476 q 316 1498 299 1498 q 355 1489 336 1498 q 405 1436 389 1473 q 458 1249 435 1347 l 463 1231 q 476 1166 476 1185 l 475 1159 q 429 1103 463 1121 q 385 1092 408 1092 z "},"":{"ha":725,"x_min":0,"x_max":695,"o":"m 285 -203 q 269 -178 276 -195 q 261 -163 265 -170 q 238 -123 245 -138 q 228 -95 231 -109 q 221 -58 224 -81 q 218 -36 218 -39 q 211 -7 216 -22 q 194 14 205 7 q 173 20 182 20 q 150 11 162 20 q 131 -14 137 1 q 124 -46 124 -29 q 140 -94 124 -70 q 153 -119 151 -107 q 123 -98 139 -113 q 100 -69 108 -82 q 80 33 80 -31 l 80 54 q 75 99 80 85 q 59 126 69 113 q 36 169 50 140 q 0 342 0 247 l 1 365 q 104 607 5 524 q 76 727 76 667 q 130 894 76 818 q 216 974 165 943 q 328 1010 267 1004 l 345 1010 q 477 972 419 1010 q 580 874 536 934 q 625 741 625 814 q 617 650 625 690 q 610 568 610 610 q 607 545 610 545 q 605 545 606 545 q 601 554 604 545 q 597 575 598 564 q 595 602 596 586 q 593 644 595 623 q 583 677 591 665 q 571 683 578 683 q 551 677 561 683 q 505 667 528 667 q 407 723 446 667 q 345 783 372 783 q 315 764 328 783 q 302 728 302 747 l 304 718 q 331 682 307 700 q 404 652 355 665 q 467 611 444 642 q 490 543 490 581 q 487 515 490 529 q 446 453 477 476 q 377 429 415 429 q 345 433 364 429 l 344 434 q 294 441 317 440 q 249 433 260 441 q 232 400 238 425 q 227 343 227 375 q 262 235 227 266 q 298 218 277 222 l 311 217 q 351 225 330 217 q 419 275 387 239 q 473 371 452 311 q 516 428 487 408 q 580 448 546 448 q 656 418 620 448 q 694 321 691 385 l 695 296 q 686 212 695 251 q 659 130 677 174 q 652 121 654 121 q 650 138 650 121 q 640 182 650 182 q 628 174 635 182 q 614 157 621 166 q 607 147 610 151 q 561 97 583 119 q 508 54 538 75 q 458 -16 474 25 q 422 -72 444 -47 q 416 -75 419 -75 q 411 -62 412 -75 l 408 -47 q 394 -34 404 -37 q 380 -44 386 -34 q 369 -65 374 -54 q 351 -87 360 -87 q 339 -82 345 -87 q 326 -68 333 -76 q 312 -53 319 -60 q 298 -46 305 -46 q 277 -71 288 -46 q 271 -105 271 -90 q 279 -151 271 -124 q 287 -189 287 -170 q 285 -203 287 -196 m 410 1092 q 366 1103 387 1092 q 319 1159 332 1121 l 318 1166 q 331 1231 318 1185 l 342 1272 q 389 1436 363 1360 q 439 1489 405 1473 q 478 1498 458 1498 q 512 1492 495 1498 q 565 1442 549 1476 q 574 1402 574 1423 q 568 1369 574 1386 q 556 1310 560 1336 q 528 1197 550 1263 q 438 1097 497 1116 q 410 1092 424 1092 z "},"":{"ha":725,"x_min":0,"x_max":695,"o":"m 285 -203 q 269 -178 276 -195 q 261 -163 265 -170 q 238 -123 245 -138 q 228 -95 231 -109 q 221 -58 224 -81 q 218 -36 218 -39 q 211 -7 216 -22 q 194 14 205 7 q 173 20 182 20 q 150 11 162 20 q 131 -14 137 1 q 124 -46 124 -29 q 140 -94 124 -70 q 153 -119 151 -107 q 123 -98 139 -113 q 100 -69 108 -82 q 80 33 80 -31 l 80 54 q 75 99 80 85 q 59 126 69 113 q 36 169 50 140 q 0 342 0 247 l 1 365 q 104 607 5 524 q 76 727 76 667 q 130 894 76 818 q 216 974 165 943 q 328 1010 267 1004 l 345 1010 q 477 972 419 1010 q 580 874 536 934 q 625 741 625 814 q 617 650 625 690 q 610 568 610 610 q 607 545 610 545 q 605 545 606 545 q 601 554 604 545 q 597 575 598 564 q 595 602 596 586 q 593 644 595 623 q 583 677 591 665 q 571 683 578 683 q 551 677 561 683 q 505 667 528 667 q 407 723 446 667 q 345 783 372 783 q 315 764 328 783 q 302 728 302 747 l 304 718 q 331 682 307 700 q 404 652 355 665 q 467 611 444 642 q 490 543 490 581 q 487 515 490 529 q 446 453 477 476 q 377 429 415 429 q 345 433 364 429 l 344 434 q 294 441 317 440 q 249 433 260 441 q 232 400 238 425 q 227 343 227 375 q 262 235 227 266 q 298 218 277 222 l 311 217 q 351 225 330 217 q 419 275 387 239 q 473 371 452 311 q 516 428 487 408 q 580 448 546 448 q 656 418 620 448 q 694 321 691 385 l 695 296 q 686 212 695 251 q 659 130 677 174 q 652 121 654 121 q 650 138 650 121 q 640 182 650 182 q 628 174 635 182 q 614 157 621 166 q 607 147 610 151 q 561 97 583 119 q 508 54 538 75 q 458 -16 474 25 q 422 -72 444 -47 q 416 -75 419 -75 q 411 -62 412 -75 l 408 -47 q 394 -34 404 -37 q 380 -44 386 -34 q 369 -65 374 -54 q 351 -87 360 -87 q 339 -82 345 -87 q 326 -68 333 -76 q 312 -53 319 -60 q 298 -46 305 -46 q 277 -71 288 -46 q 271 -105 271 -90 q 279 -151 271 -124 q 287 -189 287 -170 q 285 -203 287 -196 m 604 1031 q 568 1040 586 1031 q 502 1090 532 1058 q 439 1164 471 1122 l 413 1196 l 214 1105 q 180 1097 197 1097 q 136 1110 157 1097 q 104 1146 115 1123 q 97 1180 97 1163 q 110 1224 97 1204 q 146 1256 123 1244 l 401 1373 q 437 1380 419 1380 q 497 1354 471 1380 q 536 1307 519 1330 q 562 1275 548 1292 q 642 1189 621 1200 q 675 1158 663 1178 q 688 1114 688 1137 q 680 1078 688 1096 q 648 1044 668 1056 q 604 1031 627 1031 z "},"":{"ha":725,"x_min":0,"x_max":766,"o":"m 285 -203 q 269 -178 276 -195 q 261 -163 265 -170 q 238 -123 245 -138 q 228 -95 231 -109 q 221 -58 224 -81 q 218 -36 218 -39 q 211 -7 216 -22 q 194 14 205 7 q 173 20 182 20 q 150 11 162 20 q 131 -14 137 1 q 124 -46 124 -29 q 140 -94 124 -70 q 153 -119 151 -107 q 123 -98 139 -113 q 100 -69 108 -82 q 80 33 80 -31 l 80 54 q 75 99 80 85 q 59 126 69 113 q 36 169 50 140 q 0 342 0 247 l 1 365 q 104 607 5 524 q 76 727 76 667 q 130 894 76 818 q 216 974 165 943 q 328 1010 267 1004 l 345 1010 q 477 972 419 1010 q 580 874 536 934 q 625 741 625 814 q 617 650 625 690 q 610 568 610 610 q 607 545 610 545 q 605 545 606 545 q 601 554 604 545 q 597 575 598 564 q 595 602 596 586 q 593 644 595 623 q 583 677 591 665 q 571 683 578 683 q 551 677 561 683 q 505 667 528 667 q 407 723 446 667 q 345 783 372 783 q 315 764 328 783 q 302 728 302 747 l 304 718 q 331 682 307 700 q 404 652 355 665 q 467 611 444 642 q 490 543 490 581 q 487 515 490 529 q 446 453 477 476 q 377 429 415 429 q 345 433 364 429 l 344 434 q 294 441 317 440 q 249 433 260 441 q 232 400 238 425 q 227 343 227 375 q 262 235 227 266 q 298 218 277 222 l 311 217 q 351 225 330 217 q 419 275 387 239 q 473 371 452 311 q 516 428 487 408 q 580 448 546 448 q 656 418 620 448 q 694 321 691 385 l 695 296 q 686 212 695 251 q 659 130 677 174 q 652 121 654 121 q 650 138 650 121 q 640 182 650 182 q 628 174 635 182 q 614 157 621 166 q 607 147 610 151 q 561 97 583 119 q 508 54 538 75 q 458 -16 474 25 q 422 -72 444 -47 q 416 -75 419 -75 q 411 -62 412 -75 l 408 -47 q 394 -34 404 -37 q 380 -44 386 -34 q 369 -65 374 -54 q 351 -87 360 -87 q 339 -82 345 -87 q 326 -68 333 -76 q 312 -53 319 -60 q 298 -46 305 -46 q 277 -71 288 -46 q 271 -105 271 -90 q 279 -151 271 -124 q 287 -189 287 -170 q 285 -203 287 -196 m 608 1225 q 640 1234 635 1227 q 643 1247 643 1238 q 642 1263 643 1254 q 607 1296 631 1285 q 572 1304 589 1304 q 554 1299 560 1304 q 544 1285 547 1295 q 563 1238 548 1250 q 608 1225 577 1225 m 617 1103 q 544 1112 578 1103 q 480 1147 510 1120 q 420 1289 427 1193 l 421 1300 q 477 1396 435 1364 q 574 1428 520 1428 q 659 1408 617 1428 q 758 1305 727 1376 q 766 1247 766 1275 q 739 1160 766 1196 q 617 1103 701 1108 m 233 1225 q 264 1234 259 1227 q 267 1246 267 1238 q 265 1263 267 1253 q 231 1296 254 1285 q 197 1304 213 1304 q 176 1299 184 1304 q 168 1285 172 1295 q 186 1238 172 1250 q 233 1225 201 1225 m 241 1103 q 168 1112 203 1103 q 104 1147 134 1120 q 44 1285 51 1192 q 45 1300 44 1293 q 101 1396 58 1364 q 197 1428 144 1428 q 283 1408 241 1428 q 382 1305 351 1376 q 390 1246 390 1274 q 363 1160 390 1196 q 241 1103 324 1108 z "},"":{"ha":365,"x_min":0,"x_max":342,"o":"m 168 -191 l 168 -188 q 165 -182 166 -186 q 125 -106 155 -150 q 104 -71 115 -89 l 101 -66 q 69 -4 81 -31 q 50 64 57 22 q 33 153 43 109 q 0 469 0 311 q 2 543 0 507 q 102 941 14 787 q 145 983 119 968 q 201 997 171 997 q 257 982 229 997 q 307 919 296 956 q 319 840 317 882 l 319 829 q 322 761 322 795 q 312 646 322 703 l 309 627 q 298 586 301 591 l 296 585 q 294 595 294 585 q 292 625 292 608 q 287 675 290 650 q 273 716 283 701 q 266 721 269 721 q 232 581 246 721 l 229 544 q 227 471 227 509 q 236 303 227 390 q 269 144 246 216 q 275 109 275 125 q 260 55 275 82 q 243 1 246 24 q 239 -46 239 -23 l 239 -53 q 235 -105 239 -76 q 235 -108 235 -106 q 233 -114 235 -111 q 229 -119 232 -118 q 223 -111 225 -119 l 222 -110 q 214 -91 217 -99 q 189 -47 205 -68 q 138 -5 155 -5 q 125 -25 125 -5 q 147 -104 125 -51 q 170 -178 166 -143 q 168 -191 170 -191 m 250 1080 q 222 1085 236 1080 q 132 1185 163 1105 q 104 1298 110 1251 q 92 1358 100 1324 q 86 1391 86 1375 q 95 1430 86 1412 q 148 1480 111 1465 q 182 1487 165 1487 q 221 1478 202 1487 q 271 1424 255 1461 q 324 1237 301 1335 l 329 1219 q 342 1154 342 1173 l 341 1147 q 294 1091 328 1109 q 250 1080 273 1080 z "},"":{"ha":365,"x_min":0,"x_max":397,"o":"m 168 -191 l 168 -188 q 165 -182 166 -186 q 125 -106 155 -150 q 104 -71 115 -89 l 101 -66 q 69 -4 81 -31 q 50 64 57 22 q 33 153 43 109 q 0 469 0 311 q 2 543 0 507 q 102 941 14 787 q 145 983 119 968 q 201 997 171 997 q 257 982 229 997 q 307 919 296 956 q 319 840 317 882 l 319 829 q 322 761 322 795 q 312 646 322 703 l 309 627 q 298 586 301 591 l 296 585 q 294 595 294 585 q 292 625 292 608 q 287 675 290 650 q 273 716 283 701 q 266 721 269 721 q 232 581 246 721 l 229 544 q 227 471 227 509 q 236 303 227 390 q 269 144 246 216 q 275 109 275 125 q 260 55 275 82 q 243 1 246 24 q 239 -46 239 -23 l 239 -53 q 235 -105 239 -76 q 235 -108 235 -106 q 233 -114 235 -111 q 229 -119 232 -118 q 223 -111 225 -119 l 222 -110 q 214 -91 217 -99 q 189 -47 205 -68 q 138 -5 155 -5 q 125 -25 125 -5 q 147 -104 125 -51 q 170 -178 166 -143 q 168 -191 170 -191 m 233 1084 q 189 1095 210 1084 q 142 1151 155 1113 l 142 1158 q 155 1223 142 1177 l 165 1264 q 213 1428 187 1352 q 262 1481 229 1465 q 302 1490 281 1490 q 336 1484 319 1490 q 389 1434 373 1468 q 397 1394 397 1415 q 391 1361 397 1378 q 380 1301 384 1328 q 351 1189 374 1255 q 262 1088 321 1108 q 233 1084 248 1084 z "},"":{"ha":365,"x_min":-49,"x_max":542,"o":"m 168 -191 l 168 -188 q 165 -182 166 -186 q 125 -106 155 -150 q 104 -71 115 -89 l 101 -66 q 69 -4 81 -31 q 50 64 57 22 q 33 153 43 109 q 0 469 0 311 q 2 543 0 507 q 102 941 14 787 q 145 983 119 968 q 201 997 171 997 q 257 982 229 997 q 307 919 296 956 q 319 840 317 882 l 319 829 q 322 761 322 795 q 312 646 322 703 l 309 627 q 298 586 301 591 l 296 585 q 294 595 294 585 q 292 625 292 608 q 287 675 290 650 q 273 716 283 701 q 266 721 269 721 q 232 581 246 721 l 229 544 q 227 471 227 509 q 236 303 227 390 q 269 144 246 216 q 275 109 275 125 q 260 55 275 82 q 243 1 246 24 q 239 -46 239 -23 l 239 -53 q 235 -105 239 -76 q 235 -108 235 -106 q 233 -114 235 -111 q 229 -119 232 -118 q 223 -111 225 -119 l 222 -110 q 214 -91 217 -99 q 189 -47 205 -68 q 138 -5 155 -5 q 125 -25 125 -5 q 147 -104 125 -51 q 170 -178 166 -143 q 168 -191 170 -191 m 458 1048 q 422 1057 440 1048 q 356 1107 387 1075 q 293 1181 326 1139 l 267 1213 l 68 1122 q 35 1114 52 1114 q -10 1127 11 1114 q -41 1163 -31 1140 q -49 1197 -49 1180 q -36 1241 -49 1221 q 0 1273 -23 1261 l 256 1390 q 291 1397 273 1397 q 351 1371 325 1397 q 391 1324 373 1347 q 416 1292 402 1309 q 496 1206 475 1217 q 530 1175 517 1195 q 542 1131 542 1154 q 534 1095 542 1113 q 502 1061 522 1073 q 458 1048 481 1048 z "},"":{"ha":365,"x_min":-110,"x_max":612,"o":"m 168 -191 l 168 -188 q 165 -182 166 -186 q 125 -106 155 -150 q 104 -71 115 -89 l 101 -66 q 69 -4 81 -31 q 50 64 57 22 q 33 153 43 109 q 0 469 0 311 q 2 543 0 507 q 102 941 14 787 q 145 983 119 968 q 201 997 171 997 q 257 982 229 997 q 307 919 296 956 q 319 840 317 882 l 319 829 q 322 761 322 795 q 312 646 322 703 l 309 627 q 298 586 301 591 l 296 585 q 294 595 294 585 q 292 625 292 608 q 287 675 290 650 q 273 716 283 701 q 266 721 269 721 q 232 581 246 721 l 229 544 q 227 471 227 509 q 236 303 227 390 q 269 144 246 216 q 275 109 275 125 q 260 55 275 82 q 243 1 246 24 q 239 -46 239 -23 l 239 -53 q 235 -105 239 -76 q 235 -108 235 -106 q 233 -114 235 -111 q 229 -119 232 -118 q 223 -111 225 -119 l 222 -110 q 214 -91 217 -99 q 189 -47 205 -68 q 138 -5 155 -5 q 125 -25 125 -5 q 147 -104 125 -51 q 170 -178 166 -143 q 168 -191 170 -191 m 454 1198 q 486 1206 481 1200 q 489 1219 489 1210 q 488 1236 489 1226 q 453 1268 477 1257 q 418 1276 435 1276 q 400 1272 406 1276 q 390 1257 393 1267 q 409 1210 394 1222 q 454 1198 423 1198 m 463 1075 q 390 1084 425 1075 q 326 1119 356 1093 q 267 1261 273 1165 l 267 1272 q 323 1368 281 1337 q 420 1400 366 1400 q 505 1380 463 1400 q 604 1278 573 1348 q 612 1219 612 1247 q 585 1133 612 1168 q 463 1075 547 1080 m 79 1198 q 111 1206 105 1200 q 113 1218 113 1210 q 111 1236 113 1225 q 77 1268 100 1257 q 43 1276 59 1276 q 22 1271 31 1276 q 14 1257 18 1267 q 33 1210 18 1222 q 79 1198 47 1198 m 87 1075 q 14 1084 49 1075 q -50 1119 -20 1093 q -110 1257 -103 1164 q -109 1272 -110 1265 q -53 1368 -96 1337 q 43 1400 -9 1400 q 130 1380 87 1400 q 228 1278 197 1348 q 236 1219 236 1246 q 209 1133 236 1168 q 87 1075 170 1080 z "}}}
